<svg width="20" height="11" viewBox="0 0 20 11" fill="none" xmlns="http://www.w3.org/2000/svg">
<path d="M14.3564 2.16668L14.2859 2.23756C13.9562 1.90945 13.9549 1.37621 14.283 1.04654C14.6112 0.716827 15.1444 0.715607 15.4741 1.04368L19.3517 4.90253L19.3522 4.90305L14.3564 2.16668ZM14.3564 2.16668L14.2859 2.23757L16.7179 4.65781H1.24219C0.777049 4.65781 0.4 5.03486 0.4 5.49999C0.4 5.96513 0.777049 6.34218 1.24219 6.34218H16.7179L14.2859 8.76242L14.3542 8.83102L14.2859 8.76243C13.9562 9.09054 13.955 9.62377 14.2831 9.95345C14.6112 10.2832 15.1445 10.2843 15.4741 9.95631L19.3477 6.10144L19.3522 6.09694L14.3564 2.16668ZM19.353 6.09613L19.3523 6.09684L19.353 6.09613ZM19.353 6.09613C19.6824 5.76734 19.6818 5.23355 19.3544 4.90528L19.353 6.09613Z" fill="white" stroke="white" stroke-width="0.2"/>
</svg>
