<svg width="20" height="11" viewBox="0 0 20 11" fill="none" xmlns="http://www.w3.org/2000/svg">
<path d="M5.64359 2.16668L5.71413 2.23756C6.04381 1.90945 6.04507 1.37621 5.71695 1.04654C5.3888 0.716827 4.85557 0.715607 4.5259 1.04368L0.648348 4.90253L0.647821 4.90305L5.64359 2.16668ZM5.64359 2.16668L5.71413 2.23757L3.2821 4.65781H18.7578C19.223 4.65781 19.6 5.03486 19.6 5.49999C19.6 5.96513 19.223 6.34218 18.7578 6.34218H3.28213L5.71409 8.76242L5.64582 8.83102L5.7141 8.76243C6.04377 9.09054 6.04503 9.62377 5.71692 9.95345C5.38875 10.2832 4.85549 10.2843 4.52586 9.95631L0.652334 6.10144L0.647785 6.09694L5.64359 2.16668ZM0.647013 6.09613L0.64769 6.09684L0.647013 6.09613ZM0.647013 6.09613C0.317591 5.76734 0.318195 5.23355 0.645628 4.90528L0.647013 6.09613Z" fill="white" stroke="white" stroke-width="0.2"/>
</svg>
