<svg width="20" height="10" viewBox="0 0 20 10" fill="none" xmlns="http://www.w3.org/2000/svg">
<path d="M5.64359 8.33332L5.71413 8.26244C6.04381 8.59055 6.04507 9.12379 5.71695 9.45346C5.3888 9.78317 4.85557 9.78439 4.5259 9.45632L0.648348 5.59747L0.647821 5.59695L5.64359 8.33332ZM5.64359 8.33332L5.71413 8.26243L3.2821 5.84219L18.7578 5.84219C19.223 5.84219 19.6 5.46514 19.6 5.00001C19.6 4.53487 19.223 4.15782 18.7578 4.15782L3.28213 4.15782L5.71409 1.73758L5.64582 1.66898L5.7141 1.73757C6.04377 1.40946 6.04503 0.876225 5.71692 0.546551C5.38875 0.216789 4.85549 0.215664 4.52586 0.543688L0.652334 4.39856L0.647785 4.40306L5.64359 8.33332ZM0.647013 4.40387L0.64769 4.40316L0.647013 4.40387ZM0.647013 4.40387C0.317591 4.73266 0.318195 5.26645 0.645628 5.59472L0.647013 4.40387Z" fill="#111111" stroke="#111111" stroke-width="0.2"/>
</svg>
