<svg width="16" height="18" viewBox="0 0 16 18" fill="none" xmlns="http://www.w3.org/2000/svg">
<g opacity="0.7">
<mask id="path-1-outside-1_110_699" maskUnits="userSpaceOnUse" x="-0.736328" y="0" width="17" height="18" fill="black">
<rect fill="white" x="-0.736328" width="17" height="18"/>
<path d="M0.265597 12.7333C0.265597 13.3224 0.74317 13.8 1.33226 13.8C1.46587 13.7995 1.59817 13.7736 1.72212 13.7237C2.35252 14.2064 3.24213 14.4581 4.33545 14.4581C4.50024 14.4581 4.67146 14.4504 4.84504 14.4392C5.61944 16.0216 6.73678 17 7.99891 17C9.26104 17 10.3784 16.0216 11.153 14.44C11.3269 14.4512 11.4978 14.4589 11.6626 14.4589C12.756 14.4589 13.6456 14.2072 14.276 13.7245C14.3999 13.7741 14.5321 13.7997 14.6656 13.8C15.1364 13.7986 15.5506 13.4888 15.6849 13.0375C15.8191 12.5863 15.6417 12.1004 15.2482 11.8419C15.2855 10.9832 14.9535 10.0088 14.2778 8.99998C14.9535 7.99146 15.2856 7.01705 15.2482 6.15811C15.7092 5.8606 15.8685 5.26136 15.6161 4.77421C15.3636 4.28706 14.7822 4.07167 14.2733 4.27677C13.5487 3.72238 12.4789 3.47678 11.1533 3.56318C10.3795 1.97947 9.26162 1 7.99894 1C6.73626 1 5.61839 1.97947 4.84373 3.5632C3.51867 3.47733 2.44933 3.72319 1.72372 4.2768C1.21515 4.07335 0.6352 4.28905 0.383173 4.77539C0.131146 5.26173 0.289322 5.85995 0.748787 6.15814C0.711992 7.01655 1.04425 7.99093 1.71999 9.00001C1.04425 10.0088 0.711992 10.9832 0.7496 11.8419C0.447997 12.0382 0.265938 12.3735 0.265597 12.7333ZM0.79894 12.7333C0.79894 12.4388 1.03771 12.2 1.33228 12.2C1.62685 12.2 1.86563 12.4388 1.86563 12.7333C1.86563 13.0279 1.62685 13.2667 1.33228 13.2667C1.19082 13.2667 1.05517 13.2105 0.955148 13.1105C0.85513 13.0104 0.79894 12.8748 0.79894 12.7333ZM5.17468 4.12534C5.88459 4.21034 6.58401 4.36734 7.26214 4.59388C6.78483 4.80691 6.3187 5.04419 5.86562 5.30482C5.41093 5.56724 4.97049 5.8536 4.54614 6.16268C4.68595 5.464 4.89656 4.78135 5.17468 4.12534ZM11.4515 6.16268C11.0272 5.85357 10.5869 5.56719 10.1323 5.30482C9.67982 5.0445 9.21451 4.80722 8.73811 4.59388C9.41557 4.36744 10.1142 4.21047 10.8235 4.12534C11.1014 4.78137 11.3118 5.464 11.4515 6.16268ZM10.8232 13.8747C10.1133 13.7897 9.41386 13.6327 8.73573 13.4061C9.21304 13.1931 9.67917 12.9558 10.1323 12.6952C10.5869 12.4328 11.0274 12.1464 11.4517 11.8373C11.3119 12.536 11.1013 13.2186 10.8232 13.8747ZM9.86561 5.76694C10.467 6.11302 11.0419 6.50315 11.5856 6.93414C11.6837 7.61839 11.7327 8.30878 11.7323 9.00001C11.7328 9.69124 11.6838 10.3816 11.5859 11.0659C11.042 11.4968 10.467 11.887 9.86561 12.2331C9.2661 12.5798 8.64224 12.8827 7.99894 13.1392C7.3556 12.8825 6.73174 12.5795 6.13226 12.2325C5.53089 11.8864 4.95601 11.4963 4.41227 11.0653C4.21706 9.69499 4.21706 8.30392 4.41227 6.93359C4.95603 6.50281 5.53095 6.11287 6.13226 5.76691C6.73227 5.4199 7.35668 5.11688 8.00054 4.86024C8.64332 5.11702 9.26665 5.42004 9.86561 5.76694ZM12.1856 7.43814C12.7175 7.90899 13.2005 8.43226 13.6275 9.00001C13.2011 9.56765 12.7187 10.0909 12.1875 10.5619C12.2399 10.0429 12.2659 9.52162 12.2656 9.00001C12.2658 8.4784 12.2395 7.9571 12.187 7.43814H12.1856ZM3.81227 10.5619C3.28026 10.0912 2.79718 9.56786 2.37039 9.00001C2.79673 8.43236 3.27916 7.9091 3.81038 7.43814C3.70548 8.47674 3.70548 9.52327 3.81038 10.5619H3.81227ZM5.86719 12.6952C6.31962 12.9555 6.78494 13.1928 7.26133 13.4061C6.58388 13.6326 5.8852 13.7895 5.17599 13.8747C4.89795 13.2186 4.68744 12.536 4.54772 11.8373C4.97152 12.1464 5.41143 12.4328 5.86559 12.6952H5.86719ZM7.99894 16.4667C6.99734 16.4667 6.0872 15.6723 5.41599 14.3837C6.29978 14.2585 7.16638 14.0326 7.99894 13.7107C8.83181 14.0328 9.69877 14.2586 10.5829 14.3837C9.91041 15.6723 9.00053 16.4667 7.99894 16.4667ZM14.6656 13.2667C14.3711 13.2667 14.1323 13.0279 14.1323 12.7333C14.1323 12.4388 14.371 12.2 14.6656 12.2C14.9602 12.2 15.199 12.4388 15.199 12.7333C15.199 13.0279 14.9602 13.2667 14.6656 13.2667ZM14.7216 11.6723C14.7027 11.6723 14.6848 11.6667 14.6656 11.6667C14.0765 11.6667 13.5989 12.1442 13.5989 12.7333C13.5999 12.9718 13.6816 13.2029 13.8307 13.389C13.2499 13.7722 12.4021 13.9544 11.3867 13.9163C11.7173 13.0903 11.9516 12.2289 12.0851 11.3493C12.7748 10.7939 13.399 10.1618 13.9456 9.46506C14.3958 10.1188 14.6637 10.8806 14.7216 11.6723ZM15.1989 5.26666C15.1989 5.56121 14.9602 5.8 14.6656 5.8C14.371 5.8 14.1322 5.56123 14.1322 5.26666C14.1322 4.97209 14.371 4.73332 14.6656 4.73332C14.9602 4.73332 15.1989 4.97212 15.1989 5.26666ZM13.8307 4.61094C13.6816 4.79709 13.6 5.0282 13.5989 5.26666C13.5989 5.85577 14.0765 6.33332 14.6656 6.33332C14.6848 6.33332 14.7026 6.32878 14.7216 6.32773C14.6638 7.11937 14.3959 7.88128 13.9456 8.53493C13.3989 7.83821 12.7746 7.20603 12.0848 6.65067C11.9512 5.771 11.7166 4.90966 11.3856 4.08374C12.4019 4.04534 13.2501 4.22667 13.8307 4.61094ZM7.99894 1.53334C9.00053 1.53334 9.91067 2.32774 10.5819 3.61627C9.69854 3.74167 8.83239 3.96748 8.00027 4.28934C7.1674 3.96724 6.30044 3.74143 5.41628 3.61627C6.08746 2.32774 6.99734 1.53334 7.99894 1.53334ZM1.33226 4.73335C1.6268 4.73335 1.8656 4.97212 1.8656 5.26669C1.8656 5.56126 1.62683 5.80003 1.33226 5.80003C1.03769 5.80003 0.798914 5.56126 0.798914 5.26669C0.798914 4.97212 1.03771 4.73335 1.33226 4.73335ZM1.27628 6.32773C1.2952 6.32773 1.31307 6.33332 1.33228 6.33332C1.9214 6.33332 2.39894 5.85575 2.39894 5.26666C2.39794 5.0282 2.31627 4.79707 2.1672 4.61094C2.74773 4.22774 3.59546 4.04587 4.6112 4.08374C4.2806 4.90971 4.04624 5.77106 3.91281 6.65067C3.22315 7.20603 2.59895 7.83811 2.05228 8.53467C1.60187 7.88115 1.33399 7.11932 1.27628 6.32773ZM2.05228 9.46532C2.59921 10.1618 3.22357 10.7939 3.91333 11.3493C4.04692 12.2291 4.28144 13.0905 4.61228 13.9165C3.59735 13.9549 2.74907 13.7722 2.16828 13.389C2.31695 13.2028 2.39823 12.9717 2.39894 12.7333C2.39894 12.1442 1.92137 11.6667 1.33228 11.6667C1.31307 11.6667 1.29523 11.6715 1.27628 11.6723C1.33409 10.8807 1.60195 10.1189 2.05228 9.46532Z"/>
</mask>
<path d="M0.265597 12.7333C0.265597 13.3224 0.74317 13.8 1.33226 13.8C1.46587 13.7995 1.59817 13.7736 1.72212 13.7237C2.35252 14.2064 3.24213 14.4581 4.33545 14.4581C4.50024 14.4581 4.67146 14.4504 4.84504 14.4392C5.61944 16.0216 6.73678 17 7.99891 17C9.26104 17 10.3784 16.0216 11.153 14.44C11.3269 14.4512 11.4978 14.4589 11.6626 14.4589C12.756 14.4589 13.6456 14.2072 14.276 13.7245C14.3999 13.7741 14.5321 13.7997 14.6656 13.8C15.1364 13.7986 15.5506 13.4888 15.6849 13.0375C15.8191 12.5863 15.6417 12.1004 15.2482 11.8419C15.2855 10.9832 14.9535 10.0088 14.2778 8.99998C14.9535 7.99146 15.2856 7.01705 15.2482 6.15811C15.7092 5.8606 15.8685 5.26136 15.6161 4.77421C15.3636 4.28706 14.7822 4.07167 14.2733 4.27677C13.5487 3.72238 12.4789 3.47678 11.1533 3.56318C10.3795 1.97947 9.26162 1 7.99894 1C6.73626 1 5.61839 1.97947 4.84373 3.5632C3.51867 3.47733 2.44933 3.72319 1.72372 4.2768C1.21515 4.07335 0.6352 4.28905 0.383173 4.77539C0.131146 5.26173 0.289322 5.85995 0.748787 6.15814C0.711992 7.01655 1.04425 7.99093 1.71999 9.00001C1.04425 10.0088 0.711992 10.9832 0.7496 11.8419C0.447997 12.0382 0.265938 12.3735 0.265597 12.7333ZM0.79894 12.7333C0.79894 12.4388 1.03771 12.2 1.33228 12.2C1.62685 12.2 1.86563 12.4388 1.86563 12.7333C1.86563 13.0279 1.62685 13.2667 1.33228 13.2667C1.19082 13.2667 1.05517 13.2105 0.955148 13.1105C0.85513 13.0104 0.79894 12.8748 0.79894 12.7333ZM5.17468 4.12534C5.88459 4.21034 6.58401 4.36734 7.26214 4.59388C6.78483 4.80691 6.3187 5.04419 5.86562 5.30482C5.41093 5.56724 4.97049 5.8536 4.54614 6.16268C4.68595 5.464 4.89656 4.78135 5.17468 4.12534ZM11.4515 6.16268C11.0272 5.85357 10.5869 5.56719 10.1323 5.30482C9.67982 5.0445 9.21451 4.80722 8.73811 4.59388C9.41557 4.36744 10.1142 4.21047 10.8235 4.12534C11.1014 4.78137 11.3118 5.464 11.4515 6.16268ZM10.8232 13.8747C10.1133 13.7897 9.41386 13.6327 8.73573 13.4061C9.21304 13.1931 9.67917 12.9558 10.1323 12.6952C10.5869 12.4328 11.0274 12.1464 11.4517 11.8373C11.3119 12.536 11.1013 13.2186 10.8232 13.8747ZM9.86561 5.76694C10.467 6.11302 11.0419 6.50315 11.5856 6.93414C11.6837 7.61839 11.7327 8.30878 11.7323 9.00001C11.7328 9.69124 11.6838 10.3816 11.5859 11.0659C11.042 11.4968 10.467 11.887 9.86561 12.2331C9.2661 12.5798 8.64224 12.8827 7.99894 13.1392C7.3556 12.8825 6.73174 12.5795 6.13226 12.2325C5.53089 11.8864 4.95601 11.4963 4.41227 11.0653C4.21706 9.69499 4.21706 8.30392 4.41227 6.93359C4.95603 6.50281 5.53095 6.11287 6.13226 5.76691C6.73227 5.4199 7.35668 5.11688 8.00054 4.86024C8.64332 5.11702 9.26665 5.42004 9.86561 5.76694ZM12.1856 7.43814C12.7175 7.90899 13.2005 8.43226 13.6275 9.00001C13.2011 9.56765 12.7187 10.0909 12.1875 10.5619C12.2399 10.0429 12.2659 9.52162 12.2656 9.00001C12.2658 8.4784 12.2395 7.9571 12.187 7.43814H12.1856ZM3.81227 10.5619C3.28026 10.0912 2.79718 9.56786 2.37039 9.00001C2.79673 8.43236 3.27916 7.9091 3.81038 7.43814C3.70548 8.47674 3.70548 9.52327 3.81038 10.5619H3.81227ZM5.86719 12.6952C6.31962 12.9555 6.78494 13.1928 7.26133 13.4061C6.58388 13.6326 5.8852 13.7895 5.17599 13.8747C4.89795 13.2186 4.68744 12.536 4.54772 11.8373C4.97152 12.1464 5.41143 12.4328 5.86559 12.6952H5.86719ZM7.99894 16.4667C6.99734 16.4667 6.0872 15.6723 5.41599 14.3837C6.29978 14.2585 7.16638 14.0326 7.99894 13.7107C8.83181 14.0328 9.69877 14.2586 10.5829 14.3837C9.91041 15.6723 9.00053 16.4667 7.99894 16.4667ZM14.6656 13.2667C14.3711 13.2667 14.1323 13.0279 14.1323 12.7333C14.1323 12.4388 14.371 12.2 14.6656 12.2C14.9602 12.2 15.199 12.4388 15.199 12.7333C15.199 13.0279 14.9602 13.2667 14.6656 13.2667ZM14.7216 11.6723C14.7027 11.6723 14.6848 11.6667 14.6656 11.6667C14.0765 11.6667 13.5989 12.1442 13.5989 12.7333C13.5999 12.9718 13.6816 13.2029 13.8307 13.389C13.2499 13.7722 12.4021 13.9544 11.3867 13.9163C11.7173 13.0903 11.9516 12.2289 12.0851 11.3493C12.7748 10.7939 13.399 10.1618 13.9456 9.46506C14.3958 10.1188 14.6637 10.8806 14.7216 11.6723ZM15.1989 5.26666C15.1989 5.56121 14.9602 5.8 14.6656 5.8C14.371 5.8 14.1322 5.56123 14.1322 5.26666C14.1322 4.97209 14.371 4.73332 14.6656 4.73332C14.9602 4.73332 15.1989 4.97212 15.1989 5.26666ZM13.8307 4.61094C13.6816 4.79709 13.6 5.0282 13.5989 5.26666C13.5989 5.85577 14.0765 6.33332 14.6656 6.33332C14.6848 6.33332 14.7026 6.32878 14.7216 6.32773C14.6638 7.11937 14.3959 7.88128 13.9456 8.53493C13.3989 7.83821 12.7746 7.20603 12.0848 6.65067C11.9512 5.771 11.7166 4.90966 11.3856 4.08374C12.4019 4.04534 13.2501 4.22667 13.8307 4.61094ZM7.99894 1.53334C9.00053 1.53334 9.91067 2.32774 10.5819 3.61627C9.69854 3.74167 8.83239 3.96748 8.00027 4.28934C7.1674 3.96724 6.30044 3.74143 5.41628 3.61627C6.08746 2.32774 6.99734 1.53334 7.99894 1.53334ZM1.33226 4.73335C1.6268 4.73335 1.8656 4.97212 1.8656 5.26669C1.8656 5.56126 1.62683 5.80003 1.33226 5.80003C1.03769 5.80003 0.798914 5.56126 0.798914 5.26669C0.798914 4.97212 1.03771 4.73335 1.33226 4.73335ZM1.27628 6.32773C1.2952 6.32773 1.31307 6.33332 1.33228 6.33332C1.9214 6.33332 2.39894 5.85575 2.39894 5.26666C2.39794 5.0282 2.31627 4.79707 2.1672 4.61094C2.74773 4.22774 3.59546 4.04587 4.6112 4.08374C4.2806 4.90971 4.04624 5.77106 3.91281 6.65067C3.22315 7.20603 2.59895 7.83811 2.05228 8.53467C1.60187 7.88115 1.33399 7.11932 1.27628 6.32773ZM2.05228 9.46532C2.59921 10.1618 3.22357 10.7939 3.91333 11.3493C4.04692 12.2291 4.28144 13.0905 4.61228 13.9165C3.59735 13.9549 2.74907 13.7722 2.16828 13.389C2.31695 13.2028 2.39823 12.9717 2.39894 12.7333C2.39894 12.1442 1.92137 11.6667 1.33228 11.6667C1.31307 11.6667 1.29523 11.6715 1.27628 11.6723C1.33409 10.8807 1.60195 10.1189 2.05228 9.46532Z" fill="white"/>
<path d="M0.265597 12.7333C0.265597 13.3224 0.74317 13.8 1.33226 13.8C1.46587 13.7995 1.59817 13.7736 1.72212 13.7237C2.35252 14.2064 3.24213 14.4581 4.33545 14.4581C4.50024 14.4581 4.67146 14.4504 4.84504 14.4392C5.61944 16.0216 6.73678 17 7.99891 17C9.26104 17 10.3784 16.0216 11.153 14.44C11.3269 14.4512 11.4978 14.4589 11.6626 14.4589C12.756 14.4589 13.6456 14.2072 14.276 13.7245C14.3999 13.7741 14.5321 13.7997 14.6656 13.8C15.1364 13.7986 15.5506 13.4888 15.6849 13.0375C15.8191 12.5863 15.6417 12.1004 15.2482 11.8419C15.2855 10.9832 14.9535 10.0088 14.2778 8.99998C14.9535 7.99146 15.2856 7.01705 15.2482 6.15811C15.7092 5.8606 15.8685 5.26136 15.6161 4.77421C15.3636 4.28706 14.7822 4.07167 14.2733 4.27677C13.5487 3.72238 12.4789 3.47678 11.1533 3.56318C10.3795 1.97947 9.26162 1 7.99894 1C6.73626 1 5.61839 1.97947 4.84373 3.5632C3.51867 3.47733 2.44933 3.72319 1.72372 4.2768C1.21515 4.07335 0.6352 4.28905 0.383173 4.77539C0.131146 5.26173 0.289322 5.85995 0.748787 6.15814C0.711992 7.01655 1.04425 7.99093 1.71999 9.00001C1.04425 10.0088 0.711992 10.9832 0.7496 11.8419C0.447997 12.0382 0.265938 12.3735 0.265597 12.7333ZM0.79894 12.7333C0.79894 12.4388 1.03771 12.2 1.33228 12.2C1.62685 12.2 1.86563 12.4388 1.86563 12.7333C1.86563 13.0279 1.62685 13.2667 1.33228 13.2667C1.19082 13.2667 1.05517 13.2105 0.955148 13.1105C0.85513 13.0104 0.79894 12.8748 0.79894 12.7333ZM5.17468 4.12534C5.88459 4.21034 6.58401 4.36734 7.26214 4.59388C6.78483 4.80691 6.3187 5.04419 5.86562 5.30482C5.41093 5.56724 4.97049 5.8536 4.54614 6.16268C4.68595 5.464 4.89656 4.78135 5.17468 4.12534ZM11.4515 6.16268C11.0272 5.85357 10.5869 5.56719 10.1323 5.30482C9.67982 5.0445 9.21451 4.80722 8.73811 4.59388C9.41557 4.36744 10.1142 4.21047 10.8235 4.12534C11.1014 4.78137 11.3118 5.464 11.4515 6.16268ZM10.8232 13.8747C10.1133 13.7897 9.41386 13.6327 8.73573 13.4061C9.21304 13.1931 9.67917 12.9558 10.1323 12.6952C10.5869 12.4328 11.0274 12.1464 11.4517 11.8373C11.3119 12.536 11.1013 13.2186 10.8232 13.8747ZM9.86561 5.76694C10.467 6.11302 11.0419 6.50315 11.5856 6.93414C11.6837 7.61839 11.7327 8.30878 11.7323 9.00001C11.7328 9.69124 11.6838 10.3816 11.5859 11.0659C11.042 11.4968 10.467 11.887 9.86561 12.2331C9.2661 12.5798 8.64224 12.8827 7.99894 13.1392C7.3556 12.8825 6.73174 12.5795 6.13226 12.2325C5.53089 11.8864 4.95601 11.4963 4.41227 11.0653C4.21706 9.69499 4.21706 8.30392 4.41227 6.93359C4.95603 6.50281 5.53095 6.11287 6.13226 5.76691C6.73227 5.4199 7.35668 5.11688 8.00054 4.86024C8.64332 5.11702 9.26665 5.42004 9.86561 5.76694ZM12.1856 7.43814C12.7175 7.90899 13.2005 8.43226 13.6275 9.00001C13.2011 9.56765 12.7187 10.0909 12.1875 10.5619C12.2399 10.0429 12.2659 9.52162 12.2656 9.00001C12.2658 8.4784 12.2395 7.9571 12.187 7.43814H12.1856ZM3.81227 10.5619C3.28026 10.0912 2.79718 9.56786 2.37039 9.00001C2.79673 8.43236 3.27916 7.9091 3.81038 7.43814C3.70548 8.47674 3.70548 9.52327 3.81038 10.5619H3.81227ZM5.86719 12.6952C6.31962 12.9555 6.78494 13.1928 7.26133 13.4061C6.58388 13.6326 5.8852 13.7895 5.17599 13.8747C4.89795 13.2186 4.68744 12.536 4.54772 11.8373C4.97152 12.1464 5.41143 12.4328 5.86559 12.6952H5.86719ZM7.99894 16.4667C6.99734 16.4667 6.0872 15.6723 5.41599 14.3837C6.29978 14.2585 7.16638 14.0326 7.99894 13.7107C8.83181 14.0328 9.69877 14.2586 10.5829 14.3837C9.91041 15.6723 9.00053 16.4667 7.99894 16.4667ZM14.6656 13.2667C14.3711 13.2667 14.1323 13.0279 14.1323 12.7333C14.1323 12.4388 14.371 12.2 14.6656 12.2C14.9602 12.2 15.199 12.4388 15.199 12.7333C15.199 13.0279 14.9602 13.2667 14.6656 13.2667ZM14.7216 11.6723C14.7027 11.6723 14.6848 11.6667 14.6656 11.6667C14.0765 11.6667 13.5989 12.1442 13.5989 12.7333C13.5999 12.9718 13.6816 13.2029 13.8307 13.389C13.2499 13.7722 12.4021 13.9544 11.3867 13.9163C11.7173 13.0903 11.9516 12.2289 12.0851 11.3493C12.7748 10.7939 13.399 10.1618 13.9456 9.46506C14.3958 10.1188 14.6637 10.8806 14.7216 11.6723ZM15.1989 5.26666C15.1989 5.56121 14.9602 5.8 14.6656 5.8C14.371 5.8 14.1322 5.56123 14.1322 5.26666C14.1322 4.97209 14.371 4.73332 14.6656 4.73332C14.9602 4.73332 15.1989 4.97212 15.1989 5.26666ZM13.8307 4.61094C13.6816 4.79709 13.6 5.0282 13.5989 5.26666C13.5989 5.85577 14.0765 6.33332 14.6656 6.33332C14.6848 6.33332 14.7026 6.32878 14.7216 6.32773C14.6638 7.11937 14.3959 7.88128 13.9456 8.53493C13.3989 7.83821 12.7746 7.20603 12.0848 6.65067C11.9512 5.771 11.7166 4.90966 11.3856 4.08374C12.4019 4.04534 13.2501 4.22667 13.8307 4.61094ZM7.99894 1.53334C9.00053 1.53334 9.91067 2.32774 10.5819 3.61627C9.69854 3.74167 8.83239 3.96748 8.00027 4.28934C7.1674 3.96724 6.30044 3.74143 5.41628 3.61627C6.08746 2.32774 6.99734 1.53334 7.99894 1.53334ZM1.33226 4.73335C1.6268 4.73335 1.8656 4.97212 1.8656 5.26669C1.8656 5.56126 1.62683 5.80003 1.33226 5.80003C1.03769 5.80003 0.798914 5.56126 0.798914 5.26669C0.798914 4.97212 1.03771 4.73335 1.33226 4.73335ZM1.27628 6.32773C1.2952 6.32773 1.31307 6.33332 1.33228 6.33332C1.9214 6.33332 2.39894 5.85575 2.39894 5.26666C2.39794 5.0282 2.31627 4.79707 2.1672 4.61094C2.74773 4.22774 3.59546 4.04587 4.6112 4.08374C4.2806 4.90971 4.04624 5.77106 3.91281 6.65067C3.22315 7.20603 2.59895 7.83811 2.05228 8.53467C1.60187 7.88115 1.33399 7.11932 1.27628 6.32773ZM2.05228 9.46532C2.59921 10.1618 3.22357 10.7939 3.91333 11.3493C4.04692 12.2291 4.28144 13.0905 4.61228 13.9165C3.59735 13.9549 2.74907 13.7722 2.16828 13.389C2.31695 13.2028 2.39823 12.9717 2.39894 12.7333C2.39894 12.1442 1.92137 11.6667 1.33228 11.6667C1.31307 11.6667 1.29523 11.6715 1.27628 11.6723C1.33409 10.8807 1.60195 10.1189 2.05228 9.46532Z" stroke="white" stroke-width="0.4" mask="url(#path-1-outside-1_110_699)"/>
</g>
</svg>
