<svg width="1749" height="908" viewBox="0 0 1749 908" fill="none" xmlns="http://www.w3.org/2000/svg">
<path d="M0.769531 361.351C0.769531 361.351 204.577 448.133 386.48 232.234C713.053 -155.391 309.209 702.049 776.73 439.422C1061.21 279.608 940.624 380.36 1025.83 605.714C1063.36 704.978 1079.04 802.976 1430.99 330.977C1699.05 -28.5319 1827.1 -74.5903 1778.87 99.5431C1513.37 1058.16 2073.05 403.514 2365.76 194.687" stroke="url(#paint0_linear_536_667)" stroke-miterlimit="10"/>
<path d="M4.16797 367.828C4.16797 367.828 207.454 457.042 393.277 236.602C719.651 -150.676 315.46 707.211 776.656 450.813C1056.49 294.82 945.784 376.762 1034.64 595.688C1074.11 692.892 1085.59 802.976 1434.19 341.747C1700.31 -9.64693 1832.95 -70.5949 1784.08 108.899C1526.22 1056.32 2072.53 416.517 2363.65 206.177" stroke="url(#paint1_linear_536_667)" stroke-miterlimit="10"/>
<path d="M7.56641 374.281C7.56641 374.281 210.307 465.901 400.099 240.92C726.299 -145.985 321.711 712.348 776.606 462.179C1051.81 310.008 951.043 373.189 1043.5 585.638C1084.92 680.832 1092.19 802.951 1437.47 352.492C1701.63 9.21356 1838.85 -66.6487 1789.37 118.255C1538.85 1054.36 2072.08 429.521 2361.64 217.667" stroke="url(#paint2_linear_536_667)" stroke-miterlimit="10"/>
<path d="M10.9648 380.757C10.9648 380.757 213.184 474.81 406.895 245.287C732.898 -141.271 327.962 717.534 776.531 473.594C1047.09 325.244 956.425 369.714 1052.3 575.637C1095.71 668.87 1098.74 802.976 1440.67 363.287C1702.87 28.1476 1844.68 -62.6291 1794.6 127.635C1551.2 1052.38 2071.56 442.549 2359.56 229.182" stroke="url(#paint3_linear_536_667)" stroke-miterlimit="10"/>
<path d="M14.3633 387.234C14.3633 387.234 216.037 483.694 413.717 249.63C739.521 -136.556 334.784 723.714 776.457 484.984C1042.73 341.077 961.908 366.265 1061.11 565.611C1106.55 656.934 1105.29 803.001 1443.89 374.057C1704.16 47.0327 1850.51 -58.6584 1799.83 137.015C1563.28 1050.29 2071.06 455.602 2357.5 240.696" stroke="url(#paint4_linear_536_667)" stroke-miterlimit="10"/>
<path d="M17.7866 393.711C17.7866 393.711 218.94 492.603 420.564 253.997C746.194 -131.841 341.209 729.123 776.432 496.4C1038.14 356.462 967.564 362.865 1069.99 555.586C1117.52 645.047 1110.87 802.157 1447.17 384.827C1704.68 65.2722 1856.39 -54.688 1805.12 146.371C1575.21 1048.13 2070.62 468.606 2355.47 252.211" stroke="url(#paint5_linear_536_667)" stroke-miterlimit="10"/>
<path d="M21.1851 400.188C21.1851 400.188 221.792 501.512 427.361 258.341C752.792 -127.125 347.559 734.534 776.358 507.766C1033.5 371.799 973.343 359.465 1078.79 545.535C1128.48 633.185 1117.22 801.983 1450.39 395.573C1705.82 84.0086 1862.2 -50.7668 1810.35 155.727C1586.92 1045.9 2070.12 481.61 2353.38 263.701" stroke="url(#paint6_linear_536_667)" stroke-miterlimit="10"/>
<path d="M24.5835 406.665C24.5835 406.665 224.645 510.395 434.182 262.708C759.415 -122.411 353.959 739.943 776.308 519.18C1028.86 387.159 979.272 356.14 1087.63 535.534C1139.49 621.422 1123.62 801.834 1453.61 406.367C1706.93 102.769 1867.98 -46.7968 1815.61 165.106C1598.43 1043.64 2069.65 494.662 2351.35 275.215" stroke="url(#paint7_linear_536_667)" stroke-miterlimit="10"/>
<path d="M27.9819 413.142C27.9819 413.142 227.522 519.305 440.979 267.051C766.014 -117.695 360.31 745.353 776.234 530.571C1024.22 402.521 985.35 352.79 1096.46 525.509C1150.58 609.66 1130.02 801.686 1456.86 417.138C1708.13 121.53 1873.78 -42.8505 1820.87 174.463C1609.79 1041.31 2069.18 507.666 2349.29 286.705" stroke="url(#paint8_linear_536_667)" stroke-miterlimit="10"/>
<path d="M31.3804 419.619C31.3804 419.619 230.375 528.213 447.801 271.418C772.662 -112.981 366.685 750.763 776.184 541.986C1019.58 417.882 991.625 349.489 1105.29 515.507C1161.72 597.971 1136.44 801.536 1460.09 427.957C1709.27 140.34 1879.56 -38.8558 1826.1 183.892C1620.96 1039 2068.66 520.744 2347.23 298.269" stroke="url(#paint9_linear_536_667)" stroke-miterlimit="10"/>
<path d="M34.7788 426.096C34.7788 426.096 233.253 537.098 454.622 275.761C779.285 -108.29 373.035 756.148 776.135 553.352C1014.97 433.218 998.1 346.09 1114.12 505.457C1172.96 586.258 1142.84 801.363 1463.34 438.703C1710.43 159.077 1885.32 -34.9592 1831.39 193.223C1632 1036.57 2068.21 533.723 2345.2 309.734" stroke="url(#paint10_linear_536_667)" stroke-miterlimit="10"/>
<path d="M38.1772 432.548C38.1772 432.548 236.105 545.982 461.419 280.104C785.884 -103.575 379.386 761.508 776.06 564.743C1010.3 448.554 1004.7 342.715 1122.92 495.432C1184.2 574.57 1149.27 801.189 1466.54 449.473C1711.57 177.837 1891.02 -31.0383 1836.6 202.604C1642.86 1034.11 2067.69 546.776 2343.11 321.249" stroke="url(#paint11_linear_536_667)" stroke-miterlimit="10"/>
<path d="M41.5757 439.025C41.5757 439.025 238.983 554.866 468.241 284.447C792.532 -98.8848 385.736 766.894 776.011 576.134C1005.67 463.891 1011.52 339.29 1131.78 485.382C1195.58 562.882 1155.72 801.015 1469.81 460.218C1712.79 196.574 1896.78 -27.1419 1841.88 211.935C1653.65 1031.61 2067.24 559.755 2341.08 332.714" stroke="url(#paint12_linear_536_667)" stroke-miterlimit="10"/>
<path d="M44.9741 445.502C44.9741 445.502 241.836 563.775 475.038 288.814C799.13 -94.1455 392.061 772.278 775.936 587.548C1001 479.227 1018.47 335.865 1140.59 475.38C1206.99 551.267 1162.14 800.891 1473.01 471.013C1713.96 215.359 1902.46 -23.1967 1847.09 221.34C1664.24 1029.12 2066.72 572.808 2338.97 344.253" stroke="url(#paint13_linear_536_667)" stroke-miterlimit="10"/>
<path d="M48.3726 451.979C48.3726 451.979 244.688 572.684 481.86 293.157C805.753 -89.4546 398.387 777.639 775.887 598.939C996.339 494.564 1025.63 332.317 1149.42 465.355C1218.5 539.604 1168.62 800.743 1476.26 481.783C1715.17 234.095 1908.14 -19.3 1852.37 230.696C1674.79 1026.57 2066.28 585.812 2336.96 355.743" stroke="url(#paint14_linear_536_667)" stroke-miterlimit="10"/>
<path d="M51.771 458.456C51.771 458.456 247.566 581.568 488.681 297.525C812.401 -84.715 404.737 783.024 775.812 610.33C991.675 509.875 1032.98 328.718 1158.25 455.329C1230.09 527.941 1175.09 800.594 1479.49 492.553C1716.36 252.856 1913.79 -15.4041 1857.61 240.051C1685.18 1023.96 2065.76 598.84 2334.88 367.233" stroke="url(#paint15_linear_536_667)" stroke-miterlimit="10"/>
<path d="M55.1694 464.933C55.1694 464.933 250.418 590.477 495.478 301.868C819 -80.025 411.013 788.384 775.738 621.72C986.987 525.186 1040.44 325.021 1167.05 445.304C1241.72 516.252 1181.54 800.445 1482.71 503.323C1717.55 271.642 1919.42 -11.5082 1862.84 249.431C1695.47 1021.38 2065.26 611.868 2332.82 378.747" stroke="url(#paint16_linear_536_667)" stroke-miterlimit="10"/>
<path d="M58.5679 471.41C58.5679 471.41 253.296 599.386 502.3 306.235C825.623 -75.2853 417.339 793.744 775.688 633.135C982.323 540.522 1048.11 321.273 1175.89 435.303C1253.48 504.539 1188.04 800.32 1485.94 514.118C1718.77 290.427 1925.03 -7.58741 1868.08 258.812C1705.67 1018.77 2064.76 624.896 2330.73 390.262" stroke="url(#paint17_linear_536_667)" stroke-miterlimit="10"/>
<path d="M61.9663 477.887C61.9663 477.887 256.149 608.27 509.122 310.578C832.246 -70.595 423.64 799.055 775.639 644.526C977.66 555.834 1055.92 317.377 1184.74 425.277C1265.31 492.776 1194.59 800.196 1489.21 524.913C1720.06 309.213 1930.66 -3.6912 1873.38 268.217C1715.84 1016.17 2064.34 637.95 2328.73 401.801" stroke="url(#paint18_linear_536_667)" stroke-miterlimit="10"/>
<path d="M65.3647 484.364C65.3647 484.364 259.026 617.179 515.918 314.946C838.869 -65.8796 429.916 804.415 775.564 655.917C972.946 571.121 1063.86 313.357 1193.55 415.227C1277.17 480.915 1201.09 800.048 1492.41 535.659C1721.27 327.974 1936.17 0.155566 1878.59 277.548C1725.84 1013.46 2063.82 650.953 2326.64 413.266" stroke="url(#paint19_linear_536_667)" stroke-miterlimit="10"/>
<path d="M68.7632 490.841C68.7632 490.841 261.879 626.063 522.74 319.288C845.492 -61.1651 436.216 809.725 775.514 667.307C968.283 586.407 1071.92 309.238 1202.38 405.201C1289.15 469.027 1207.64 799.923 1495.66 546.428C1722.54 346.759 1941.72 4.02636 1883.85 286.903C1735.78 1010.76 2063.35 663.957 2324.58 424.756" stroke="url(#paint20_linear_536_667)" stroke-miterlimit="10"/>
<path d="M72.1865 497.293C72.1865 497.293 264.781 634.947 529.562 323.632C852.116 -56.4742 442.492 815.012 775.465 678.698C963.595 601.694 1080.11 304.97 1211.21 395.176C1301.16 457.067 1214.19 799.8 1498.89 557.199C1723.8 365.546 1947.21 7.89833 1889.11 296.284C1745.68 1008.08 2062.85 676.986 2322.55 436.271" stroke="url(#paint21_linear_536_667)" stroke-miterlimit="10"/>
<path d="M75.585 503.77C75.585 503.77 267.634 643.856 536.383 327.974C858.764 -51.7599 448.743 820.297 775.415 690.088C958.906 616.955 1088.37 300.577 1220.07 385.149C1313.29 445.005 1220.81 799.7 1502.16 567.968C1725.12 384.33 1952.74 11.744 1894.39 305.639C1755.51 1005.35 2062.41 689.988 2320.51 447.76" stroke="url(#paint22_linear_536_667)" stroke-miterlimit="10"/>
<path d="M78.9834 510.247C78.9834 510.247 270.487 652.74 543.205 332.341C865.387 -47.0447 454.995 825.583 775.366 701.503C954.193 632.242 1096.7 296.085 1228.9 375.149C1325.42 432.871 1227.41 799.65 1505.39 578.764C1726.41 403.166 1958.15 15.6155 1899.63 315.045C1765.23 1002.67 2061.91 703.067 2318.43 459.3" stroke="url(#paint23_linear_536_667)" stroke-miterlimit="10"/>
<path d="M82.3818 516.724C82.3818 516.724 273.364 661.649 550.002 336.685C871.986 -42.3293 461.221 830.819 775.291 712.869C949.455 647.455 1105.09 291.42 1237.7 365.099C1337.6 420.587 1233.98 799.551 1508.61 589.509C1727.7 421.952 1963.55 19.4376 1904.86 324.376C1774.88 999.89 2061.41 716.046 2316.37 470.765" stroke="url(#paint24_linear_536_667)" stroke-miterlimit="10"/>
<path d="M85.7803 523.201C85.7803 523.201 276.217 670.558 556.824 341.052C878.634 -37.6147 467.447 836.08 775.242 724.284C944.742 662.716 1113.52 286.655 1246.56 355.098C1349.85 408.228 1240.65 799.501 1511.86 600.304C1729.04 440.787 1968.94 23.3085 1910.15 333.781C1784.53 997.185 2060.97 729.099 2314.34 482.304" stroke="url(#paint25_linear_536_667)" stroke-miterlimit="10"/>
<path d="M89.1787 529.678C89.1787 529.678 279.094 679.442 563.621 345.395C885.232 -32.9244 473.649 841.291 775.142 735.675C939.979 677.928 1121.93 281.742 1255.34 345.047C1362.08 395.696 1247.25 799.452 1515.06 611.049C1730.35 459.598 1974.22 27.1053 1915.36 343.111C1794.03 994.406 2060.42 742.077 2312.25 493.769" stroke="url(#paint26_linear_536_667)" stroke-miterlimit="10"/>
<path d="M92.5771 536.154C92.5771 536.154 281.947 688.351 570.442 349.762C891.855 -28.1848 479.85 846.478 775.093 747.09C935.266 693.165 1130.39 276.729 1264.17 335.046C1374.36 383.09 1253.93 799.452 1518.28 621.869C1731.69 478.507 1979.5 31.0012 1920.59 352.517C1803.51 991.676 2059.93 755.155 2310.17 505.308" stroke="url(#paint27_linear_536_667)" stroke-miterlimit="10"/>
<path d="M95.9756 542.632C95.9756 542.632 284.825 697.235 577.264 354.105C898.479 -23.494 486.052 851.64 775.043 758.456C930.528 708.328 1138.87 271.543 1273.03 324.996C1386.69 370.285 1260.65 799.427 1521.56 632.615C1733.11 497.343 1984.79 34.7738 1925.9 361.873C1813.01 988.897 2059.5 768.159 2308.19 516.799" stroke="url(#paint28_linear_536_667)" stroke-miterlimit="10"/>
<path d="M99.374 549.109C99.374 549.109 287.677 706.144 584.061 358.473C905.102 -18.754 492.204 856.802 774.969 769.872C925.741 723.515 1147.28 266.282 1281.83 314.996C1398.99 357.406 1267.32 799.477 1524.76 643.41C1734.47 516.278 1989.95 38.6205 1931.11 371.253C1822.33 986.143 2058.98 781.188 2306.08 528.313" stroke="url(#paint29_linear_536_667)" stroke-miterlimit="10"/>
<path d="M102.772 555.56C102.772 555.56 290.53 715.028 590.883 362.79C911.725 -14.0894 498.381 861.864 774.919 781.237C921.002 738.652 1155.67 260.871 1290.66 304.944C1411.3 344.327 1274.07 799.501 1528.01 654.154C1735.88 535.162 1995.11 42.3917 1936.37 380.608C1831.69 983.338 2058.51 794.19 2304.02 539.802" stroke="url(#paint30_linear_536_667)" stroke-miterlimit="10"/>
<path d="M106.171 562.038C106.171 562.038 293.408 723.912 597.679 367.158C918.323 -9.34899 504.508 866.927 774.845 792.653C916.215 753.816 1164 255.388 1299.49 294.944C1423.6 331.175 1280.82 799.626 1531.23 664.95C1737.3 554.147 2000.19 46.2139 1941.6 389.989C1840.96 980.584 2058.02 807.244 2301.96 551.318" stroke="url(#paint31_linear_536_667)" stroke-miterlimit="10"/>
<path d="M109.569 568.514C109.569 568.514 296.26 732.821 604.501 371.501C924.972 -4.65933 510.66 871.914 774.795 804.042C911.452 768.903 1172.29 249.778 1308.33 284.893C1435.85 317.824 1287.56 799.724 1534.48 675.694C1738.74 573.081 2005.25 49.9854 1946.88 399.344C1850.24 977.779 2057.54 820.247 2299.93 562.807" stroke="url(#paint32_linear_536_667)" stroke-miterlimit="10"/>
<path d="M112.968 574.992C112.968 574.992 299.138 741.73 611.323 375.869C931.595 0.0811944 516.787 876.903 774.746 815.434C906.69 783.992 1180.5 244.096 1317.16 274.868C1448.11 304.374 1294.36 799.899 1537.71 686.465C1740.18 592.09 2010.21 53.7581 1952.12 408.7C1859.44 974.975 2057.05 833.251 2297.87 574.297" stroke="url(#paint33_linear_536_667)" stroke-miterlimit="10"/>
<path d="M116.366 581.468C116.366 581.468 301.99 750.614 618.12 380.211C938.193 4.77077 522.889 881.791 774.671 826.823C901.902 799.054 1188.59 238.314 1325.96 264.842C1460.29 290.774 1301.11 800.121 1540.93 697.235C1741.61 611.148 2015.13 57.5294 1957.35 418.055C1868.57 972.17 2056.55 846.279 2295.78 585.786" stroke="url(#paint34_linear_536_667)" stroke-miterlimit="10"/>
<path d="M119.765 587.946C119.765 587.946 304.868 759.523 624.941 384.579C944.841 9.4861 529.016 886.655 774.622 838.239C897.114 814.093 1196.62 232.482 1334.82 254.841C1472.44 277.101 1307.93 800.395 1544.18 708.03C1743.1 630.257 2019.99 61.3266 1962.64 427.461C1877.75 969.441 2056.11 859.333 2293.75 597.351" stroke="url(#paint35_linear_536_667)" stroke-miterlimit="10"/>
<path d="M123.163 594.423C123.163 594.423 307.721 768.407 631.738 388.922C951.44 14.2015 535.094 891.395 774.547 849.63C892.327 829.082 1204.54 226.576 1343.62 244.816C1484.52 263.279 1314.7 800.718 1547.41 718.825C1744.54 649.44 2024.75 65.1238 1967.87 436.842C1886.8 966.662 2055.61 872.361 2291.69 608.866" stroke="url(#paint36_linear_536_667)" stroke-miterlimit="10"/>
<path d="M126.562 600.9C126.562 600.9 310.598 777.316 638.56 393.29C958.063 18.9164 541.221 896.085 774.473 861.045C887.514 844.071 1212.35 220.645 1352.43 234.815C1496.53 249.407 1321.47 801.115 1550.61 729.62C1745.98 668.647 2029.39 68.8957 1973.08 446.247C1895.81 963.932 2055.09 885.414 2289.58 620.405" stroke="url(#paint37_linear_536_667)" stroke-miterlimit="10"/>
<path d="M129.984 607.377C129.984 607.377 313.475 786.225 645.406 397.633C964.71 23.6316 547.347 900.652 774.447 872.411C882.776 858.936 1220.11 214.59 1361.31 224.765C1508.54 235.361 1328.29 801.537 1553.91 740.366C1747.49 687.88 2034.08 72.6182 1978.39 455.578C1904.89 961.128 2054.64 898.418 2287.6 631.87" stroke="url(#paint38_linear_536_667)" stroke-miterlimit="10"/>
<path d="M133.383 613.828C133.383 613.828 316.328 795.084 652.203 401.975C971.334 28.3211 553.475 905.093 774.373 883.801C877.988 873.8 1227.71 208.535 1370.12 214.714C1520.39 221.24 1335.04 802.008 1557.11 751.11C1748.88 707.136 2038.57 76.3152 1983.62 464.933C1913.87 958.348 2054.15 911.421 2285.51 643.359" stroke="url(#paint39_linear_536_667)" stroke-miterlimit="10"/>
<path d="M136.782 620.305C136.782 620.305 319.206 803.993 659.025 406.318C977.958 33.0362 559.627 909.436 774.324 895.192C873.251 888.615 1235.25 202.455 1378.95 204.688C1532.2 207.095 1341.76 802.578 1560.36 761.88C1750.32 726.518 2043.01 80.0376 1988.88 474.288C1922.82 955.569 2053.68 924.425 2283.45 654.849" stroke="url(#paint40_linear_536_667)" stroke-miterlimit="10"/>
<path d="M140.18 626.783C140.18 626.783 322.059 812.902 665.822 410.685C984.556 37.7515 565.804 913.655 774.25 906.607C868.513 903.431 1242.61 196.35 1387.78 194.688C1543.96 192.901 1348.46 803.224 1563.58 772.675C1751.69 745.973 2047.3 83.7851 1994.12 483.669C1931.7 952.839 2053.18 937.453 2281.4 666.364" stroke="url(#paint41_linear_536_667)" stroke-miterlimit="10"/>
<defs>
<linearGradient id="paint0_linear_536_667" x1="295.615" y1="344.7" x2="2598.64" y2="344.7" gradientUnits="userSpaceOnUse">
<stop stop-color="#FF15C8"/>
<stop offset="0.09" stop-color="#F717C9"/>
<stop offset="0.22" stop-color="#E31FCD"/>
<stop offset="0.37" stop-color="#C32CD4"/>
<stop offset="0.55" stop-color="#963EDE"/>
<stop offset="0.74" stop-color="#5C54EB"/>
<stop offset="0.94" stop-color="#1670FA"/>
<stop offset="1" stop-color="#0079FF"/>
</linearGradient>
<linearGradient id="paint1_linear_536_667" x1="301.469" y1="346.313" x2="2600.95" y2="346.313" gradientUnits="userSpaceOnUse">
<stop stop-color="#F917C9"/>
<stop offset="0.09" stop-color="#F119CA"/>
<stop offset="0.22" stop-color="#DD22CE"/>
<stop offset="0.38" stop-color="#BC2FD5"/>
<stop offset="0.56" stop-color="#8E41DF"/>
<stop offset="0.76" stop-color="#5359EC"/>
<stop offset="0.97" stop-color="#0D76FB"/>
<stop offset="1" stop-color="#017BFE"/>
</linearGradient>
<linearGradient id="paint2_linear_536_667" x1="307.299" y1="348.075" x2="2603.28" y2="348.075" gradientUnits="userSpaceOnUse">
<stop stop-color="#F319CB"/>
<stop offset="0.09" stop-color="#EB1CCC"/>
<stop offset="0.23" stop-color="#D724D0"/>
<stop offset="0.39" stop-color="#B532D7"/>
<stop offset="0.58" stop-color="#8746E1"/>
<stop offset="0.78" stop-color="#4B5FED"/>
<stop offset="1" stop-color="#037EFD"/>
</linearGradient>
<linearGradient id="paint3_linear_536_667" x1="313.153" y1="349.985" x2="2605.59" y2="349.985" gradientUnits="userSpaceOnUse">
<stop stop-color="#EC1BCC"/>
<stop offset="0.09" stop-color="#E41ECD"/>
<stop offset="0.23" stop-color="#CF27D1"/>
<stop offset="0.4" stop-color="#AD36D8"/>
<stop offset="0.59" stop-color="#7E4AE2"/>
<stop offset="0.8" stop-color="#4264EF"/>
<stop offset="1" stop-color="#0480FC"/>
</linearGradient>
<linearGradient id="paint4_linear_536_667" x1="319.007" y1="352.045" x2="2607.89" y2="352.045" gradientUnits="userSpaceOnUse">
<stop stop-color="#E61DCD"/>
<stop offset="0.09" stop-color="#DE20CE"/>
<stop offset="0.24" stop-color="#C929D2"/>
<stop offset="0.41" stop-color="#A639D9"/>
<stop offset="0.61" stop-color="#764EE3"/>
<stop offset="0.83" stop-color="#3A6AF0"/>
<stop offset="1" stop-color="#0582FB"/>
</linearGradient>
<linearGradient id="paint5_linear_536_667" x1="324.837" y1="354.055" x2="2610.23" y2="354.055" gradientUnits="userSpaceOnUse">
<stop stop-color="#E01FCF"/>
<stop offset="0.1" stop-color="#D822D0"/>
<stop offset="0.24" stop-color="#C22CD4"/>
<stop offset="0.43" stop-color="#9F3CDB"/>
<stop offset="0.63" stop-color="#6E53E5"/>
<stop offset="0.86" stop-color="#3170F1"/>
<stop offset="1" stop-color="#0784FA"/>
</linearGradient>
<linearGradient id="paint6_linear_536_667" x1="330.691" y1="356.413" x2="2612.53" y2="356.413" gradientUnits="userSpaceOnUse">
<stop stop-color="#DA21D0"/>
<stop offset="0.1" stop-color="#D224D1"/>
<stop offset="0.25" stop-color="#BC2FD5"/>
<stop offset="0.44" stop-color="#9840DC"/>
<stop offset="0.65" stop-color="#6758E6"/>
<stop offset="0.89" stop-color="#2877F2"/>
<stop offset="1" stop-color="#0887F9"/>
</linearGradient>
<linearGradient id="paint7_linear_536_667" x1="336.545" y1="358.944" x2="2614.84" y2="358.944" gradientUnits="userSpaceOnUse">
<stop stop-color="#D323D1"/>
<stop offset="0.1" stop-color="#CA27D2"/>
<stop offset="0.26" stop-color="#B432D6"/>
<stop offset="0.45" stop-color="#9044DD"/>
<stop offset="0.68" stop-color="#5E5DE7"/>
<stop offset="0.92" stop-color="#1E7EF3"/>
<stop offset="1" stop-color="#0989F8"/>
</linearGradient>
<linearGradient id="paint8_linear_536_667" x1="342.375" y1="363.734" x2="2617.17" y2="363.734" gradientUnits="userSpaceOnUse">
<stop stop-color="#CD25D3"/>
<stop offset="0.1" stop-color="#C429D4"/>
<stop offset="0.27" stop-color="#AE35D8"/>
<stop offset="0.47" stop-color="#8948DF"/>
<stop offset="0.7" stop-color="#5663E9"/>
<stop offset="0.96" stop-color="#1585F5"/>
<stop offset="1" stop-color="#0B8BF7"/>
</linearGradient>
<linearGradient id="paint9_linear_536_667" x1="348.229" y1="371.004" x2="2619.48" y2="371.004" gradientUnits="userSpaceOnUse">
<stop stop-color="#C727D4"/>
<stop offset="0.11" stop-color="#BE2BD5"/>
<stop offset="0.28" stop-color="#A738D9"/>
<stop offset="0.49" stop-color="#824CE0"/>
<stop offset="0.73" stop-color="#4E69E9"/>
<stop offset="1" stop-color="#0C8EF6"/>
</linearGradient>
<linearGradient id="paint10_linear_536_667" x1="354.083" y1="378.276" x2="2621.78" y2="378.276" gradientUnits="userSpaceOnUse">
<stop stop-color="#C129D5"/>
<stop offset="0.11" stop-color="#B82DD6"/>
<stop offset="0.28" stop-color="#A13BDA"/>
<stop offset="0.5" stop-color="#7B51E1"/>
<stop offset="0.75" stop-color="#466EEA"/>
<stop offset="1" stop-color="#0D90F5"/>
</linearGradient>
<linearGradient id="paint11_linear_536_667" x1="359.938" y1="385.497" x2="2624.12" y2="385.497" gradientUnits="userSpaceOnUse">
<stop stop-color="#BB2BD7"/>
<stop offset="0.11" stop-color="#B230D8"/>
<stop offset="0.29" stop-color="#9A3EDC"/>
<stop offset="0.52" stop-color="#7355E2"/>
<stop offset="0.79" stop-color="#3E75EB"/>
<stop offset="1" stop-color="#0E92F4"/>
</linearGradient>
<linearGradient id="paint12_linear_536_667" x1="365.767" y1="392.719" x2="2626.42" y2="392.719" gradientUnits="userSpaceOnUse">
<stop stop-color="#B42DD8"/>
<stop offset="0.12" stop-color="#AB32D9"/>
<stop offset="0.31" stop-color="#9241DD"/>
<stop offset="0.55" stop-color="#6B5AE3"/>
<stop offset="0.83" stop-color="#357DEC"/>
<stop offset="1" stop-color="#1095F3"/>
</linearGradient>
<linearGradient id="paint13_linear_536_667" x1="371.621" y1="399.94" x2="2628.73" y2="399.94" gradientUnits="userSpaceOnUse">
<stop stop-color="#AE2FD9"/>
<stop offset="0.12" stop-color="#A435DA"/>
<stop offset="0.32" stop-color="#8C45DE"/>
<stop offset="0.57" stop-color="#645FE4"/>
<stop offset="0.86" stop-color="#2D84ED"/>
<stop offset="1" stop-color="#1197F2"/>
</linearGradient>
<linearGradient id="paint14_linear_536_667" x1="377.475" y1="407.137" x2="2631.04" y2="407.137" gradientUnits="userSpaceOnUse">
<stop stop-color="#A831DB"/>
<stop offset="0.13" stop-color="#9E37DC"/>
<stop offset="0.33" stop-color="#8548E0"/>
<stop offset="0.6" stop-color="#5C65E6"/>
<stop offset="0.91" stop-color="#248CEE"/>
<stop offset="1" stop-color="#1299F1"/>
</linearGradient>
<linearGradient id="paint15_linear_536_667" x1="383.305" y1="414.333" x2="2633.37" y2="414.333" gradientUnits="userSpaceOnUse">
<stop stop-color="#A233DC"/>
<stop offset="0.13" stop-color="#9839DD"/>
<stop offset="0.35" stop-color="#7E4CE0"/>
<stop offset="0.63" stop-color="#556BE6"/>
<stop offset="0.96" stop-color="#1C95EE"/>
<stop offset="1" stop-color="#149BF0"/>
</linearGradient>
<linearGradient id="paint16_linear_536_667" x1="389.159" y1="421.53" x2="2635.68" y2="421.53" gradientUnits="userSpaceOnUse">
<stop stop-color="#9B35DD"/>
<stop offset="0.14" stop-color="#913CDE"/>
<stop offset="0.37" stop-color="#7751E1"/>
<stop offset="0.67" stop-color="#4C72E7"/>
<stop offset="1" stop-color="#159EEF"/>
</linearGradient>
<linearGradient id="paint17_linear_536_667" x1="395.013" y1="428.702" x2="2637.98" y2="428.702" gradientUnits="userSpaceOnUse">
<stop stop-color="#9537DF"/>
<stop offset="0.14" stop-color="#8B3FE0"/>
<stop offset="0.39" stop-color="#7055E3"/>
<stop offset="0.7" stop-color="#4578E8"/>
<stop offset="1" stop-color="#16A0EE"/>
</linearGradient>
<linearGradient id="paint18_linear_536_667" x1="400.868" y1="435.898" x2="2640.31" y2="435.898" gradientUnits="userSpaceOnUse">
<stop stop-color="#8F39E0"/>
<stop offset="0.15" stop-color="#8441E1"/>
<stop offset="0.41" stop-color="#6959E4"/>
<stop offset="0.75" stop-color="#3D80E8"/>
<stop offset="1" stop-color="#18A2ED"/>
</linearGradient>
<linearGradient id="paint19_linear_536_667" x1="406.697" y1="443.07" x2="2642.62" y2="443.07" gradientUnits="userSpaceOnUse">
<stop stop-color="#893BE1"/>
<stop offset="0.16" stop-color="#7E44E2"/>
<stop offset="0.44" stop-color="#625FE4"/>
<stop offset="0.79" stop-color="#3689E9"/>
<stop offset="1" stop-color="#19A5EC"/>
</linearGradient>
<linearGradient id="paint20_linear_536_667" x1="412.551" y1="450.267" x2="2644.93" y2="450.267" gradientUnits="userSpaceOnUse">
<stop stop-color="#833DE3"/>
<stop offset="0.17" stop-color="#7847E3"/>
<stop offset="0.46" stop-color="#5C63E5"/>
<stop offset="0.84" stop-color="#2F91E9"/>
<stop offset="1" stop-color="#1AA7EB"/>
</linearGradient>
<linearGradient id="paint21_linear_536_667" x1="418.406" y1="457.464" x2="2647.24" y2="457.464" gradientUnits="userSpaceOnUse">
<stop stop-color="#7C3FE4"/>
<stop offset="0.17" stop-color="#7249E4"/>
<stop offset="0.47" stop-color="#5766E5"/>
<stop offset="0.85" stop-color="#2D95E8"/>
<stop offset="1" stop-color="#1CA9E9"/>
</linearGradient>
<linearGradient id="paint22_linear_536_667" x1="424.26" y1="464.66" x2="2649.57" y2="464.66" gradientUnits="userSpaceOnUse">
<stop stop-color="#7641E6"/>
<stop offset="0.17" stop-color="#6C4CE6"/>
<stop offset="0.47" stop-color="#5369E6"/>
<stop offset="0.87" stop-color="#2B99E7"/>
<stop offset="1" stop-color="#1DABE8"/>
</linearGradient>
<linearGradient id="paint23_linear_536_667" x1="430.114" y1="471.881" x2="2651.87" y2="471.881" gradientUnits="userSpaceOnUse">
<stop stop-color="#7043E7"/>
<stop offset="0.17" stop-color="#674EE7"/>
<stop offset="0.48" stop-color="#506CE7"/>
<stop offset="0.88" stop-color="#2A9DE7"/>
<stop offset="1" stop-color="#1EAEE7"/>
</linearGradient>
<linearGradient id="paint24_linear_536_667" x1="435.944" y1="479.103" x2="2654.18" y2="479.103" gradientUnits="userSpaceOnUse">
<stop stop-color="#6A45E8"/>
<stop offset="0.17" stop-color="#6150E7"/>
<stop offset="0.48" stop-color="#4C6FE7"/>
<stop offset="0.89" stop-color="#29A1E6"/>
<stop offset="1" stop-color="#20B0E6"/>
</linearGradient>
<linearGradient id="paint25_linear_536_667" x1="441.798" y1="486.349" x2="2656.49" y2="486.349" gradientUnits="userSpaceOnUse">
<stop stop-color="#6447EA"/>
<stop offset="0.17" stop-color="#5C52E9"/>
<stop offset="0.49" stop-color="#4872E7"/>
<stop offset="0.91" stop-color="#28A5E5"/>
<stop offset="1" stop-color="#21B2E5"/>
</linearGradient>
<linearGradient id="paint26_linear_536_667" x1="447.652" y1="493.595" x2="2658.82" y2="493.595" gradientUnits="userSpaceOnUse">
<stop stop-color="#5D49EB"/>
<stop offset="0.18" stop-color="#5655EA"/>
<stop offset="0.5" stop-color="#4475E8"/>
<stop offset="0.92" stop-color="#27AAE4"/>
<stop offset="1" stop-color="#22B5E4"/>
</linearGradient>
<linearGradient id="paint27_linear_536_667" x1="453.506" y1="500.891" x2="2661.13" y2="500.891" gradientUnits="userSpaceOnUse">
<stop stop-color="#574BEC"/>
<stop offset="0.18" stop-color="#5157EA"/>
<stop offset="0.5" stop-color="#4179E8"/>
<stop offset="0.94" stop-color="#27AEE3"/>
<stop offset="1" stop-color="#24B7E3"/>
</linearGradient>
<linearGradient id="paint28_linear_536_667" x1="459.36" y1="508.163" x2="2663.43" y2="508.163" gradientUnits="userSpaceOnUse">
<stop stop-color="#514DEE"/>
<stop offset="0.18" stop-color="#4B59EC"/>
<stop offset="0.51" stop-color="#3D7CE8"/>
<stop offset="0.96" stop-color="#27B3E2"/>
<stop offset="1" stop-color="#25B9E2"/>
</linearGradient>
<linearGradient id="paint29_linear_536_667" x1="465.19" y1="515.757" x2="2665.74" y2="515.757" gradientUnits="userSpaceOnUse">
<stop stop-color="#4B4FEF"/>
<stop offset="0.18" stop-color="#465CED"/>
<stop offset="0.52" stop-color="#3A7FE8"/>
<stop offset="0.98" stop-color="#26B8E1"/>
<stop offset="1" stop-color="#26BBE1"/>
</linearGradient>
<linearGradient id="paint30_linear_536_667" x1="471.044" y1="525.235" x2="2668.07" y2="525.235" gradientUnits="userSpaceOnUse">
<stop stop-color="#4451F0"/>
<stop offset="0.18" stop-color="#405EED"/>
<stop offset="0.53" stop-color="#3783E8"/>
<stop offset="0.99" stop-color="#28BDE0"/>
<stop offset="1" stop-color="#28BEE0"/>
</linearGradient>
<linearGradient id="paint31_linear_536_667" x1="476.898" y1="534.716" x2="2670.38" y2="534.716" gradientUnits="userSpaceOnUse">
<stop stop-color="#3E53F2"/>
<stop offset="0.19" stop-color="#3B61EF"/>
<stop offset="0.54" stop-color="#3486E9"/>
<stop offset="1" stop-color="#29C0DF"/>
</linearGradient>
<linearGradient id="paint32_linear_536_667" x1="482.753" y1="542.582" x2="2672.69" y2="542.582" gradientUnits="userSpaceOnUse">
<stop stop-color="#3855F3"/>
<stop offset="0.19" stop-color="#3663F0"/>
<stop offset="0.55" stop-color="#318AE8"/>
<stop offset="1" stop-color="#2AC2DE"/>
</linearGradient>
<linearGradient id="paint33_linear_536_667" x1="488.607" y1="546.081" x2="2674.99" y2="546.081" gradientUnits="userSpaceOnUse">
<stop stop-color="#3257F4"/>
<stop offset="0.19" stop-color="#3166F0"/>
<stop offset="0.56" stop-color="#2E8DE8"/>
<stop offset="1" stop-color="#2BC5DD"/>
</linearGradient>
<linearGradient id="paint34_linear_536_667" x1="494.436" y1="546.627" x2="2677.3" y2="546.627" gradientUnits="userSpaceOnUse">
<stop stop-color="#2C59F6"/>
<stop offset="0.19" stop-color="#2C68F2"/>
<stop offset="0.57" stop-color="#2C91E8"/>
<stop offset="1" stop-color="#2DC7DC"/>
</linearGradient>
<linearGradient id="paint35_linear_536_667" x1="500.291" y1="547.198" x2="2679.63" y2="547.198" gradientUnits="userSpaceOnUse">
<stop stop-color="#255BF7"/>
<stop offset="0.2" stop-color="#266BF2"/>
<stop offset="0.59" stop-color="#2995E8"/>
<stop offset="1" stop-color="#2EC9DB"/>
</linearGradient>
<linearGradient id="paint36_linear_536_667" x1="506.145" y1="547.744" x2="2681.94" y2="547.744" gradientUnits="userSpaceOnUse">
<stop stop-color="#1F5DF8"/>
<stop offset="0.2" stop-color="#216DF3"/>
<stop offset="0.6" stop-color="#2799E7"/>
<stop offset="1" stop-color="#2FCCDA"/>
</linearGradient>
<linearGradient id="paint37_linear_536_667" x1="511.999" y1="548.29" x2="2684.25" y2="548.29" gradientUnits="userSpaceOnUse">
<stop stop-color="#195FFA"/>
<stop offset="0.2" stop-color="#1C70F4"/>
<stop offset="0.61" stop-color="#269DE7"/>
<stop offset="1" stop-color="#31CED9"/>
</linearGradient>
<linearGradient id="paint38_linear_536_667" x1="517.853" y1="548.861" x2="2686.55" y2="548.861" gradientUnits="userSpaceOnUse">
<stop stop-color="#1361FB"/>
<stop offset="0.21" stop-color="#1873F5"/>
<stop offset="0.63" stop-color="#25A1E6"/>
<stop offset="1" stop-color="#32D0D8"/>
</linearGradient>
<linearGradient id="paint39_linear_536_667" x1="523.707" y1="549.431" x2="2688.88" y2="549.431" gradientUnits="userSpaceOnUse">
<stop stop-color="#0C63FC"/>
<stop offset="0.21" stop-color="#1275F5"/>
<stop offset="0.65" stop-color="#23A6E5"/>
<stop offset="1" stop-color="#33D2D7"/>
</linearGradient>
<linearGradient id="paint40_linear_536_667" x1="529.537" y1="550.051" x2="2691.19" y2="550.051" gradientUnits="userSpaceOnUse">
<stop stop-color="#0665FE"/>
<stop offset="0.22" stop-color="#0E78F7"/>
<stop offset="0.66" stop-color="#23AAE5"/>
<stop offset="1" stop-color="#35D5D6"/>
</linearGradient>
<linearGradient id="paint41_linear_536_667" x1="535.391" y1="550.672" x2="2693.5" y2="550.672" gradientUnits="userSpaceOnUse">
<stop stop-color="#0067FF"/>
<stop offset="0.23" stop-color="#097BF7"/>
<stop offset="0.69" stop-color="#23AFE3"/>
<stop offset="1" stop-color="#36D7D5"/>
</linearGradient>
</defs>
</svg>
