<svg width="360" height="300" viewBox="0 0 360 300" fill="none" xmlns="http://www.w3.org/2000/svg">
<rect width="360" height="300" rx="20" fill="#F3EFE5"/>
<g clip-path="url(#clip0_288_1044)">
<path d="M197 223.25H163.5H160.5L156 218.25V190.75L153 177.25L149 166.25L141 155.75L129.5 137.75L125.5 120.75L127 102.25L134.5 87.75L145 74.25L163.5 64.75L183 62.75L197 64.75L214 74.25L228.5 90.25L234.5 108.75V126.25L230 142.25L220.5 155.75L212.5 166.25L208 177.25L206 190.75V218.25L203 220.75L197 223.25Z" fill="white"/>
<mask id="path-3-inside-1_288_1044" fill="white">
<path d="M221.28 75.995C210.232 65.0252 195.605 59 180.042 59C179.9 59 179.758 59 179.616 59C164.426 59.1066 150.044 65.0572 139.117 75.7604C128.19 86.4635 121.944 100.718 121.532 115.9C121.102 131.722 126.896 146.705 137.852 158.094C146.475 167.062 151.228 178.988 151.228 191.682V216.096C151.228 221.112 154.712 225.327 159.382 226.458V229.714C159.382 235.938 164.444 241 170.669 241H189.331C195.555 241 200.617 235.938 200.617 229.714V226.476C205.33 225.374 208.853 221.14 208.853 216.096V191.682C208.853 179.156 213.734 167.091 222.595 157.71C232.897 146.804 238.567 132.536 238.567 117.531C238.567 101.82 232.428 87.0714 221.277 75.9985L221.28 75.995ZM193.507 229.714C193.507 232.017 191.634 233.891 189.331 233.891H170.669C168.365 233.891 166.492 232.017 166.492 229.714V226.76H193.507V229.714ZM201.744 216.096C201.744 218.054 200.151 219.651 198.189 219.651H161.888C159.93 219.651 158.334 218.058 158.334 216.096V195.877H201.74V216.096H201.744ZM185.531 188.767H174.458H185.531ZM167.348 188.767H158.266C157.587 175.324 152.22 162.772 142.978 153.164C133.355 143.161 128.265 129.994 128.641 116.092C129.384 88.7243 152.277 66.3013 179.669 66.1094C193.493 66.0134 206.475 71.3134 216.272 81.0391C226.068 90.7647 231.461 103.725 231.461 117.528C231.461 131.331 226.477 143.246 217.43 152.826C208.003 162.808 202.522 175.473 201.822 188.767H192.64"/>
</mask>
<path d="M221.28 75.995C210.232 65.0252 195.605 59 180.042 59C179.9 59 179.758 59 179.616 59C164.426 59.1066 150.044 65.0572 139.117 75.7604C128.19 86.4635 121.944 100.718 121.532 115.9C121.102 131.722 126.896 146.705 137.852 158.094C146.475 167.062 151.228 178.988 151.228 191.682V216.096C151.228 221.112 154.712 225.327 159.382 226.458V229.714C159.382 235.938 164.444 241 170.669 241H189.331C195.555 241 200.617 235.938 200.617 229.714V226.476C205.33 225.374 208.853 221.14 208.853 216.096V191.682C208.853 179.156 213.734 167.091 222.595 157.71C232.897 146.804 238.567 132.536 238.567 117.531C238.567 101.82 232.428 87.0714 221.277 75.9985L221.28 75.995ZM193.507 229.714C193.507 232.017 191.634 233.891 189.331 233.891H170.669C168.365 233.891 166.492 232.017 166.492 229.714V226.76H193.507V229.714ZM201.744 216.096C201.744 218.054 200.151 219.651 198.189 219.651H161.888C159.93 219.651 158.334 218.058 158.334 216.096V195.877H201.74V216.096H201.744ZM185.531 188.767H174.458H185.531ZM167.348 188.767H158.266C157.587 175.324 152.22 162.772 142.978 153.164C133.355 143.161 128.265 129.994 128.641 116.092C129.384 88.7243 152.277 66.3013 179.669 66.1094C193.493 66.0134 206.475 71.3134 216.272 81.0391C226.068 90.7647 231.461 103.725 231.461 117.528C231.461 131.331 226.477 143.246 217.43 152.826C208.003 162.808 202.522 175.473 201.822 188.767H192.64" fill="#111111"/>
<path d="M221.28 75.995L222.694 77.4092L224.114 75.9899L222.689 74.5757L221.28 75.995ZM179.616 59V57L179.602 57L179.616 59ZM121.532 115.9L123.531 115.954L123.531 115.954L121.532 115.9ZM137.852 158.094L139.293 156.708L139.293 156.708L137.852 158.094ZM159.382 226.458H161.382V224.884L159.853 224.514L159.382 226.458ZM200.617 226.476L200.161 224.528L198.617 224.889V226.476H200.617ZM222.595 157.71L224.049 159.084L224.049 159.083L222.595 157.71ZM221.277 75.9985L219.862 74.5843L218.443 76.0035L219.867 77.4177L221.277 75.9985ZM166.492 226.76V224.76H164.492V226.76H166.492ZM193.507 226.76H195.507V224.76H193.507V226.76ZM201.744 216.096H203.744V214.096H201.744V216.096ZM158.334 195.877V193.877H156.334V195.877H158.334ZM201.74 195.877H203.74V193.877H201.74V195.877ZM201.74 216.096H199.74V218.096H201.74V216.096ZM158.266 188.767L156.269 188.868L156.365 190.767H158.266V188.767ZM142.978 153.164L144.419 151.777L144.419 151.777L142.978 153.164ZM128.641 116.092L126.642 116.038L126.642 116.038L128.641 116.092ZM179.669 66.1094L179.655 64.1094L179.655 64.1094L179.669 66.1094ZM217.43 152.826L218.884 154.199L218.885 154.199L217.43 152.826ZM201.822 188.767V190.767H203.719L203.819 188.873L201.822 188.767ZM222.689 74.5757C211.267 63.2338 196.132 57 180.042 57V61C195.077 61 209.198 66.8165 219.871 77.4142L222.689 74.5757ZM180.042 57C180.042 57 180.042 57 180.041 57C180.041 57 180.041 57 180.041 57C180.04 57 180.04 57 180.04 57C180.039 57 180.039 57 180.039 57C180.039 57 180.038 57 180.038 57C180.038 57 180.038 57 180.037 57C180.037 57 180.037 57 180.036 57C180.036 57 180.036 57 180.036 57C180.035 57 180.035 57 180.035 57C180.034 57 180.034 57 180.034 57C180.034 57 180.033 57 180.033 57C180.033 57 180.033 57 180.032 57C180.032 57 180.032 57 180.031 57C180.031 57 180.031 57 180.031 57C180.03 57 180.03 57 180.03 57C180.029 57 180.029 57 180.029 57C180.029 57 180.028 57 180.028 57C180.028 57 180.028 57 180.027 57C180.027 57 180.027 57 180.026 57C180.026 57 180.026 57 180.026 57C180.025 57 180.025 57 180.025 57C180.024 57 180.024 57 180.024 57C180.024 57 180.023 57 180.023 57C180.023 57 180.023 57 180.022 57C180.022 57 180.022 57 180.021 57C180.021 57 180.021 57 180.021 57C180.02 57 180.02 57 180.02 57C180.019 57 180.019 57 180.019 57C180.019 57 180.018 57 180.018 57C180.018 57 180.018 57 180.017 57C180.017 57 180.017 57 180.016 57C180.016 57 180.016 57 180.016 57C180.015 57 180.015 57 180.015 57C180.014 57 180.014 57 180.014 57C180.014 57 180.013 57 180.013 57C180.013 57 180.013 57 180.012 57C180.012 57 180.012 57 180.011 57C180.011 57 180.011 57 180.011 57C180.01 57 180.01 57 180.01 57C180.009 57 180.009 57 180.009 57C180.009 57 180.008 57 180.008 57C180.008 57 180.008 57 180.007 57C180.007 57 180.007 57 180.006 57C180.006 57 180.006 57 180.006 57C180.005 57 180.005 57 180.005 57C180.004 57 180.004 57 180.004 57C180.004 57 180.003 57 180.003 57C180.003 57 180.003 57 180.002 57C180.002 57 180.002 57 180.001 57C180.001 57 180.001 57 180.001 57C180 57 180 57 180 57C179.999 57 179.999 57 179.999 57C179.999 57 179.998 57 179.998 57C179.998 57 179.998 57 179.997 57C179.997 57 179.997 57 179.996 57C179.996 57 179.996 57 179.996 57C179.995 57 179.995 57 179.995 57C179.994 57 179.994 57 179.994 57C179.994 57 179.993 57 179.993 57C179.993 57 179.993 57 179.992 57C179.992 57 179.992 57 179.991 57C179.991 57 179.991 57 179.991 57C179.99 57 179.99 57 179.99 57C179.989 57 179.989 57 179.989 57C179.989 57 179.988 57 179.988 57C179.988 57 179.988 57 179.987 57C179.987 57 179.987 57 179.986 57C179.986 57 179.986 57 179.986 57C179.985 57 179.985 57 179.985 57C179.984 57 179.984 57 179.984 57C179.984 57 179.983 57 179.983 57C179.983 57 179.983 57 179.982 57C179.982 57 179.982 57 179.981 57C179.981 57 179.981 57 179.981 57C179.98 57 179.98 57 179.98 57C179.979 57 179.979 57 179.979 57C179.979 57 179.978 57 179.978 57C179.978 57 179.978 57 179.977 57C179.977 57 179.977 57 179.976 57C179.976 57 179.976 57 179.976 57C179.975 57 179.975 57 179.975 57C179.974 57 179.974 57 179.974 57C179.974 57 179.973 57 179.973 57C179.973 57 179.973 57 179.972 57C179.972 57 179.972 57 179.971 57C179.971 57 179.971 57 179.971 57C179.97 57 179.97 57 179.97 57C179.969 57 179.969 57 179.969 57C179.969 57 179.968 57 179.968 57C179.968 57 179.968 57 179.967 57C179.967 57 179.967 57 179.966 57C179.966 57 179.966 57 179.966 57C179.965 57 179.965 57 179.965 57C179.964 57 179.964 57 179.964 57C179.964 57 179.963 57 179.963 57C179.963 57 179.963 57 179.962 57C179.962 57 179.962 57 179.961 57C179.961 57 179.961 57 179.961 57C179.96 57 179.96 57 179.96 57C179.959 57 179.959 57 179.959 57C179.959 57 179.958 57 179.958 57C179.958 57 179.958 57 179.957 57C179.957 57 179.957 57 179.956 57C179.956 57 179.956 57 179.956 57C179.955 57 179.955 57 179.955 57C179.954 57 179.954 57 179.954 57C179.954 57 179.953 57 179.953 57C179.953 57 179.953 57 179.952 57C179.952 57 179.952 57 179.951 57C179.951 57 179.951 57 179.951 57C179.95 57 179.95 57 179.95 57C179.949 57 179.949 57 179.949 57C179.949 57 179.948 57 179.948 57C179.948 57 179.948 57 179.947 57C179.947 57 179.947 57 179.946 57C179.946 57 179.946 57 179.946 57C179.945 57 179.945 57 179.945 57C179.944 57 179.944 57 179.944 57C179.944 57 179.943 57 179.943 57C179.943 57 179.943 57 179.942 57C179.942 57 179.942 57 179.941 57C179.941 57 179.941 57 179.941 57C179.94 57 179.94 57 179.94 57C179.939 57 179.939 57 179.939 57C179.939 57 179.938 57 179.938 57C179.938 57 179.938 57 179.937 57C179.937 57 179.937 57 179.936 57C179.936 57 179.936 57 179.936 57C179.935 57 179.935 57 179.935 57C179.934 57 179.934 57 179.934 57C179.934 57 179.933 57 179.933 57C179.933 57 179.933 57 179.932 57C179.932 57 179.932 57 179.931 57C179.931 57 179.931 57 179.931 57C179.93 57 179.93 57 179.93 57C179.929 57 179.929 57 179.929 57C179.929 57 179.928 57 179.928 57C179.928 57 179.928 57 179.927 57C179.927 57 179.927 57 179.926 57C179.926 57 179.926 57 179.926 57C179.925 57 179.925 57 179.925 57C179.924 57 179.924 57 179.924 57C179.924 57 179.923 57 179.923 57C179.923 57 179.923 57 179.922 57C179.922 57 179.922 57 179.921 57C179.921 57 179.921 57 179.921 57C179.92 57 179.92 57 179.92 57C179.919 57 179.919 57 179.919 57C179.919 57 179.918 57 179.918 57C179.918 57 179.918 57 179.917 57C179.917 57 179.917 57 179.916 57C179.916 57 179.916 57 179.916 57C179.915 57 179.915 57 179.915 57C179.914 57 179.914 57 179.914 57C179.914 57 179.913 57 179.913 57C179.913 57 179.913 57 179.912 57C179.912 57 179.912 57 179.911 57C179.911 57 179.911 57 179.911 57C179.91 57 179.91 57 179.91 57C179.909 57 179.909 57 179.909 57C179.909 57 179.908 57 179.908 57C179.908 57 179.908 57 179.907 57C179.907 57 179.907 57 179.906 57C179.906 57 179.906 57 179.906 57C179.905 57 179.905 57 179.905 57C179.904 57 179.904 57 179.904 57C179.904 57 179.903 57 179.903 57C179.903 57 179.903 57 179.902 57C179.902 57 179.902 57 179.901 57C179.901 57 179.901 57 179.901 57C179.9 57 179.9 57 179.9 57C179.899 57 179.899 57 179.899 57C179.899 57 179.898 57 179.898 57C179.898 57 179.898 57 179.897 57C179.897 57 179.897 57 179.896 57C179.896 57 179.896 57 179.896 57C179.895 57 179.895 57 179.895 57C179.894 57 179.894 57 179.894 57C179.894 57 179.893 57 179.893 57C179.893 57 179.893 57 179.892 57C179.892 57 179.892 57 179.891 57C179.891 57 179.891 57 179.891 57C179.89 57 179.89 57 179.89 57C179.889 57 179.889 57 179.889 57C179.889 57 179.888 57 179.888 57C179.888 57 179.888 57 179.887 57C179.887 57 179.887 57 179.886 57C179.886 57 179.886 57 179.886 57C179.885 57 179.885 57 179.885 57C179.884 57 179.884 57 179.884 57C179.884 57 179.883 57 179.883 57C179.883 57 179.883 57 179.882 57C179.882 57 179.882 57 179.881 57C179.881 57 179.881 57 179.881 57C179.88 57 179.88 57 179.88 57C179.879 57 179.879 57 179.879 57C179.879 57 179.878 57 179.878 57C179.878 57 179.878 57 179.877 57C179.877 57 179.877 57 179.876 57C179.876 57 179.876 57 179.876 57C179.875 57 179.875 57 179.875 57C179.875 57 179.874 57 179.874 57C179.874 57 179.873 57 179.873 57C179.873 57 179.873 57 179.872 57C179.872 57 179.872 57 179.871 57C179.871 57 179.871 57 179.871 57C179.87 57 179.87 57 179.87 57C179.869 57 179.869 57 179.869 57C179.869 57 179.868 57 179.868 57C179.868 57 179.868 57 179.867 57C179.867 57 179.867 57 179.866 57C179.866 57 179.866 57 179.866 57C179.865 57 179.865 57 179.865 57C179.865 57 179.864 57 179.864 57C179.864 57 179.863 57 179.863 57C179.863 57 179.863 57 179.862 57C179.862 57 179.862 57 179.861 57C179.861 57 179.861 57 179.861 57C179.86 57 179.86 57 179.86 57C179.86 57 179.859 57 179.859 57C179.859 57 179.858 57 179.858 57C179.858 57 179.858 57 179.857 57C179.857 57 179.857 57 179.856 57C179.856 57 179.856 57 179.856 57C179.855 57 179.855 57 179.855 57C179.855 57 179.854 57 179.854 57C179.854 57 179.853 57 179.853 57C179.853 57 179.853 57 179.852 57C179.852 57 179.852 57 179.851 57C179.851 57 179.851 57 179.851 57C179.85 57 179.85 57 179.85 57C179.85 57 179.849 57 179.849 57C179.849 57 179.848 57 179.848 57C179.848 57 179.848 57 179.847 57C179.847 57 179.847 57 179.846 57C179.846 57 179.846 57 179.846 57C179.845 57 179.845 57 179.845 57C179.845 57 179.844 57 179.844 57C179.844 57 179.843 57 179.843 57C179.843 57 179.843 57 179.842 57C179.842 57 179.842 57 179.841 57C179.841 57 179.841 57 179.841 57C179.84 57 179.84 57 179.84 57C179.84 57 179.839 57 179.839 57C179.839 57 179.838 57 179.838 57C179.838 57 179.838 57 179.837 57C179.837 57 179.837 57 179.836 57C179.836 57 179.836 57 179.836 57C179.835 57 179.835 57 179.835 57C179.835 57 179.834 57 179.834 57C179.834 57 179.833 57 179.833 57C179.833 57 179.833 57 179.832 57C179.832 57 179.832 57 179.831 57C179.831 57 179.831 57 179.831 57C179.83 57 179.83 57 179.83 57C179.83 57 179.829 57 179.829 57C179.829 57 179.828 57 179.828 57C179.828 57 179.828 57 179.827 57C179.827 57 179.827 57 179.826 57C179.826 57 179.826 57 179.826 57C179.825 57 179.825 57 179.825 57C179.825 57 179.824 57 179.824 57C179.824 57 179.823 57 179.823 57C179.823 57 179.823 57 179.822 57C179.822 57 179.822 57 179.821 57C179.821 57 179.821 57 179.821 57C179.82 57 179.82 57 179.82 57C179.82 57 179.819 57 179.819 57C179.819 57 179.818 57 179.818 57C179.818 57 179.818 57 179.817 57C179.817 57 179.817 57 179.816 57C179.816 57 179.816 57 179.816 57C179.815 57 179.815 57 179.815 57C179.815 57 179.814 57 179.814 57C179.814 57 179.813 57 179.813 57C179.813 57 179.813 57 179.812 57C179.812 57 179.812 57 179.811 57C179.811 57 179.811 57 179.811 57C179.81 57 179.81 57 179.81 57C179.81 57 179.809 57 179.809 57C179.809 57 179.808 57 179.808 57C179.808 57 179.808 57 179.807 57C179.807 57 179.807 57 179.806 57C179.806 57 179.806 57 179.806 57C179.805 57 179.805 57 179.805 57C179.805 57 179.804 57 179.804 57C179.804 57 179.803 57 179.803 57C179.803 57 179.803 57 179.802 57C179.802 57 179.802 57 179.801 57C179.801 57 179.801 57 179.801 57C179.8 57 179.8 57 179.8 57C179.8 57 179.799 57 179.799 57C179.799 57 179.798 57 179.798 57C179.798 57 179.798 57 179.797 57C179.797 57 179.797 57 179.796 57C179.796 57 179.796 57 179.796 57C179.795 57 179.795 57 179.795 57C179.795 57 179.794 57 179.794 57C179.794 57 179.793 57 179.793 57C179.793 57 179.793 57 179.792 57C179.792 57 179.792 57 179.791 57C179.791 57 179.791 57 179.791 57C179.79 57 179.79 57 179.79 57C179.79 57 179.789 57 179.789 57C179.789 57 179.788 57 179.788 57C179.788 57 179.788 57 179.787 57C179.787 57 179.787 57 179.786 57C179.786 57 179.786 57 179.786 57C179.785 57 179.785 57 179.785 57C179.785 57 179.784 57 179.784 57C179.784 57 179.783 57 179.783 57C179.783 57 179.783 57 179.782 57C179.782 57 179.782 57 179.781 57C179.781 57 179.781 57 179.781 57C179.78 57 179.78 57 179.78 57C179.78 57 179.779 57 179.779 57C179.779 57 179.778 57 179.778 57C179.778 57 179.778 57 179.777 57C179.777 57 179.777 57 179.776 57C179.776 57 179.776 57 179.776 57C179.775 57 179.775 57 179.775 57C179.775 57 179.774 57 179.774 57C179.774 57 179.773 57 179.773 57C179.773 57 179.773 57 179.772 57C179.772 57 179.772 57 179.771 57C179.771 57 179.771 57 179.771 57C179.77 57 179.77 57 179.77 57C179.77 57 179.769 57 179.769 57C179.769 57 179.768 57 179.768 57C179.768 57 179.768 57 179.767 57C179.767 57 179.767 57 179.766 57C179.766 57 179.766 57 179.766 57C179.765 57 179.765 57 179.765 57C179.765 57 179.764 57 179.764 57C179.764 57 179.763 57 179.763 57C179.763 57 179.763 57 179.762 57C179.762 57 179.762 57 179.761 57C179.761 57 179.761 57 179.761 57C179.76 57 179.76 57 179.76 57C179.76 57 179.759 57 179.759 57C179.759 57 179.758 57 179.758 57C179.758 57 179.758 57 179.757 57C179.757 57 179.757 57 179.756 57C179.756 57 179.756 57 179.756 57C179.755 57 179.755 57 179.755 57C179.755 57 179.754 57 179.754 57C179.754 57 179.753 57 179.753 57C179.753 57 179.753 57 179.752 57C179.752 57 179.752 57 179.751 57C179.751 57 179.751 57 179.751 57C179.75 57 179.75 57 179.75 57C179.75 57 179.749 57 179.749 57C179.749 57 179.748 57 179.748 57C179.748 57 179.748 57 179.747 57C179.747 57 179.747 57 179.746 57C179.746 57 179.746 57 179.746 57C179.745 57 179.745 57 179.745 57C179.745 57 179.744 57 179.744 57C179.744 57 179.743 57 179.743 57C179.743 57 179.743 57 179.742 57C179.742 57 179.742 57 179.741 57C179.741 57 179.741 57 179.741 57C179.74 57 179.74 57 179.74 57C179.74 57 179.739 57 179.739 57C179.739 57 179.738 57 179.738 57C179.738 57 179.738 57 179.737 57C179.737 57 179.737 57 179.736 57C179.736 57 179.736 57 179.736 57C179.735 57 179.735 57 179.735 57C179.735 57 179.734 57 179.734 57C179.734 57 179.733 57 179.733 57C179.733 57 179.733 57 179.732 57C179.732 57 179.732 57 179.731 57C179.731 57 179.731 57 179.731 57C179.73 57 179.73 57 179.73 57C179.73 57 179.729 57 179.729 57C179.729 57 179.728 57 179.728 57C179.728 57 179.728 57 179.727 57C179.727 57 179.727 57 179.726 57C179.726 57 179.726 57 179.726 57C179.725 57 179.725 57 179.725 57C179.725 57 179.724 57 179.724 57C179.724 57 179.723 57 179.723 57C179.723 57 179.723 57 179.722 57C179.722 57 179.722 57 179.721 57C179.721 57 179.721 57 179.721 57C179.72 57 179.72 57 179.72 57C179.72 57 179.719 57 179.719 57C179.719 57 179.718 57 179.718 57C179.718 57 179.718 57 179.717 57C179.717 57 179.717 57 179.716 57C179.716 57 179.716 57 179.716 57C179.715 57 179.715 57 179.715 57C179.715 57 179.714 57 179.714 57C179.714 57 179.713 57 179.713 57C179.713 57 179.713 57 179.712 57C179.712 57 179.712 57 179.711 57C179.711 57 179.711 57 179.711 57C179.71 57 179.71 57 179.71 57C179.71 57 179.709 57 179.709 57C179.709 57 179.708 57 179.708 57C179.708 57 179.708 57 179.707 57C179.707 57 179.707 57 179.706 57C179.706 57 179.706 57 179.706 57C179.705 57 179.705 57 179.705 57C179.705 57 179.704 57 179.704 57C179.704 57 179.703 57 179.703 57C179.703 57 179.703 57 179.702 57C179.702 57 179.702 57 179.701 57C179.701 57 179.701 57 179.701 57C179.7 57 179.7 57 179.7 57C179.7 57 179.699 57 179.699 57C179.699 57 179.698 57 179.698 57C179.698 57 179.698 57 179.697 57C179.697 57 179.697 57 179.696 57C179.696 57 179.696 57 179.696 57C179.695 57 179.695 57 179.695 57C179.695 57 179.694 57 179.694 57C179.694 57 179.693 57 179.693 57C179.693 57 179.693 57 179.692 57C179.692 57 179.692 57 179.691 57C179.691 57 179.691 57 179.691 57C179.69 57 179.69 57 179.69 57C179.69 57 179.689 57 179.689 57C179.689 57 179.688 57 179.688 57C179.688 57 179.688 57 179.687 57C179.687 57 179.687 57 179.686 57C179.686 57 179.686 57 179.686 57C179.685 57 179.685 57 179.685 57C179.685 57 179.684 57 179.684 57C179.684 57 179.683 57 179.683 57C179.683 57 179.683 57 179.682 57C179.682 57 179.682 57 179.681 57C179.681 57 179.681 57 179.681 57C179.68 57 179.68 57 179.68 57C179.68 57 179.679 57 179.679 57C179.679 57 179.678 57 179.678 57C179.678 57 179.678 57 179.677 57C179.677 57 179.677 57 179.676 57C179.676 57 179.676 57 179.676 57C179.675 57 179.675 57 179.675 57C179.675 57 179.674 57 179.674 57C179.674 57 179.673 57 179.673 57C179.673 57 179.673 57 179.672 57C179.672 57 179.672 57 179.671 57C179.671 57 179.671 57 179.671 57C179.67 57 179.67 57 179.67 57C179.67 57 179.669 57 179.669 57C179.669 57 179.668 57 179.668 57C179.668 57 179.668 57 179.667 57C179.667 57 179.667 57 179.666 57C179.666 57 179.666 57 179.666 57C179.665 57 179.665 57 179.665 57C179.665 57 179.664 57 179.664 57C179.664 57 179.663 57 179.663 57C179.663 57 179.663 57 179.662 57C179.662 57 179.662 57 179.661 57C179.661 57 179.661 57 179.661 57C179.66 57 179.66 57 179.66 57C179.66 57 179.659 57 179.659 57C179.659 57 179.658 57 179.658 57C179.658 57 179.658 57 179.657 57C179.657 57 179.657 57 179.656 57C179.656 57 179.656 57 179.656 57C179.655 57 179.655 57 179.655 57C179.655 57 179.654 57 179.654 57C179.654 57 179.653 57 179.653 57C179.653 57 179.653 57 179.652 57C179.652 57 179.652 57 179.651 57C179.651 57 179.651 57 179.651 57C179.65 57 179.65 57 179.65 57C179.65 57 179.649 57 179.649 57C179.649 57 179.648 57 179.648 57C179.648 57 179.648 57 179.647 57C179.647 57 179.647 57 179.646 57C179.646 57 179.646 57 179.646 57C179.645 57 179.645 57 179.645 57C179.645 57 179.644 57 179.644 57C179.644 57 179.643 57 179.643 57C179.643 57 179.643 57 179.642 57C179.642 57 179.642 57 179.641 57C179.641 57 179.641 57 179.641 57C179.64 57 179.64 57 179.64 57C179.64 57 179.639 57 179.639 57C179.639 57 179.638 57 179.638 57C179.638 57 179.638 57 179.637 57C179.637 57 179.637 57 179.637 57C179.636 57 179.636 57 179.636 57C179.635 57 179.635 57 179.635 57C179.635 57 179.634 57 179.634 57C179.634 57 179.633 57 179.633 57C179.633 57 179.633 57 179.632 57C179.632 57 179.632 57 179.632 57C179.631 57 179.631 57 179.631 57C179.63 57 179.63 57 179.63 57C179.63 57 179.629 57 179.629 57C179.629 57 179.628 57 179.628 57C179.628 57 179.628 57 179.627 57C179.627 57 179.627 57 179.627 57C179.626 57 179.626 57 179.626 57C179.625 57 179.625 57 179.625 57C179.625 57 179.624 57 179.624 57C179.624 57 179.623 57 179.623 57C179.623 57 179.623 57 179.622 57C179.622 57 179.622 57 179.622 57C179.621 57 179.621 57 179.621 57C179.62 57 179.62 57 179.62 57C179.62 57 179.619 57 179.619 57C179.619 57 179.618 57 179.618 57C179.618 57 179.618 57 179.617 57C179.617 57 179.617 57 179.617 57C179.616 57 179.616 57 179.616 57V61C179.616 61 179.616 61 179.617 61C179.617 61 179.617 61 179.617 61C179.618 61 179.618 61 179.618 61C179.618 61 179.619 61 179.619 61C179.619 61 179.62 61 179.62 61C179.62 61 179.62 61 179.621 61C179.621 61 179.621 61 179.622 61C179.622 61 179.622 61 179.622 61C179.623 61 179.623 61 179.623 61C179.623 61 179.624 61 179.624 61C179.624 61 179.625 61 179.625 61C179.625 61 179.625 61 179.626 61C179.626 61 179.626 61 179.627 61C179.627 61 179.627 61 179.627 61C179.628 61 179.628 61 179.628 61C179.628 61 179.629 61 179.629 61C179.629 61 179.63 61 179.63 61C179.63 61 179.63 61 179.631 61C179.631 61 179.631 61 179.632 61C179.632 61 179.632 61 179.632 61C179.633 61 179.633 61 179.633 61C179.633 61 179.634 61 179.634 61C179.634 61 179.635 61 179.635 61C179.635 61 179.635 61 179.636 61C179.636 61 179.636 61 179.637 61C179.637 61 179.637 61 179.637 61C179.638 61 179.638 61 179.638 61C179.638 61 179.639 61 179.639 61C179.639 61 179.64 61 179.64 61C179.64 61 179.64 61 179.641 61C179.641 61 179.641 61 179.641 61C179.642 61 179.642 61 179.642 61C179.643 61 179.643 61 179.643 61C179.643 61 179.644 61 179.644 61C179.644 61 179.645 61 179.645 61C179.645 61 179.645 61 179.646 61C179.646 61 179.646 61 179.646 61C179.647 61 179.647 61 179.647 61C179.648 61 179.648 61 179.648 61C179.648 61 179.649 61 179.649 61C179.649 61 179.65 61 179.65 61C179.65 61 179.65 61 179.651 61C179.651 61 179.651 61 179.651 61C179.652 61 179.652 61 179.652 61C179.653 61 179.653 61 179.653 61C179.653 61 179.654 61 179.654 61C179.654 61 179.655 61 179.655 61C179.655 61 179.655 61 179.656 61C179.656 61 179.656 61 179.656 61C179.657 61 179.657 61 179.657 61C179.658 61 179.658 61 179.658 61C179.658 61 179.659 61 179.659 61C179.659 61 179.66 61 179.66 61C179.66 61 179.66 61 179.661 61C179.661 61 179.661 61 179.661 61C179.662 61 179.662 61 179.662 61C179.663 61 179.663 61 179.663 61C179.663 61 179.664 61 179.664 61C179.664 61 179.665 61 179.665 61C179.665 61 179.665 61 179.666 61C179.666 61 179.666 61 179.666 61C179.667 61 179.667 61 179.667 61C179.668 61 179.668 61 179.668 61C179.668 61 179.669 61 179.669 61C179.669 61 179.67 61 179.67 61C179.67 61 179.67 61 179.671 61C179.671 61 179.671 61 179.671 61C179.672 61 179.672 61 179.672 61C179.673 61 179.673 61 179.673 61C179.673 61 179.674 61 179.674 61C179.674 61 179.675 61 179.675 61C179.675 61 179.675 61 179.676 61C179.676 61 179.676 61 179.676 61C179.677 61 179.677 61 179.677 61C179.678 61 179.678 61 179.678 61C179.678 61 179.679 61 179.679 61C179.679 61 179.68 61 179.68 61C179.68 61 179.68 61 179.681 61C179.681 61 179.681 61 179.681 61C179.682 61 179.682 61 179.682 61C179.683 61 179.683 61 179.683 61C179.683 61 179.684 61 179.684 61C179.684 61 179.685 61 179.685 61C179.685 61 179.685 61 179.686 61C179.686 61 179.686 61 179.686 61C179.687 61 179.687 61 179.687 61C179.688 61 179.688 61 179.688 61C179.688 61 179.689 61 179.689 61C179.689 61 179.69 61 179.69 61C179.69 61 179.69 61 179.691 61C179.691 61 179.691 61 179.691 61C179.692 61 179.692 61 179.692 61C179.693 61 179.693 61 179.693 61C179.693 61 179.694 61 179.694 61C179.694 61 179.695 61 179.695 61C179.695 61 179.695 61 179.696 61C179.696 61 179.696 61 179.696 61C179.697 61 179.697 61 179.697 61C179.698 61 179.698 61 179.698 61C179.698 61 179.699 61 179.699 61C179.699 61 179.7 61 179.7 61C179.7 61 179.7 61 179.701 61C179.701 61 179.701 61 179.701 61C179.702 61 179.702 61 179.702 61C179.703 61 179.703 61 179.703 61C179.703 61 179.704 61 179.704 61C179.704 61 179.705 61 179.705 61C179.705 61 179.705 61 179.706 61C179.706 61 179.706 61 179.706 61C179.707 61 179.707 61 179.707 61C179.708 61 179.708 61 179.708 61C179.708 61 179.709 61 179.709 61C179.709 61 179.71 61 179.71 61C179.71 61 179.71 61 179.711 61C179.711 61 179.711 61 179.711 61C179.712 61 179.712 61 179.712 61C179.713 61 179.713 61 179.713 61C179.713 61 179.714 61 179.714 61C179.714 61 179.715 61 179.715 61C179.715 61 179.715 61 179.716 61C179.716 61 179.716 61 179.716 61C179.717 61 179.717 61 179.717 61C179.718 61 179.718 61 179.718 61C179.718 61 179.719 61 179.719 61C179.719 61 179.72 61 179.72 61C179.72 61 179.72 61 179.721 61C179.721 61 179.721 61 179.721 61C179.722 61 179.722 61 179.722 61C179.723 61 179.723 61 179.723 61C179.723 61 179.724 61 179.724 61C179.724 61 179.725 61 179.725 61C179.725 61 179.725 61 179.726 61C179.726 61 179.726 61 179.726 61C179.727 61 179.727 61 179.727 61C179.728 61 179.728 61 179.728 61C179.728 61 179.729 61 179.729 61C179.729 61 179.73 61 179.73 61C179.73 61 179.73 61 179.731 61C179.731 61 179.731 61 179.731 61C179.732 61 179.732 61 179.732 61C179.733 61 179.733 61 179.733 61C179.733 61 179.734 61 179.734 61C179.734 61 179.735 61 179.735 61C179.735 61 179.735 61 179.736 61C179.736 61 179.736 61 179.736 61C179.737 61 179.737 61 179.737 61C179.738 61 179.738 61 179.738 61C179.738 61 179.739 61 179.739 61C179.739 61 179.74 61 179.74 61C179.74 61 179.74 61 179.741 61C179.741 61 179.741 61 179.741 61C179.742 61 179.742 61 179.742 61C179.743 61 179.743 61 179.743 61C179.743 61 179.744 61 179.744 61C179.744 61 179.745 61 179.745 61C179.745 61 179.745 61 179.746 61C179.746 61 179.746 61 179.746 61C179.747 61 179.747 61 179.747 61C179.748 61 179.748 61 179.748 61C179.748 61 179.749 61 179.749 61C179.749 61 179.75 61 179.75 61C179.75 61 179.75 61 179.751 61C179.751 61 179.751 61 179.751 61C179.752 61 179.752 61 179.752 61C179.753 61 179.753 61 179.753 61C179.753 61 179.754 61 179.754 61C179.754 61 179.755 61 179.755 61C179.755 61 179.755 61 179.756 61C179.756 61 179.756 61 179.756 61C179.757 61 179.757 61 179.757 61C179.758 61 179.758 61 179.758 61C179.758 61 179.759 61 179.759 61C179.759 61 179.76 61 179.76 61C179.76 61 179.76 61 179.761 61C179.761 61 179.761 61 179.761 61C179.762 61 179.762 61 179.762 61C179.763 61 179.763 61 179.763 61C179.763 61 179.764 61 179.764 61C179.764 61 179.765 61 179.765 61C179.765 61 179.765 61 179.766 61C179.766 61 179.766 61 179.766 61C179.767 61 179.767 61 179.767 61C179.768 61 179.768 61 179.768 61C179.768 61 179.769 61 179.769 61C179.769 61 179.77 61 179.77 61C179.77 61 179.77 61 179.771 61C179.771 61 179.771 61 179.771 61C179.772 61 179.772 61 179.772 61C179.773 61 179.773 61 179.773 61C179.773 61 179.774 61 179.774 61C179.774 61 179.775 61 179.775 61C179.775 61 179.775 61 179.776 61C179.776 61 179.776 61 179.776 61C179.777 61 179.777 61 179.777 61C179.778 61 179.778 61 179.778 61C179.778 61 179.779 61 179.779 61C179.779 61 179.78 61 179.78 61C179.78 61 179.78 61 179.781 61C179.781 61 179.781 61 179.781 61C179.782 61 179.782 61 179.782 61C179.783 61 179.783 61 179.783 61C179.783 61 179.784 61 179.784 61C179.784 61 179.785 61 179.785 61C179.785 61 179.785 61 179.786 61C179.786 61 179.786 61 179.786 61C179.787 61 179.787 61 179.787 61C179.788 61 179.788 61 179.788 61C179.788 61 179.789 61 179.789 61C179.789 61 179.79 61 179.79 61C179.79 61 179.79 61 179.791 61C179.791 61 179.791 61 179.791 61C179.792 61 179.792 61 179.792 61C179.793 61 179.793 61 179.793 61C179.793 61 179.794 61 179.794 61C179.794 61 179.795 61 179.795 61C179.795 61 179.795 61 179.796 61C179.796 61 179.796 61 179.796 61C179.797 61 179.797 61 179.797 61C179.798 61 179.798 61 179.798 61C179.798 61 179.799 61 179.799 61C179.799 61 179.8 61 179.8 61C179.8 61 179.8 61 179.801 61C179.801 61 179.801 61 179.801 61C179.802 61 179.802 61 179.802 61C179.803 61 179.803 61 179.803 61C179.803 61 179.804 61 179.804 61C179.804 61 179.805 61 179.805 61C179.805 61 179.805 61 179.806 61C179.806 61 179.806 61 179.806 61C179.807 61 179.807 61 179.807 61C179.808 61 179.808 61 179.808 61C179.808 61 179.809 61 179.809 61C179.809 61 179.81 61 179.81 61C179.81 61 179.81 61 179.811 61C179.811 61 179.811 61 179.811 61C179.812 61 179.812 61 179.812 61C179.813 61 179.813 61 179.813 61C179.813 61 179.814 61 179.814 61C179.814 61 179.815 61 179.815 61C179.815 61 179.815 61 179.816 61C179.816 61 179.816 61 179.816 61C179.817 61 179.817 61 179.817 61C179.818 61 179.818 61 179.818 61C179.818 61 179.819 61 179.819 61C179.819 61 179.82 61 179.82 61C179.82 61 179.82 61 179.821 61C179.821 61 179.821 61 179.821 61C179.822 61 179.822 61 179.822 61C179.823 61 179.823 61 179.823 61C179.823 61 179.824 61 179.824 61C179.824 61 179.825 61 179.825 61C179.825 61 179.825 61 179.826 61C179.826 61 179.826 61 179.826 61C179.827 61 179.827 61 179.827 61C179.828 61 179.828 61 179.828 61C179.828 61 179.829 61 179.829 61C179.829 61 179.83 61 179.83 61C179.83 61 179.83 61 179.831 61C179.831 61 179.831 61 179.831 61C179.832 61 179.832 61 179.832 61C179.833 61 179.833 61 179.833 61C179.833 61 179.834 61 179.834 61C179.834 61 179.835 61 179.835 61C179.835 61 179.835 61 179.836 61C179.836 61 179.836 61 179.836 61C179.837 61 179.837 61 179.837 61C179.838 61 179.838 61 179.838 61C179.838 61 179.839 61 179.839 61C179.839 61 179.84 61 179.84 61C179.84 61 179.84 61 179.841 61C179.841 61 179.841 61 179.841 61C179.842 61 179.842 61 179.842 61C179.843 61 179.843 61 179.843 61C179.843 61 179.844 61 179.844 61C179.844 61 179.845 61 179.845 61C179.845 61 179.845 61 179.846 61C179.846 61 179.846 61 179.846 61C179.847 61 179.847 61 179.847 61C179.848 61 179.848 61 179.848 61C179.848 61 179.849 61 179.849 61C179.849 61 179.85 61 179.85 61C179.85 61 179.85 61 179.851 61C179.851 61 179.851 61 179.851 61C179.852 61 179.852 61 179.852 61C179.853 61 179.853 61 179.853 61C179.853 61 179.854 61 179.854 61C179.854 61 179.855 61 179.855 61C179.855 61 179.855 61 179.856 61C179.856 61 179.856 61 179.856 61C179.857 61 179.857 61 179.857 61C179.858 61 179.858 61 179.858 61C179.858 61 179.859 61 179.859 61C179.859 61 179.86 61 179.86 61C179.86 61 179.86 61 179.861 61C179.861 61 179.861 61 179.861 61C179.862 61 179.862 61 179.862 61C179.863 61 179.863 61 179.863 61C179.863 61 179.864 61 179.864 61C179.864 61 179.865 61 179.865 61C179.865 61 179.865 61 179.866 61C179.866 61 179.866 61 179.866 61C179.867 61 179.867 61 179.867 61C179.868 61 179.868 61 179.868 61C179.868 61 179.869 61 179.869 61C179.869 61 179.869 61 179.87 61C179.87 61 179.87 61 179.871 61C179.871 61 179.871 61 179.871 61C179.872 61 179.872 61 179.872 61C179.873 61 179.873 61 179.873 61C179.873 61 179.874 61 179.874 61C179.874 61 179.875 61 179.875 61C179.875 61 179.875 61 179.876 61C179.876 61 179.876 61 179.876 61C179.877 61 179.877 61 179.877 61C179.878 61 179.878 61 179.878 61C179.878 61 179.879 61 179.879 61C179.879 61 179.879 61 179.88 61C179.88 61 179.88 61 179.881 61C179.881 61 179.881 61 179.881 61C179.882 61 179.882 61 179.882 61C179.883 61 179.883 61 179.883 61C179.883 61 179.884 61 179.884 61C179.884 61 179.884 61 179.885 61C179.885 61 179.885 61 179.886 61C179.886 61 179.886 61 179.886 61C179.887 61 179.887 61 179.887 61C179.888 61 179.888 61 179.888 61C179.888 61 179.889 61 179.889 61C179.889 61 179.889 61 179.89 61C179.89 61 179.89 61 179.891 61C179.891 61 179.891 61 179.891 61C179.892 61 179.892 61 179.892 61C179.893 61 179.893 61 179.893 61C179.893 61 179.894 61 179.894 61C179.894 61 179.894 61 179.895 61C179.895 61 179.895 61 179.896 61C179.896 61 179.896 61 179.896 61C179.897 61 179.897 61 179.897 61C179.898 61 179.898 61 179.898 61C179.898 61 179.899 61 179.899 61C179.899 61 179.899 61 179.9 61C179.9 61 179.9 61 179.901 61C179.901 61 179.901 61 179.901 61C179.902 61 179.902 61 179.902 61C179.903 61 179.903 61 179.903 61C179.903 61 179.904 61 179.904 61C179.904 61 179.904 61 179.905 61C179.905 61 179.905 61 179.906 61C179.906 61 179.906 61 179.906 61C179.907 61 179.907 61 179.907 61C179.908 61 179.908 61 179.908 61C179.908 61 179.909 61 179.909 61C179.909 61 179.909 61 179.91 61C179.91 61 179.91 61 179.911 61C179.911 61 179.911 61 179.911 61C179.912 61 179.912 61 179.912 61C179.913 61 179.913 61 179.913 61C179.913 61 179.914 61 179.914 61C179.914 61 179.914 61 179.915 61C179.915 61 179.915 61 179.916 61C179.916 61 179.916 61 179.916 61C179.917 61 179.917 61 179.917 61C179.918 61 179.918 61 179.918 61C179.918 61 179.919 61 179.919 61C179.919 61 179.919 61 179.92 61C179.92 61 179.92 61 179.921 61C179.921 61 179.921 61 179.921 61C179.922 61 179.922 61 179.922 61C179.923 61 179.923 61 179.923 61C179.923 61 179.924 61 179.924 61C179.924 61 179.924 61 179.925 61C179.925 61 179.925 61 179.926 61C179.926 61 179.926 61 179.926 61C179.927 61 179.927 61 179.927 61C179.928 61 179.928 61 179.928 61C179.928 61 179.929 61 179.929 61C179.929 61 179.929 61 179.93 61C179.93 61 179.93 61 179.931 61C179.931 61 179.931 61 179.931 61C179.932 61 179.932 61 179.932 61C179.933 61 179.933 61 179.933 61C179.933 61 179.934 61 179.934 61C179.934 61 179.934 61 179.935 61C179.935 61 179.935 61 179.936 61C179.936 61 179.936 61 179.936 61C179.937 61 179.937 61 179.937 61C179.938 61 179.938 61 179.938 61C179.938 61 179.939 61 179.939 61C179.939 61 179.939 61 179.94 61C179.94 61 179.94 61 179.941 61C179.941 61 179.941 61 179.941 61C179.942 61 179.942 61 179.942 61C179.943 61 179.943 61 179.943 61C179.943 61 179.944 61 179.944 61C179.944 61 179.944 61 179.945 61C179.945 61 179.945 61 179.946 61C179.946 61 179.946 61 179.946 61C179.947 61 179.947 61 179.947 61C179.948 61 179.948 61 179.948 61C179.948 61 179.949 61 179.949 61C179.949 61 179.949 61 179.95 61C179.95 61 179.95 61 179.951 61C179.951 61 179.951 61 179.951 61C179.952 61 179.952 61 179.952 61C179.953 61 179.953 61 179.953 61C179.953 61 179.954 61 179.954 61C179.954 61 179.954 61 179.955 61C179.955 61 179.955 61 179.956 61C179.956 61 179.956 61 179.956 61C179.957 61 179.957 61 179.957 61C179.958 61 179.958 61 179.958 61C179.958 61 179.959 61 179.959 61C179.959 61 179.959 61 179.96 61C179.96 61 179.96 61 179.961 61C179.961 61 179.961 61 179.961 61C179.962 61 179.962 61 179.962 61C179.963 61 179.963 61 179.963 61C179.963 61 179.964 61 179.964 61C179.964 61 179.964 61 179.965 61C179.965 61 179.965 61 179.966 61C179.966 61 179.966 61 179.966 61C179.967 61 179.967 61 179.967 61C179.968 61 179.968 61 179.968 61C179.968 61 179.969 61 179.969 61C179.969 61 179.969 61 179.97 61C179.97 61 179.97 61 179.971 61C179.971 61 179.971 61 179.971 61C179.972 61 179.972 61 179.972 61C179.973 61 179.973 61 179.973 61C179.973 61 179.974 61 179.974 61C179.974 61 179.974 61 179.975 61C179.975 61 179.975 61 179.976 61C179.976 61 179.976 61 179.976 61C179.977 61 179.977 61 179.977 61C179.978 61 179.978 61 179.978 61C179.978 61 179.979 61 179.979 61C179.979 61 179.979 61 179.98 61C179.98 61 179.98 61 179.981 61C179.981 61 179.981 61 179.981 61C179.982 61 179.982 61 179.982 61C179.983 61 179.983 61 179.983 61C179.983 61 179.984 61 179.984 61C179.984 61 179.984 61 179.985 61C179.985 61 179.985 61 179.986 61C179.986 61 179.986 61 179.986 61C179.987 61 179.987 61 179.987 61C179.988 61 179.988 61 179.988 61C179.988 61 179.989 61 179.989 61C179.989 61 179.989 61 179.99 61C179.99 61 179.99 61 179.991 61C179.991 61 179.991 61 179.991 61C179.992 61 179.992 61 179.992 61C179.993 61 179.993 61 179.993 61C179.993 61 179.994 61 179.994 61C179.994 61 179.994 61 179.995 61C179.995 61 179.995 61 179.996 61C179.996 61 179.996 61 179.996 61C179.997 61 179.997 61 179.997 61C179.998 61 179.998 61 179.998 61C179.998 61 179.999 61 179.999 61C179.999 61 179.999 61 180 61C180 61 180 61 180.001 61C180.001 61 180.001 61 180.001 61C180.002 61 180.002 61 180.002 61C180.003 61 180.003 61 180.003 61C180.003 61 180.004 61 180.004 61C180.004 61 180.004 61 180.005 61C180.005 61 180.005 61 180.006 61C180.006 61 180.006 61 180.006 61C180.007 61 180.007 61 180.007 61C180.008 61 180.008 61 180.008 61C180.008 61 180.009 61 180.009 61C180.009 61 180.009 61 180.01 61C180.01 61 180.01 61 180.011 61C180.011 61 180.011 61 180.011 61C180.012 61 180.012 61 180.012 61C180.013 61 180.013 61 180.013 61C180.013 61 180.014 61 180.014 61C180.014 61 180.014 61 180.015 61C180.015 61 180.015 61 180.016 61C180.016 61 180.016 61 180.016 61C180.017 61 180.017 61 180.017 61C180.018 61 180.018 61 180.018 61C180.018 61 180.019 61 180.019 61C180.019 61 180.019 61 180.02 61C180.02 61 180.02 61 180.021 61C180.021 61 180.021 61 180.021 61C180.022 61 180.022 61 180.022 61C180.023 61 180.023 61 180.023 61C180.023 61 180.024 61 180.024 61C180.024 61 180.024 61 180.025 61C180.025 61 180.025 61 180.026 61C180.026 61 180.026 61 180.026 61C180.027 61 180.027 61 180.027 61C180.028 61 180.028 61 180.028 61C180.028 61 180.029 61 180.029 61C180.029 61 180.029 61 180.03 61C180.03 61 180.03 61 180.031 61C180.031 61 180.031 61 180.031 61C180.032 61 180.032 61 180.032 61C180.033 61 180.033 61 180.033 61C180.033 61 180.034 61 180.034 61C180.034 61 180.034 61 180.035 61C180.035 61 180.035 61 180.036 61C180.036 61 180.036 61 180.036 61C180.037 61 180.037 61 180.037 61C180.038 61 180.038 61 180.038 61C180.038 61 180.039 61 180.039 61C180.039 61 180.039 61 180.04 61C180.04 61 180.04 61 180.041 61C180.041 61 180.041 61 180.041 61C180.042 61 180.042 61 180.042 61V57ZM179.602 57C163.89 57.1104 149.012 63.2683 137.718 74.3316L140.517 77.1891C151.076 66.846 164.963 61.1029 179.63 61L179.602 57ZM137.718 74.3316C126.423 85.3948 119.959 100.141 119.533 115.846L123.531 115.954C123.93 101.295 129.957 87.5322 140.517 77.1891L137.718 74.3316ZM119.533 115.846C119.088 132.202 125.083 147.704 136.41 159.481L139.293 156.708C128.71 145.705 123.116 131.242 123.531 115.954L119.533 115.846ZM136.41 159.48C144.668 168.068 149.228 179.494 149.228 191.682H153.228C153.228 178.483 148.283 166.057 139.293 156.708L136.41 159.48ZM149.228 191.682V216.096H153.228V191.682H149.228ZM149.228 216.096C149.228 222.059 153.367 227.06 158.912 228.402L159.853 224.514C156.056 223.595 153.228 220.164 153.228 216.096H149.228ZM157.382 226.458V229.714H161.382V226.458H157.382ZM157.382 229.714C157.382 237.043 163.34 243 170.669 243V239C165.549 239 161.382 234.834 161.382 229.714H157.382ZM170.669 243H189.331V239H170.669V243ZM189.331 243C196.659 243 202.617 237.043 202.617 229.714H198.617C198.617 234.834 194.45 239 189.331 239V243ZM202.617 229.714V226.476H198.617V229.714H202.617ZM201.072 228.423C206.667 227.115 210.853 222.093 210.853 216.096H206.853C206.853 220.187 203.994 223.632 200.161 224.528L201.072 228.423ZM210.853 216.096V191.682H206.853V216.096H210.853ZM210.853 191.682C210.853 179.683 215.526 168.106 224.049 159.084L221.142 156.337C211.941 166.076 206.853 178.628 206.853 191.682H210.853ZM224.049 159.083C234.702 147.806 240.567 133.046 240.567 117.531H236.567C236.567 132.025 231.092 145.803 221.141 156.337L224.049 159.083ZM240.567 117.531C240.567 101.287 234.215 86.0276 222.686 74.5793L219.867 77.4177C230.64 88.1151 236.567 102.353 236.567 117.531H240.567ZM222.691 77.4127L222.694 77.4092L219.866 74.5807L219.862 74.5843L222.691 77.4127ZM191.507 229.714C191.507 230.913 190.529 231.891 189.331 231.891V235.891C192.739 235.891 195.507 233.122 195.507 229.714H191.507ZM189.331 231.891H170.669V235.891H189.331V231.891ZM170.669 231.891C169.47 231.891 168.492 230.913 168.492 229.714H164.492C164.492 233.122 167.261 235.891 170.669 235.891V231.891ZM168.492 229.714V226.76H164.492V229.714H168.492ZM166.492 228.76H193.507V224.76H166.492V228.76ZM191.507 226.76V229.714H195.507V226.76H191.507ZM199.744 216.096C199.744 216.951 199.045 217.651 198.189 217.651V221.651C201.257 221.651 203.744 219.158 203.744 216.096H199.744ZM198.189 217.651H161.888V221.651H198.189V217.651ZM161.888 217.651C161.033 217.651 160.334 216.952 160.334 216.096H156.334C156.334 219.164 158.827 221.651 161.888 221.651V217.651ZM160.334 216.096V195.877H156.334V216.096H160.334ZM158.334 197.877H201.74V193.877H158.334V197.877ZM199.74 195.877V216.096H203.74V195.877H199.74ZM201.74 218.096H201.744V214.096H201.74V218.096ZM185.531 186.767H174.458V190.767H185.531V186.767ZM167.348 186.767H158.266V190.767H167.348V186.767ZM160.264 188.667C159.561 174.75 154.001 161.739 144.419 151.777L141.536 154.55C150.438 163.805 155.614 175.897 156.269 188.868L160.264 188.667ZM144.419 151.777C135.169 142.161 130.278 129.514 130.641 116.146L126.642 116.038C126.251 130.474 131.541 144.16 141.536 154.55L144.419 151.777ZM130.641 116.146C131.354 89.8572 153.368 68.2937 179.683 68.1093L179.655 64.1094C151.186 64.3089 127.414 87.5914 126.642 116.038L130.641 116.146ZM179.683 68.1093C192.974 68.017 205.444 73.1082 214.863 82.4584L217.681 79.6197C207.506 69.5187 194.012 64.0097 179.655 64.1094L179.683 68.1093ZM214.863 82.4584C224.281 91.8083 229.461 104.258 229.461 117.528H233.461C233.461 103.192 227.856 89.721 217.681 79.6197L214.863 82.4584ZM229.461 117.528C229.461 130.807 224.681 142.235 215.976 151.453L218.885 154.199C228.273 144.257 233.461 131.854 233.461 117.528H229.461ZM215.976 151.453C206.233 161.77 200.55 174.881 199.825 188.662L203.819 188.873C204.494 176.065 209.774 163.846 218.884 154.199L215.976 151.453ZM201.822 186.767H192.64V190.767H201.822V186.767Z" fill="#F6F6F6" mask="url(#path-3-inside-1_288_1044)"/>
<mask id="path-5-inside-2_288_1044" fill="white">
<path fill-rule="evenodd" clip-rule="evenodd" d="M254.091 76.706C252.701 75.3197 250.451 75.3197 249.064 76.706L242.442 83.3284C241.056 84.7147 241.056 86.9684 242.442 88.3547C243.135 89.0479 244.045 89.3962 244.955 89.3962C245.865 89.3962 246.775 89.0479 247.468 88.3547L254.091 81.7323C255.477 80.346 255.477 78.0923 254.091 76.706ZM254.091 153.327L247.468 146.705C246.082 145.318 243.832 145.318 242.442 146.705C241.056 148.091 241.056 150.345 242.442 151.731L249.064 158.353C249.758 159.047 250.668 159.395 251.578 159.395C252.488 159.395 253.398 159.047 254.091 158.353C255.477 156.964 255.477 154.713 254.091 153.327ZM258.079 113.973H267.446C269.408 113.973 271 115.566 271 117.528C271 119.49 269.408 121.083 267.446 121.083H258.079C256.117 121.083 254.524 119.49 254.524 117.528C254.524 115.566 256.117 113.973 258.079 113.973Z"/>
</mask>
<path fill-rule="evenodd" clip-rule="evenodd" d="M254.091 76.706C252.701 75.3197 250.451 75.3197 249.064 76.706L242.442 83.3284C241.056 84.7147 241.056 86.9684 242.442 88.3547C243.135 89.0479 244.045 89.3962 244.955 89.3962C245.865 89.3962 246.775 89.0479 247.468 88.3547L254.091 81.7323C255.477 80.346 255.477 78.0923 254.091 76.706ZM254.091 153.327L247.468 146.705C246.082 145.318 243.832 145.318 242.442 146.705C241.056 148.091 241.056 150.345 242.442 151.731L249.064 158.353C249.758 159.047 250.668 159.395 251.578 159.395C252.488 159.395 253.398 159.047 254.091 158.353C255.477 156.964 255.477 154.713 254.091 153.327ZM258.079 113.973H267.446C269.408 113.973 271 115.566 271 117.528C271 119.49 269.408 121.083 267.446 121.083H258.079C256.117 121.083 254.524 119.49 254.524 117.528C254.524 115.566 256.117 113.973 258.079 113.973Z" fill="#111111"/>
<path d="M249.064 76.706L250.479 78.1202L249.064 76.706ZM254.091 76.706L255.505 75.2918L255.503 75.29L254.091 76.706ZM242.442 83.3284L241.028 81.9142L241.028 81.9142L242.442 83.3284ZM242.442 88.3547L241.028 89.7689L241.028 89.7689L242.442 88.3547ZM247.468 88.3547L246.054 86.9405L247.468 88.3547ZM254.091 81.7323L255.505 83.1465L255.505 83.1465L254.091 81.7323ZM247.468 146.705L246.054 148.119H246.054L247.468 146.705ZM254.091 153.327L255.505 151.913H255.505L254.091 153.327ZM242.442 146.705L241.03 145.289L241.028 145.291L242.442 146.705ZM242.442 151.731L243.856 150.317H243.856L242.442 151.731ZM249.064 158.353L250.479 156.939L250.479 156.939L249.064 158.353ZM254.091 158.353L255.505 159.768L255.507 159.766L254.091 158.353ZM250.479 78.1202C251.083 77.5159 252.068 77.5133 252.678 78.122L255.503 75.29C253.334 73.126 249.819 73.1234 247.65 75.2918L250.479 78.1202ZM243.856 84.7426L250.479 78.1202L247.65 75.2918L241.028 81.9142L243.856 84.7426ZM243.856 86.9405C243.251 86.3352 243.251 85.3479 243.856 84.7426L241.028 81.9142C238.86 84.0816 238.86 87.6016 241.028 89.7689L243.856 86.9405ZM244.955 87.3962C244.555 87.3962 244.16 87.2444 243.856 86.9405L241.028 89.7689C242.11 90.8514 243.535 91.3962 244.955 91.3962V87.3962ZM246.054 86.9405C245.75 87.2444 245.355 87.3962 244.955 87.3962V91.3962C246.375 91.3962 247.8 90.8514 248.883 89.7689L246.054 86.9405ZM252.677 80.3181L246.054 86.9405L248.883 89.7689L255.505 83.1465L252.677 80.3181ZM252.677 78.1202C253.282 78.7255 253.282 79.7128 252.677 80.3181L255.505 83.1465C257.672 80.9792 257.672 77.4592 255.505 75.2918L252.677 78.1202ZM246.054 148.119L252.677 154.741L255.505 151.913L248.883 145.291L246.054 148.119ZM243.854 148.121C244.465 147.512 245.45 147.515 246.054 148.119L248.883 145.291C246.714 143.122 243.199 143.125 241.03 145.289L243.854 148.121ZM243.856 150.317C243.251 149.712 243.251 148.724 243.856 148.119L241.028 145.291C238.86 147.458 238.86 150.978 241.028 153.145L243.856 150.317ZM250.479 156.939L243.856 150.317L241.028 153.145L247.65 159.768L250.479 156.939ZM251.578 157.395C251.178 157.395 250.783 157.243 250.479 156.939L247.65 159.768C248.733 160.85 250.158 161.395 251.578 161.395V157.395ZM252.677 156.939C252.373 157.243 251.978 157.395 251.578 157.395V161.395C252.998 161.395 254.423 160.85 255.505 159.768L252.677 156.939ZM252.677 154.741C253.281 155.346 253.283 156.331 252.675 156.941L255.507 159.766C257.671 157.596 257.673 154.081 255.505 151.913L252.677 154.741ZM267.446 111.973H258.079V115.973H267.446V111.973ZM273 117.528C273 114.461 270.512 111.973 267.446 111.973V115.973C268.303 115.973 269 116.67 269 117.528H273ZM267.446 123.083C270.512 123.083 273 120.595 273 117.528H269C269 118.385 268.303 119.083 267.446 119.083V123.083ZM258.079 123.083H267.446V119.083H258.079V123.083ZM252.524 117.528C252.524 120.595 255.012 123.083 258.079 123.083V119.083C257.221 119.083 256.524 118.385 256.524 117.528H252.524ZM258.079 111.973C255.012 111.973 252.524 114.461 252.524 117.528H256.524C256.524 116.67 257.221 115.973 258.079 115.973V111.973Z" fill="#F6F6F6" mask="url(#path-5-inside-2_288_1044)"/>
<mask id="path-7-inside-3_288_1044" fill="white">
<path fill-rule="evenodd" clip-rule="evenodd" d="M117.559 83.3284L110.936 76.706C109.546 75.3197 107.296 75.3197 105.91 76.706C104.524 78.0923 104.524 80.346 105.91 81.7323L112.532 88.3547C113.225 89.0479 114.135 89.3962 115.045 89.3962C115.955 89.3962 116.865 89.0479 117.559 88.3547C118.945 86.9648 118.945 84.7147 117.559 83.3284ZM117.559 146.701C116.172 145.311 113.919 145.311 112.532 146.701L105.91 153.324C104.524 154.71 104.524 156.964 105.91 158.35C106.603 159.043 107.513 159.392 108.423 159.392C109.333 159.392 110.243 159.043 110.936 158.35L117.559 151.728C118.945 150.338 118.945 148.088 117.559 146.701ZM92.5547 113.973H101.921C103.883 113.973 105.476 115.566 105.476 117.528C105.476 119.49 103.883 121.083 101.921 121.083H92.5547C90.5925 121.083 89 119.49 89 117.528C89 115.566 90.5925 113.973 92.5547 113.973Z"/>
</mask>
<path fill-rule="evenodd" clip-rule="evenodd" d="M117.559 83.3284L110.936 76.706C109.546 75.3197 107.296 75.3197 105.91 76.706C104.524 78.0923 104.524 80.346 105.91 81.7323L112.532 88.3547C113.225 89.0479 114.135 89.3962 115.045 89.3962C115.955 89.3962 116.865 89.0479 117.559 88.3547C118.945 86.9648 118.945 84.7147 117.559 83.3284ZM117.559 146.701C116.172 145.311 113.919 145.311 112.532 146.701L105.91 153.324C104.524 154.71 104.524 156.964 105.91 158.35C106.603 159.043 107.513 159.392 108.423 159.392C109.333 159.392 110.243 159.043 110.936 158.35L117.559 151.728C118.945 150.338 118.945 148.088 117.559 146.701ZM92.5547 113.973H101.921C103.883 113.973 105.476 115.566 105.476 117.528C105.476 119.49 103.883 121.083 101.921 121.083H92.5547C90.5925 121.083 89 119.49 89 117.528C89 115.566 90.5925 113.973 92.5547 113.973Z" fill="#111111"/>
<path d="M110.936 76.706L112.35 75.2918L112.349 75.29L110.936 76.706ZM117.559 83.3284L118.973 81.9142V81.9142L117.559 83.3284ZM105.91 76.706L104.496 75.2918L104.496 75.2918L105.91 76.706ZM105.91 81.7323L104.496 83.1465L104.496 83.1465L105.91 81.7323ZM112.532 88.3547L113.946 86.9405L113.946 86.9405L112.532 88.3547ZM117.559 88.3547L118.973 89.7689L118.975 89.7671L117.559 88.3547ZM112.532 146.701L113.946 148.116L113.948 148.114L112.532 146.701ZM117.559 146.701L116.143 148.114L116.144 148.116L117.559 146.701ZM105.91 153.324L104.496 151.91H104.496L105.91 153.324ZM105.91 158.35L104.496 159.764H104.496L105.91 158.35ZM110.936 158.35L112.35 159.764H112.35L110.936 158.35ZM117.559 151.728L118.973 153.142L118.975 153.14L117.559 151.728ZM109.522 78.1202L116.144 84.7426L118.973 81.9142L112.35 75.2918L109.522 78.1202ZM107.324 78.1202C107.928 77.5159 108.914 77.5133 109.524 78.122L112.349 75.29C110.179 73.126 106.664 73.1234 104.496 75.2918L107.324 78.1202ZM107.324 80.3181C106.719 79.7128 106.719 78.7255 107.324 78.1202L104.496 75.2918C102.328 77.4592 102.328 80.9792 104.496 83.1465L107.324 80.3181ZM113.946 86.9405L107.324 80.3181L104.496 83.1465L111.118 89.7689L113.946 86.9405ZM115.045 87.3962C114.645 87.3962 114.25 87.2444 113.946 86.9405L111.118 89.7689C112.2 90.8514 113.625 91.3962 115.045 91.3962V87.3962ZM116.144 86.9405C115.84 87.2444 115.445 87.3962 115.045 87.3962V91.3962C116.465 91.3962 117.89 90.8514 118.973 89.7689L116.144 86.9405ZM116.144 84.7426C116.749 85.3469 116.751 86.3321 116.143 86.9423L118.975 89.7671C121.139 87.5976 121.141 84.0826 118.973 81.9142L116.144 84.7426ZM113.948 148.114C114.553 147.507 115.538 147.507 116.143 148.114L118.975 145.289C116.807 143.116 113.284 143.116 111.116 145.289L113.948 148.114ZM107.324 154.738L113.946 148.116L111.118 145.287L104.496 151.91L107.324 154.738ZM107.324 156.936C106.719 156.331 106.719 155.343 107.324 154.738L104.496 151.91C102.328 154.077 102.328 157.597 104.496 159.764L107.324 156.936ZM108.423 157.392C108.023 157.392 107.628 157.24 107.324 156.936L104.496 159.764C105.578 160.847 107.003 161.392 108.423 161.392V157.392ZM109.522 156.936C109.218 157.24 108.823 157.392 108.423 157.392V161.392C109.843 161.392 111.268 160.847 112.35 159.764L109.522 156.936ZM116.144 150.313L109.522 156.936L112.35 159.764L118.973 153.142L116.144 150.313ZM116.144 148.116C116.749 148.72 116.751 149.705 116.143 150.315L118.975 153.14C121.139 150.971 121.141 147.456 118.973 145.287L116.144 148.116ZM101.921 111.973H92.5547V115.973H101.921V111.973ZM107.476 117.528C107.476 114.461 104.988 111.973 101.921 111.973V115.973C102.779 115.973 103.476 116.67 103.476 117.528H107.476ZM101.921 123.083C104.988 123.083 107.476 120.595 107.476 117.528H103.476C103.476 118.385 102.779 119.083 101.921 119.083V123.083ZM92.5547 123.083H101.921V119.083H92.5547V123.083ZM87 117.528C87 120.595 89.4879 123.083 92.5547 123.083V119.083C91.6971 119.083 91 118.385 91 117.528H87ZM92.5547 111.973C89.4879 111.973 87 114.461 87 117.528H91C91 116.67 91.6971 115.973 92.5547 115.973V111.973Z" fill="#F6F6F6" mask="url(#path-7-inside-3_288_1044)"/>
</g>
<circle cx="174" cy="104" r="7" fill="#52682D"/>
<circle cx="193" cy="100" r="7" fill="#39D200"/>
<circle cx="196" cy="119" r="7" fill="#EE1C25"/>
<circle cx="199" cy="138" r="7" fill="#001B94"/>
<circle cx="155" cy="108" r="7" fill="#0188B2"/>
<defs>
<clipPath id="clip0_288_1044">
<rect width="182" height="182" fill="white" transform="translate(89 59)"/>
</clipPath>
</defs>
</svg>
