<svg width="857" height="950" viewBox="0 0 857 950" fill="none" xmlns="http://www.w3.org/2000/svg">
<rect opacity="0.2" x="20" y="43" width="852" height="900" fill="white"/>
<g clip-path="url(#clip0_550_3226)">
<path d="M444.601 348.658H414.158V379.076H444.601V348.658Z" stroke="#D9D9D9" stroke-linecap="round" stroke-linejoin="round"/>
<path d="M475.044 348.658H444.601V379.076H475.044V348.658Z" stroke="#D9D9D9" stroke-linecap="round" stroke-linejoin="round"/>
<path d="M505.5 348.658H475.057V379.076H505.5V348.658Z" stroke="#D9D9D9" stroke-linecap="round" stroke-linejoin="round"/>
<path d="M535.943 348.658H505.5V379.076H535.943V348.658Z" stroke="#D9D9D9" stroke-linecap="round" stroke-linejoin="round"/>
<path d="M566.386 348.658H535.943V379.076H566.386V348.658Z" stroke="#D9D9D9" stroke-linecap="round" stroke-linejoin="round"/>
<path d="M596.828 348.658H566.386V379.076H596.828V348.658Z" stroke="#D9D9D9" stroke-linecap="round" stroke-linejoin="round"/>
<path d="M444.601 379.076H414.158V409.494H444.601V379.076Z" stroke="#D9D9D9" stroke-linecap="round" stroke-linejoin="round"/>
<path d="M475.044 379.076H444.601V409.494H475.044V379.076Z" stroke="#D9D9D9" stroke-linecap="round" stroke-linejoin="round"/>
<path d="M505.5 379.076H475.057V409.494H505.5V379.076Z" stroke="#D9D9D9" stroke-linecap="round" stroke-linejoin="round"/>
<path d="M535.943 379.076H505.5V409.494H535.943V379.076Z" stroke="#D9D9D9" stroke-linecap="round" stroke-linejoin="round"/>
<path d="M566.386 379.076H535.943V409.494H566.386V379.076Z" stroke="#D9D9D9" stroke-linecap="round" stroke-linejoin="round"/>
<path d="M596.828 379.076H566.386V409.494H596.828V379.076Z" stroke="#D9D9D9" stroke-linecap="round" stroke-linejoin="round"/>
<path d="M444.601 409.507H414.158V439.925H444.601V409.507Z" stroke="#D9D9D9" stroke-linecap="round" stroke-linejoin="round"/>
<path d="M475.044 409.507H444.601V439.925H475.044V409.507Z" stroke="#D9D9D9" stroke-linecap="round" stroke-linejoin="round"/>
<path d="M505.5 409.507H475.057V439.925H505.5V409.507Z" stroke="#D9D9D9" stroke-linecap="round" stroke-linejoin="round"/>
<path d="M535.943 409.507H505.5V439.925H535.943V409.507Z" stroke="#D9D9D9" stroke-linecap="round" stroke-linejoin="round"/>
<path d="M566.386 409.507H535.943V439.925H566.386V409.507Z" stroke="#D9D9D9" stroke-linecap="round" stroke-linejoin="round"/>
<path d="M596.828 409.507H566.386V439.925H596.828V409.507Z" stroke="#D9D9D9" stroke-linecap="round" stroke-linejoin="round"/>
<path d="M444.601 439.925H414.158V470.343H444.601V439.925Z" stroke="#D9D9D9" stroke-linecap="round" stroke-linejoin="round"/>
<path d="M475.044 439.925H444.601V470.343H475.044V439.925Z" stroke="#D9D9D9" stroke-linecap="round" stroke-linejoin="round"/>
<path d="M505.5 439.925H475.057V470.343H505.5V439.925Z" stroke="#D9D9D9" stroke-linecap="round" stroke-linejoin="round"/>
<path d="M535.943 439.925H505.5V470.343H535.943V439.925Z" stroke="#D9D9D9" stroke-linecap="round" stroke-linejoin="round"/>
<path d="M566.386 439.925H535.943V470.343H566.386V439.925Z" stroke="#D9D9D9" stroke-linecap="round" stroke-linejoin="round"/>
<path d="M596.828 439.925H566.386V470.343H596.828V439.925Z" stroke="#D9D9D9" stroke-linecap="round" stroke-linejoin="round"/>
<ellipse cx="502.915" cy="394.424" rx="7.23729" ry="7.26923" fill="#52682D"/>
<ellipse cx="522.559" cy="390.269" rx="7.23729" ry="7.26923" fill="#39D200"/>
<ellipse cx="525.661" cy="410" rx="7.23729" ry="7.26923" fill="#EE1C25"/>
<ellipse cx="528.763" cy="429.731" rx="7.23729" ry="7.26923" fill="#001B94"/>
<ellipse cx="483.271" cy="398.577" rx="7.23729" ry="7.26923" fill="#0188B2"/>
</g>
<g clip-path="url(#clip1_550_3226)">
<path d="M322.976 947.739C322.976 947.739 322.858 947.739 322.805 947.709C322.449 947.604 322.238 947.185 322.343 946.796L365.183 764.52C365.275 764.115 365.631 763.891 365.988 763.995C366.344 764.1 366.555 764.52 366.449 764.909L323.61 947.185C323.531 947.515 323.267 947.739 322.976 947.739Z" fill="#111111"/>
<path d="M454.517 946.032C454.24 946.032 453.976 945.822 453.884 945.508L405.555 764.939C405.45 764.55 405.648 764.131 405.991 764.011C406.347 763.891 406.703 764.116 406.809 764.505L455.137 945.074C455.243 945.463 455.045 945.882 454.702 946.002C454.636 946.017 454.57 946.032 454.504 946.032H454.517Z" fill="#111111"/>
<path d="M431.692 528.205H410.16C387.889 528.205 369.827 548.709 369.827 573.991V742.084H329.56V768.069H449.134C461.773 768.069 472.025 756.432 472.025 742.084V573.991C472.025 548.709 453.963 528.205 431.692 528.205Z" fill="#E16C2E"/>
<path d="M355.288 573.781L336.817 591.35L318.623 548.918L318.662 548.874C318.385 548.259 318.108 547.66 317.831 547.046C313.411 537.416 308.978 527.8 304.611 518.14C304.281 517.421 303.951 516.687 303.437 516.133C302.685 515.309 301.563 514.935 300.534 515.174C299.505 515.414 298.608 516.253 298.199 517.346C297.724 518.634 297.922 520.117 298.304 521.435C298.806 523.187 299.334 524.91 299.822 526.662C300.297 528.384 298.384 529.642 297.302 528.294C293.41 523.427 289.517 518.544 285.639 513.661C284.873 512.703 284.016 511.669 282.881 511.505C281.337 511.265 279.833 513.092 280.163 514.83C280.295 515.534 280.665 516.148 281.021 516.747C283.251 520.461 285.348 524.28 287.71 527.89C289.544 530.691 290.362 532.788 291.84 534.69C291.351 534.061 290.692 533.072 290.204 532.443C287.248 528.669 284.24 524.954 281.43 521.045C280.994 520.431 280.282 519.937 279.635 519.682C279.2 519.518 278.725 519.503 278.29 519.652C277.854 519.817 277.472 520.147 277.261 520.611C277.023 521.15 277.05 521.809 277.221 522.393C277.524 523.382 277.96 524.325 278.501 525.164C280.058 527.561 281.641 529.957 283.185 532.368C284.768 534.825 286.562 537.191 287.987 539.767C287.591 539.063 286.971 538.449 286.457 537.85C285.375 536.592 284.266 535.364 283.158 534.166C282.037 532.952 280.836 531.35 279.187 531.23C278.488 531.185 277.696 531.5 277.419 532.234C277.287 532.563 277.287 532.952 277.34 533.312C277.524 534.51 278.329 535.439 279.015 536.307C279.675 537.161 280.335 538.015 281.008 538.869C282.353 540.591 283.686 542.313 285.058 544.021C285.823 545.009 286.588 545.998 287.367 546.986L283.686 544.216C282.287 543.122 279.358 542.029 278.633 543.766C278.211 544.77 278.501 545.968 279.306 546.582L299.835 565.019L319.005 634.844C322.99 648.429 337.819 653.132 347.424 643.846L376.345 615.898L355.288 573.811V573.781Z" fill="#FFC4AD"/>
<path opacity="0.2" d="M355.288 573.781L336.817 591.35L318.623 548.918L318.662 548.874C318.385 548.259 318.108 547.66 317.831 547.046C313.411 537.416 308.978 527.8 304.611 518.14C304.281 517.421 303.951 516.687 303.437 516.133C302.685 515.309 301.563 514.935 300.534 515.174C299.505 515.414 298.608 516.253 298.199 517.346C297.724 518.634 297.922 520.117 298.304 521.435C298.806 523.187 299.334 524.91 299.822 526.662C300.297 528.384 298.384 529.642 297.302 528.294C293.41 523.427 289.517 518.544 285.639 513.661C284.873 512.703 284.016 511.669 282.881 511.505C281.337 511.265 279.833 513.092 280.163 514.83C280.295 515.534 280.665 516.148 281.021 516.747C283.251 520.461 285.348 524.28 287.71 527.89C289.544 530.691 290.362 532.788 291.84 534.69C291.351 534.061 290.692 533.072 290.204 532.443C287.248 528.669 284.24 524.954 281.43 521.045C280.994 520.431 280.282 519.937 279.635 519.682C279.2 519.518 278.725 519.503 278.29 519.652C277.854 519.817 277.472 520.147 277.261 520.611C277.023 521.15 277.05 521.809 277.221 522.393C277.524 523.382 277.96 524.325 278.501 525.164C280.058 527.561 281.641 529.957 283.185 532.368C284.768 534.825 286.562 537.191 287.987 539.767C287.591 539.063 286.971 538.449 286.457 537.85C285.375 536.592 284.266 535.364 283.158 534.166C282.037 532.952 280.836 531.35 279.187 531.23C278.488 531.185 277.696 531.5 277.419 532.234C277.287 532.563 277.287 532.952 277.34 533.312C277.524 534.51 278.329 535.439 279.015 536.307C279.675 537.161 280.335 538.015 281.008 538.869C282.353 540.591 283.686 542.313 285.058 544.021C285.823 545.009 286.588 545.998 287.367 546.986L283.686 544.216C282.287 543.122 279.358 542.029 278.633 543.766C278.211 544.77 278.501 545.968 279.306 546.582L299.835 565.019L319.005 634.844C322.99 648.429 337.819 653.132 347.424 643.846L376.345 615.898L355.288 573.811V573.781Z" fill="#FFC4AD"/>
<path d="M302.513 541.954C302.342 541.954 302.17 541.879 302.038 541.714C296.286 534.72 299.241 527.201 299.281 527.126C299.347 526.946 299.479 526.827 299.637 526.752C299.795 526.692 299.967 526.692 300.125 526.782C300.284 526.857 300.402 527.006 300.455 527.201C300.508 527.381 300.508 527.575 300.429 527.755C300.323 528.025 297.764 534.405 302.962 540.726C303.081 540.861 303.147 541.055 303.133 541.25C303.133 541.445 303.054 541.624 302.935 541.759C302.869 541.834 302.804 541.879 302.724 541.909C302.645 541.939 302.579 541.954 302.5 541.954H302.513Z" fill="#EC977D"/>
<path d="M339.838 600.965C339.587 600.965 339.337 600.801 339.231 600.516L333.07 584.325C332.925 583.951 333.07 583.502 333.413 583.337C333.743 583.172 334.138 583.337 334.283 583.726L340.445 599.917C340.59 600.291 340.445 600.741 340.102 600.906C340.023 600.95 339.93 600.965 339.838 600.965Z" fill="#EC977D"/>
<path d="M452.432 557.156C449.134 544.41 435.03 540.606 423.485 539.438C420.451 538.045 416.928 537.536 412.865 538.105L391.834 554.326L378.376 542.224C371.766 541.041 365.908 543.961 361.317 548.979L340.827 571.22C337.674 574.65 337.199 580.491 339.719 584.625L363.89 624.121L355.195 672.064L437.22 670.476L440.545 596.203L456.456 593.836C458.317 593.552 459.57 591.515 459.135 589.433C457.222 580.207 452.538 557.651 452.406 557.171L452.432 557.156Z" fill="#52682D"/>
<path d="M284.86 894.329V911.733L256.349 910.864L255.293 893.76L284.86 894.329Z" fill="#FFC4AD"/>
<path d="M253.618 909.396L249.198 914.129L223.404 940.954C221.702 942.736 222.837 945.957 225.159 945.912L283.277 944.549C284.834 944.519 286.048 943.036 285.995 941.269L285.731 910.37L253.631 909.396H253.618Z" fill="#111111"/>
<path d="M223.417 940.954L224.314 940.025C224.75 940.474 225.317 940.774 226.016 940.759L284.134 939.396C284.847 939.381 285.493 939.052 285.968 938.527L285.995 941.268C286.061 943.036 284.834 944.503 283.277 944.548L225.159 945.911C222.85 945.971 221.702 942.736 223.417 940.954Z" fill="#111111"/>
<path d="M231.848 941.163C231.492 941.163 231.188 940.834 231.188 940.429C231.188 940.01 231.479 939.681 231.835 939.666L285.916 938.707C286.325 938.737 286.575 939.037 286.589 939.441C286.589 939.86 286.298 940.19 285.942 940.205L231.861 941.163H231.848Z" fill="white"/>
<path d="M273.54 930.799C272.471 930.799 271.416 930.439 270.519 929.75C269.305 928.822 268.487 927.429 268.21 925.811C267.933 924.194 268.21 922.531 269.028 921.168C269.846 919.791 271.073 918.862 272.498 918.547C273.923 918.218 275.387 918.547 276.588 919.476C277.802 920.405 278.62 921.797 278.897 923.415C279.174 925.033 278.897 926.695 278.079 928.058C277.261 929.436 276.034 930.365 274.609 930.679C274.253 930.754 273.896 930.799 273.54 930.799ZM273.54 919.91C273.276 919.91 273.012 919.94 272.735 920C270.492 920.494 269.041 922.981 269.476 925.512C269.688 926.74 270.308 927.803 271.231 928.507C272.155 929.211 273.25 929.451 274.332 929.211C275.414 928.972 276.35 928.268 276.97 927.219C277.59 926.171 277.802 924.928 277.59 923.7C277.208 921.468 275.466 919.91 273.527 919.91H273.54Z" fill="white"/>
<path d="M254.106 920.869C253.934 920.869 253.75 920.794 253.618 920.629L248.723 914.638C248.472 914.339 248.485 913.859 248.762 913.575C249.026 913.29 249.448 913.305 249.699 913.62L254.594 919.611C254.845 919.91 254.831 920.39 254.554 920.674C254.422 920.809 254.264 920.869 254.106 920.869Z" fill="white"/>
<path d="M250.134 925.183C249.963 925.183 249.778 925.108 249.646 924.944L244.738 918.953C244.488 918.653 244.501 918.174 244.778 917.889C245.042 917.605 245.464 917.62 245.715 917.934L250.623 923.925C250.873 924.225 250.86 924.704 250.583 924.989C250.451 925.123 250.293 925.183 250.134 925.183Z" fill="white"/>
<path d="M246.401 929.422C246.229 929.422 246.045 929.347 245.913 929.182L241.005 923.191C240.754 922.891 240.767 922.412 241.044 922.128C241.308 921.843 241.73 921.858 241.981 922.172L246.889 928.163C247.14 928.463 247.126 928.942 246.849 929.227C246.717 929.362 246.559 929.422 246.401 929.422Z" fill="white"/>
<path d="M253.895 913.366C253.776 913.366 253.657 913.336 253.552 913.276C251.639 912.182 252.206 903.031 252.298 902.417C252.602 900.47 254.251 899.182 255.953 899.526C256.784 899.691 257.497 900.215 257.985 900.994C258.473 901.773 258.644 902.732 258.499 903.66C258.315 904.843 255.531 912.527 254.277 913.246C254.159 913.321 254.027 913.351 253.895 913.351V913.366ZM255.399 900.979C254.528 900.979 253.75 901.683 253.591 902.687C253.327 904.394 253.42 909.861 253.947 911.538C254.911 909.951 256.995 904.679 257.193 903.421C257.272 902.881 257.167 902.327 256.89 901.863C256.613 901.414 256.19 901.099 255.715 901.009C255.61 900.994 255.504 900.979 255.399 900.979Z" fill="white"/>
<path d="M253.09 913.381C250.689 913.381 245.622 911.389 245.161 911.074C243.656 910.085 243.142 907.899 244.013 906.191C244.435 905.368 245.108 904.768 245.926 904.529C246.731 904.274 247.588 904.409 248.314 904.888C249.369 905.577 253.908 909.711 254.383 911.838C254.502 912.362 254.383 912.736 254.277 912.961C254.119 913.261 253.684 913.381 253.09 913.381ZM246.731 905.907C246.572 905.907 246.414 905.937 246.256 905.982C245.781 906.131 245.385 906.461 245.147 906.94C244.646 907.929 244.936 909.202 245.82 909.786C246.836 910.46 251.625 911.838 253.09 911.943C252.575 910.685 248.987 907.06 247.654 906.191C247.377 906.012 247.06 905.907 246.744 905.907H246.731Z" fill="white"/>
<path d="M359.312 893.819V912.706L330.8 911.837L329.745 894.733L359.312 893.819Z" fill="#FFC4AD"/>
<path d="M329.072 911.777L324.652 916.51L298.859 943.335C297.157 945.117 298.291 948.337 300.613 948.292L358.731 946.929C360.288 946.9 361.502 945.417 361.449 943.649L361.185 912.751L329.085 911.777H329.072Z" fill="#111111"/>
<path d="M298.872 943.349L299.769 942.421C300.205 942.87 300.772 943.169 301.471 943.154L359.589 941.792C360.302 941.777 360.948 941.447 361.423 940.923L361.449 943.664C361.515 945.431 360.288 946.899 358.731 946.944L300.614 948.307C298.305 948.367 297.157 945.132 298.859 943.349H298.872Z" fill="#111111"/>
<path d="M307.303 943.544C306.946 943.544 306.643 943.215 306.643 942.81C306.643 942.391 306.933 942.061 307.289 942.046L361.37 941.088C361.766 941.088 362.03 941.417 362.043 941.822C362.043 942.241 361.753 942.571 361.396 942.586L307.316 943.544H307.303Z" fill="white"/>
<path d="M348.994 933.18C347.926 933.18 346.87 932.82 345.973 932.131C344.759 931.203 343.941 929.81 343.664 928.192C343.387 926.575 343.664 924.912 344.482 923.549C345.3 922.171 346.527 921.243 347.952 920.928C349.377 920.599 350.828 920.928 352.042 921.857C353.256 922.785 354.074 924.178 354.351 925.796C354.628 927.413 354.351 929.076 353.533 930.439C352.715 931.817 351.488 932.745 350.063 933.06C349.707 933.135 349.351 933.18 348.994 933.18ZM348.994 922.291C348.731 922.291 348.467 922.321 348.19 922.381C345.947 922.875 344.495 925.362 344.931 927.893C345.366 930.439 347.556 932.086 349.786 931.592C352.029 931.098 353.48 928.612 353.045 926.08C352.662 923.849 350.921 922.291 348.981 922.291H348.994Z" fill="white"/>
<path d="M329.573 923.25C329.402 923.25 329.217 923.175 329.085 923.01L324.177 917.019C323.926 916.72 323.94 916.24 324.217 915.956C324.481 915.671 324.903 915.686 325.153 916.001L330.061 921.992C330.312 922.291 330.299 922.77 330.022 923.055C329.89 923.19 329.732 923.25 329.573 923.25Z" fill="white"/>
<path d="M325.602 927.563C325.431 927.563 325.246 927.488 325.114 927.324L320.219 921.333C319.968 921.033 319.982 920.554 320.259 920.269C320.522 919.985 320.945 920 321.195 920.314L326.09 926.305C326.341 926.605 326.328 927.084 326.051 927.368C325.919 927.503 325.76 927.563 325.602 927.563Z" fill="white"/>
<path d="M321.868 931.801C321.697 931.801 321.512 931.727 321.38 931.562L316.472 925.571C316.221 925.271 316.235 924.792 316.512 924.507C316.776 924.223 317.198 924.238 317.448 924.552L322.356 930.543C322.607 930.843 322.594 931.322 322.317 931.607C322.185 931.742 322.027 931.801 321.868 931.801Z" fill="white"/>
<path d="M329.349 915.746C329.23 915.746 329.112 915.716 329.006 915.656C327.08 914.563 327.66 905.412 327.753 904.797C328.056 902.865 329.692 901.562 331.407 901.907C333.109 902.251 334.257 904.109 333.954 906.056C333.769 907.239 330.985 914.922 329.732 915.641C329.613 915.716 329.481 915.746 329.349 915.746ZM330.853 903.36C329.982 903.36 329.204 904.064 329.059 905.067C328.795 906.775 328.887 912.241 329.415 913.919C330.378 912.331 332.463 907.059 332.661 905.801C332.832 904.678 332.172 903.599 331.183 903.39C331.077 903.375 330.972 903.36 330.866 903.36H330.853Z" fill="white"/>
<path d="M328.544 915.776C326.143 915.776 321.077 913.784 320.602 913.469C319.876 912.99 319.348 912.226 319.137 911.298C318.926 910.369 319.032 909.411 319.454 908.587C320.325 906.879 322.251 906.295 323.755 907.284C324.81 907.973 329.349 912.107 329.824 914.233C329.943 914.758 329.824 915.132 329.718 915.357C329.56 915.656 329.125 915.776 328.531 915.776H328.544ZM322.185 908.302C321.552 908.302 320.931 908.677 320.602 909.336C320.351 909.815 320.298 910.369 320.417 910.908C320.549 911.447 320.839 911.897 321.261 912.166C322.277 912.84 327.067 914.218 328.531 914.323C328.016 913.05 324.428 909.441 323.095 908.572C322.805 908.377 322.488 908.287 322.185 908.287V908.302Z" fill="white"/>
<path d="M360.671 618.893C360.42 618.893 360.169 618.728 360.064 618.444L356.093 608.184C353.098 600.441 352.9 591.829 355.538 583.936L360.288 569.722C360.42 569.333 360.803 569.138 361.146 569.288C361.489 569.438 361.66 569.872 361.528 570.246L356.779 584.46C354.259 591.994 354.443 600.201 357.306 607.585L361.278 617.845C361.423 618.219 361.278 618.669 360.935 618.833C360.842 618.878 360.763 618.893 360.671 618.893Z" fill="#111111"/>
<path d="M466.642 629.842L454.411 594.076L419.211 599.453L429.555 633.647L374.788 638.32C373.416 637.032 371.951 635.848 370.447 634.845C370.447 634.845 356.66 627.476 351.62 625.993C351.079 625.828 350.525 625.694 349.971 625.739C349.417 625.798 348.849 626.083 348.559 626.637C348.19 627.341 348.374 628.255 348.651 629.019C349.509 631.385 351.053 633.302 352.596 635.204C350.63 635.279 348.533 635.339 346.224 635.369C341.382 635.833 333.307 635.504 334.217 642.663C334.719 645.119 336.474 645.539 338.294 645.299C335.801 646.198 333.531 647.845 334.719 651.29C335.392 654.585 338.03 654.48 340.63 653.791C339.086 654.495 337.925 655.634 338.439 657.82C338.98 661.834 342.332 662.074 345.142 661.235C342.701 662.928 345.696 667.196 349.443 667.211L369.761 668.484C371.437 668.634 373.508 667.795 375.54 666.597L446.165 667.301C463.198 667.451 474.334 647.081 466.668 629.827L466.642 629.842ZM343.625 652.863C344.047 652.728 344.429 652.623 344.772 652.548C344.443 652.653 344.047 652.758 343.625 652.863Z" fill="#FFC4AD"/>
<path opacity="0.36" d="M352.583 635.205L363.626 635.864C363.626 635.864 351.936 631.55 349.931 631.64L352.583 635.205Z" fill="#E06A4B"/>
<path d="M337.278 646.182C337.001 646.182 336.737 645.973 336.645 645.658C336.54 645.269 336.737 644.849 337.081 644.715C338.136 644.34 343.677 644.175 344.772 644.146C345.129 644.146 345.445 644.46 345.445 644.879C345.445 645.299 345.168 645.628 344.799 645.643C342.318 645.703 338.149 645.898 337.463 646.138C337.397 646.167 337.331 646.167 337.265 646.167L337.278 646.182Z" fill="#EC977D"/>
<path d="M340.049 654.675C339.693 654.675 339.403 654.36 339.389 653.956C339.376 653.537 339.653 653.192 340.023 653.177L346.013 652.893C346.356 652.893 346.685 653.192 346.699 653.611C346.712 654.031 346.435 654.375 346.065 654.39L340.075 654.675H340.049Z" fill="#EC977D"/>
<path d="M345.115 661.999C344.772 661.999 344.482 661.7 344.456 661.295C344.429 660.876 344.706 660.531 345.076 660.501L348.295 660.262C348.664 660.232 348.968 660.546 348.994 660.966C349.021 661.385 348.744 661.73 348.374 661.759L345.155 661.999C345.155 661.999 345.129 661.999 345.115 661.999Z" fill="#E06A4B"/>
<path d="M419.211 635.085C418.881 635.085 418.591 634.8 418.551 634.411C418.512 634.007 418.775 633.632 419.132 633.587L434.04 631.775C434.384 631.73 434.727 632.03 434.766 632.434C434.806 632.838 434.542 633.213 434.186 633.258L419.277 635.07C419.277 635.07 419.224 635.07 419.211 635.07V635.085Z" fill="#EC977D"/>
<path d="M317.818 678.054C304.875 677.934 293.66 684.839 286.523 695.353C266.917 701.344 252.47 721.354 251.916 745.258L247.865 887.979C247.773 891.199 250.016 893.865 252.852 893.94L285.48 894.659C287.354 894.704 288.99 893.221 289.386 891.139L300.561 831.484L313.411 891.633C313.899 893.925 315.72 895.512 317.791 895.482L363.573 894.734C365.447 894.704 366.779 892.667 366.265 890.63L330.022 746.756L387.599 745.648C420.662 745.004 448.171 716.636 451.905 679.342L317.857 678.069L317.818 678.054Z" fill="#001B94"/>
<path d="M300.996 835.872C300.692 835.872 300.429 835.648 300.349 835.303L278.87 733.292C275.902 719.647 278.593 705.508 286.272 694.47C293.937 683.447 305.442 677.171 317.818 677.306L451.865 678.579C452.234 678.579 452.525 678.923 452.525 679.328C452.525 679.747 452.221 680.077 451.865 680.077L317.818 678.804C305.838 678.714 294.729 684.735 287.314 695.399C279.899 706.063 277.287 719.737 280.163 732.932L301.642 834.959C301.722 835.363 301.51 835.768 301.154 835.857C301.101 835.857 301.049 835.872 300.996 835.872Z" fill="white"/>
<path d="M436.732 529.358C432.958 526.198 428.248 523.846 426.256 519.024C424.119 513.826 427.087 503.567 427.087 503.567C429.277 497.771 428.248 490.821 425.201 485.519L424.924 478.195C424.963 477.431 424.95 476.667 424.924 475.918C429.502 473.717 434.067 469.733 436.217 466.378C440.162 460.237 438.962 451.64 433.552 447.162C428.143 442.683 420.57 444.046 416.625 450.187C415.292 452.254 414.052 455.414 413.181 458.844C411.479 458.23 409.659 457.916 407.759 457.945L399.156 458.125L389.09 453.872C380.395 450.187 370.856 456.073 368.824 466.348L366.634 477.506L367.716 477.671C366.924 480.277 366.37 483.078 366.12 485.998L365.315 495.359L370.328 495.913C370.882 497.995 372.901 506.368 371.028 510.891C369.049 515.714 364.325 518.065 360.552 521.225C356.778 524.386 353.625 530.377 356.251 534.795C361.027 531.44 368.019 533.147 371.146 538.434C373.31 534.99 375.474 531.545 377.624 528.115C376.279 531.919 375.83 536.113 376.345 540.172C381.187 541.415 386.279 541.415 391.108 540.172C391.702 540.022 392.322 539.827 392.823 539.453C394.407 540.426 396.016 541.34 397.626 542.269C398.523 539.019 399.842 535.918 401.492 533.073C402.033 532.758 402.56 532.458 403.088 532.144C403.114 536.023 403.141 539.917 403.167 543.796C403.167 544.965 403.22 546.238 403.906 547.106C404.46 547.81 405.305 548.08 406.109 548.29C410.951 549.533 416.031 549.533 420.873 548.29C421.388 544.231 420.939 540.037 419.593 536.233C421.757 539.678 423.921 543.122 426.071 546.552C429.198 541.265 436.204 539.558 440.967 542.913C443.593 538.509 440.439 532.518 436.666 529.343L436.732 529.358Z" fill="black"/>
<path d="M413.049 486.388L410.239 486.283L406.914 493.203C405.714 495.704 402.376 494.94 402.125 492.094L400.872 477.671C400.647 475.035 397.718 474.046 396.254 476.113L393.43 480.097L383.535 479.693L381.358 470.332L379.669 479.498L371.397 478.24L367.347 504.226C365.75 514.456 370.764 524.191 378.799 527.501L379.999 539.363C380.936 548.619 388.575 555.299 396.979 554.206L397.323 554.161C405.727 553.068 413.313 546.717 412.376 537.461L408.181 506.533L412.416 506.697C417.271 506.892 421.388 502.534 421.559 497.007V496.782C421.731 491.271 417.891 486.598 413.036 486.403L413.049 486.388Z" fill="#FFC4AD"/>
<path d="M370.012 493.052C369.84 494.116 370.46 495.119 371.397 495.314C372.334 495.509 373.218 494.805 373.389 493.741C373.561 492.678 372.941 491.674 372.004 491.48C371.067 491.285 370.183 491.989 370.012 493.052Z" fill="#111111"/>
<path d="M383.891 493.727C383.971 494.895 384.868 495.779 385.897 495.689C386.926 495.599 387.704 494.581 387.625 493.413C387.546 492.244 386.649 491.361 385.62 491.451C384.591 491.54 383.812 492.559 383.891 493.727Z" fill="#111111"/>
<path d="M379.986 518.844C380.065 518.873 380.144 518.858 380.224 518.829C380.303 518.784 382.189 517.855 383.588 519.532C383.72 519.697 383.944 519.697 384.089 519.547C384.234 519.398 384.234 519.143 384.102 518.978C382.348 516.866 379.946 518.08 379.92 518.095C379.749 518.185 379.669 518.424 379.749 518.634C379.788 518.754 379.881 518.829 379.986 518.858V518.844Z" fill="#EC977D"/>
<path d="M392.467 485.819C391.794 486.013 390.99 485.774 390.211 485.609C389.42 485.414 388.628 485.235 387.929 485.115C387.229 484.995 386.425 484.875 385.62 484.785C384.828 484.68 383.997 484.62 383.417 484.201C382.862 483.812 382.73 482.943 383.575 482.059C384.38 481.191 386.266 480.442 388.575 480.846C390.884 481.265 392.441 482.643 392.942 483.737C393.483 484.875 393.101 485.639 392.454 485.819H392.467Z" fill="#111111"/>
<path d="M368.191 485.1C368.653 485.25 369.207 485.07 369.748 484.935C370.289 484.785 370.83 484.651 371.318 484.561C371.793 484.471 372.347 484.381 372.901 484.321C373.455 484.246 374.023 484.201 374.405 483.872C374.788 483.557 374.854 482.883 374.247 482.194C373.68 481.505 372.347 480.906 370.764 481.221C369.181 481.535 368.125 482.614 367.808 483.482C367.465 484.366 367.742 484.98 368.191 485.115V485.1Z" fill="#111111"/>
<path d="M387.691 495.793C387.691 495.793 386.016 494.432 384.393 496.063L387.691 495.793Z" fill="#FFC4AD"/>
<path d="M384.393 496.812C384.208 496.812 384.023 496.722 383.905 496.558C383.667 496.243 383.694 495.779 383.957 495.494C385.554 493.892 387.348 494.596 388.074 495.18C388.364 495.419 388.443 495.884 388.219 496.228C388.008 496.558 387.599 496.648 387.295 496.408C387.163 496.303 385.989 495.449 384.815 496.618C384.696 496.737 384.538 496.812 384.38 496.812H384.393Z" fill="#EC977D"/>
<path d="M372.664 495.014C372.664 495.014 371.635 494.221 370.724 495.328L372.664 495.014Z" fill="#FFC4AD"/>
<path d="M370.711 496.078C370.553 496.078 370.394 496.018 370.262 495.883C369.999 495.598 369.985 495.134 370.223 494.82C371.252 493.576 372.492 493.996 373.02 494.385C373.323 494.61 373.402 495.074 373.205 495.419C373.007 495.763 372.598 495.853 372.294 495.628C372.149 495.524 371.661 495.254 371.199 495.838C371.067 496.003 370.896 496.078 370.711 496.078Z" fill="#EC977D"/>
<path d="M386.926 502.863C386.345 502.429 385.567 502.534 385.052 503.073C384.116 504.047 382.071 505.784 379.129 506.129C378.403 506.218 378.033 507.162 378.35 507.911C379.036 509.543 380.844 512.06 384.643 510.053C389.261 507.596 388.456 504.032 386.926 502.878V502.863Z" fill="white"/>
<path d="M378.126 489.099L377.453 497.037L375.685 497.157C374.92 497.037 374.207 497.651 374.102 498.519L373.93 499.972C373.785 501.17 374.511 502.264 375.566 502.444L378.746 502.983" fill="#FFC4AD"/>
<path d="M378.759 503.732C378.759 503.732 378.693 503.732 378.667 503.732L375.487 503.193C374.089 502.953 373.112 501.47 373.297 499.883L373.468 498.43C373.548 497.816 373.825 497.262 374.26 496.887C374.695 496.513 375.236 496.348 375.791 496.423L376.859 496.333L377.479 489.024C377.519 488.62 377.849 488.305 378.205 488.35C378.561 488.395 378.838 488.754 378.799 489.174L378.073 497.741L375.751 497.906C375.421 497.876 375.223 497.936 375.065 498.07C374.907 498.205 374.801 498.4 374.775 498.625L374.603 500.077C374.511 500.856 374.986 501.59 375.685 501.71L378.865 502.249C379.221 502.309 379.472 502.683 379.419 503.103C379.366 503.477 379.089 503.747 378.772 503.747L378.759 503.732Z" fill="#EC977D"/>
<path d="M413.656 500.048C413.538 500.048 413.406 500.003 413.3 499.928L410.411 497.786C410.252 497.666 410.147 497.471 410.12 497.262C410.094 497.052 410.16 496.827 410.279 496.663L413.366 492.768C413.604 492.454 414.026 492.439 414.303 492.709C414.58 492.978 414.593 493.457 414.356 493.772L411.783 497.022L414.026 498.685C414.329 498.909 414.422 499.374 414.224 499.718C414.092 499.943 413.881 500.062 413.669 500.062L413.656 500.048Z" fill="#EC977D"/>
<path d="M378.825 527.741C378.825 527.741 394.961 529.149 398.154 522.184C398.154 522.184 398.51 533.837 379.881 538.105L378.825 527.756V527.741Z" fill="#E8957A"/>
<path d="M413.986 510.936C411.901 510.936 410.147 509.094 410.015 506.697C409.883 504.211 411.558 502.069 413.749 501.919C415.925 501.77 417.825 503.657 417.957 506.143C418.023 507.341 417.667 508.51 416.968 509.408C416.269 510.307 415.292 510.846 414.237 510.921C414.158 510.921 414.078 510.921 413.986 510.921V510.936ZM413.986 503.402C413.986 503.402 413.88 503.402 413.828 503.402C412.363 503.507 411.242 504.945 411.334 506.592C411.426 508.255 412.68 509.513 414.158 509.423C414.87 509.378 415.516 509.019 415.991 508.405C416.466 507.806 416.691 507.027 416.651 506.218C416.559 504.615 415.398 503.387 413.999 503.387L413.986 503.402Z" fill="white"/>
<path d="M417.562 545.878L412.535 534.181C412.192 533.387 411.123 533.162 410.477 533.777L392.309 550.641L380.013 536.038C378.97 534.795 377.321 535.679 377.202 537.536L373.891 547.181C373.495 548.32 373.706 549.593 374.418 550.536L382.981 561.665C383.588 562.923 384.921 563.013 385.607 561.844L392.23 552.558L402.626 564.151C403.774 565.259 405.661 565.109 406.611 563.836L417.166 549.593C417.931 548.559 418.089 547.107 417.575 545.893L417.562 545.878Z" fill="#546C2B"/>
<path d="M404.474 565.633C403.629 565.633 402.811 565.304 402.191 564.72L392.283 553.666L386.121 562.308C385.712 563.012 385.026 563.432 384.248 563.402C383.509 563.357 382.836 562.877 382.44 562.099L373.917 551.03C373.033 549.892 372.796 548.319 373.271 546.911L376.543 537.356C376.661 536.173 377.295 535.184 378.179 534.84C378.997 534.51 379.854 534.765 380.488 535.514L392.362 549.622L410.068 533.192C410.543 532.743 411.189 532.578 411.822 532.728C412.416 532.878 412.891 533.282 413.129 533.851L418.155 545.548C418.789 547.031 418.604 548.799 417.667 550.057L407.112 564.3C406.558 565.049 405.714 565.528 404.79 565.603C404.685 565.603 404.579 565.603 404.474 565.603V565.633ZM392.322 551.599L403.088 563.611C403.471 563.986 404.078 564.18 404.671 564.136C405.252 564.076 405.767 563.791 406.096 563.357L416.651 549.113C417.258 548.304 417.377 547.166 416.968 546.222L411.941 534.525C411.875 534.375 411.73 534.255 411.532 534.21C411.308 534.151 411.057 534.211 410.899 534.36L392.309 551.614L392.322 551.599ZM378.891 536.203C378.799 536.203 378.72 536.217 378.627 536.262C378.205 536.427 377.902 536.966 377.862 537.595L377.822 537.805L374.511 547.451C374.207 548.319 374.366 549.323 374.92 550.042L383.575 561.305C383.76 561.679 384.023 561.904 384.327 561.919C384.617 561.919 384.881 561.754 385.079 561.425L392.138 551.524L379.538 536.562C379.34 536.337 379.129 536.217 378.891 536.217V536.203Z" fill="#111111"/>
<path d="M117.116 949.041C117.116 949.041 117.064 949.041 117.024 949.041C116.668 948.982 116.404 948.607 116.457 948.203L146.644 693.87L180.71 945.851C180.762 946.256 180.512 946.645 180.156 946.705C179.786 946.765 179.456 946.495 179.403 946.076L146.723 704.369L117.763 948.397C117.723 948.772 117.433 949.041 117.103 949.041H117.116Z" fill="#111111"/>
<path d="M440.558 949.041C440.558 949.041 440.505 949.041 440.466 949.041C440.11 948.982 439.846 948.607 439.898 948.203L470.085 693.87L504.151 945.851C504.204 946.256 503.954 946.645 503.597 946.705C503.228 946.765 502.898 946.495 502.845 946.076L470.165 704.369L441.205 948.397C441.165 948.772 440.875 949.041 440.558 949.041Z" fill="#111111"/>
<path d="M505.181 667.046H110.797C109.186 667.046 107.881 668.528 107.881 670.356V695.293C107.881 697.122 109.186 698.603 110.797 698.603H505.181C506.791 698.603 508.096 697.122 508.096 695.293V670.356C508.096 668.528 506.791 667.046 505.181 667.046Z" fill="#EB8D2E"/>
<path opacity="0.46" d="M503.426 685.408H112.565C109.979 685.408 107.881 687.46 107.881 689.991V694.035C107.881 696.566 109.979 698.618 112.565 698.618H503.426C506.012 698.618 508.11 696.566 508.11 694.035V689.991C508.11 687.46 506.012 685.408 503.426 685.408Z" fill="#E16C2E"/>
<path d="M169.297 657.536H165.141C164.772 657.536 164.481 657.206 164.481 656.787C164.481 656.367 164.772 656.038 165.141 656.038H169.297C172.49 656.038 175.089 653.087 175.089 649.463V645.389C175.089 644.281 174.298 643.367 173.308 643.367H165.141C164.772 643.367 164.481 643.037 164.481 642.618C164.481 642.199 164.772 641.869 165.141 641.869H173.308C175.01 641.869 176.408 643.442 176.408 645.389V649.463C176.408 653.911 173.216 657.536 169.297 657.536Z" fill="#0188B2"/>
<path d="M144.994 632.373H166.592C167.582 632.373 168.374 633.287 168.374 634.395V667.046H142.949V634.695C142.949 633.406 143.86 632.373 144.994 632.373Z" fill="#0188B2"/>
<path d="M215.501 590.317H282.934C285.348 590.317 287.459 592.144 288.106 594.78L303.635 658.704H348.823C349.641 658.704 350.129 659.737 349.68 660.516L346.118 666.597H228.51L210.329 598.21C209.287 594.271 211.873 590.302 215.501 590.302V590.317Z" fill="#2D2D30"/>
<path d="M222.705 666.762H299.756L282.301 594.945C281.654 592.309 279.543 590.481 277.129 590.481H209.696C206.081 590.481 203.482 594.45 204.524 598.39L222.705 666.777V666.762Z" fill="black"/>
<path d="M247.957 647.011C240.515 647.011 234.471 640.15 234.471 631.702C234.471 623.255 240.515 616.394 247.957 616.394C255.399 616.394 261.442 623.255 261.442 631.702C261.442 640.15 255.399 647.011 247.957 647.011ZM247.957 618.727C241.666 618.727 236.527 624.538 236.527 631.702C236.527 638.867 241.646 644.678 247.957 644.678C254.268 644.678 259.387 638.867 259.387 631.702C259.387 624.538 254.268 618.727 247.957 618.727Z" fill="#F6EEE3"/>
<ellipse cx="246.46" cy="628.417" rx="1.75481" ry="1.99433" fill="white"/>
<ellipse cx="251.223" cy="627.278" rx="1.75481" ry="1.99433" fill="white"/>
<ellipse cx="251.975" cy="632.691" rx="1.75481" ry="1.99433" fill="white"/>
<ellipse cx="252.727" cy="638.104" rx="1.75481" ry="1.99433" fill="white"/>
<ellipse cx="241.697" cy="629.557" rx="1.75481" ry="1.99433" fill="white"/>
<path d="M423.05 613.967C422.773 613.967 422.509 613.772 422.417 613.443L418.643 600.247L415.081 600.622C412.851 600.861 410.886 599.064 410.595 596.548L408.366 577.017C408.313 576.613 408.577 576.238 408.933 576.179C409.289 576.119 409.619 576.418 409.672 576.823L411.902 596.353C412.099 598.076 413.445 599.289 414.949 599.124L419.567 598.645L423.67 612.978C423.776 613.368 423.591 613.787 423.248 613.922C423.182 613.952 423.116 613.952 423.05 613.952V613.967Z" fill="#111111"/>
</g>
<g clip-path="url(#clip2_550_3226)">
<path d="M199.757 159.957H181.139C176.506 159.957 172.752 155.669 172.752 150.377C172.752 145.084 176.506 140.796 181.139 140.796H199.757C204.39 140.796 208.144 145.084 208.144 150.377C208.144 155.669 204.39 159.957 199.757 159.957Z" fill="white"/>
<path d="M199.757 160.923H181.139C176.049 160.923 171.906 156.191 171.906 150.377C171.906 144.562 176.049 139.83 181.139 139.83H199.757C204.847 139.83 208.99 144.562 208.99 150.377C208.99 156.191 204.847 160.923 199.757 160.923ZM181.139 141.742C176.979 141.742 173.597 145.605 173.597 150.357C173.597 155.109 176.979 158.972 181.139 158.972H199.757C203.917 158.972 207.299 155.109 207.299 150.357C207.299 145.605 203.917 141.742 199.757 141.742H181.139Z" fill="#5C69AB"/>
<path d="M190.44 226.731C200.096 226.731 207.925 217.789 207.925 206.759C207.925 195.728 200.096 186.786 190.44 186.786C180.783 186.786 172.955 195.728 172.955 206.759C172.955 217.789 180.783 226.731 190.44 226.731Z" fill="#F6EEE3"/>
<path d="M190.44 227.697C180.328 227.697 172.109 218.309 172.109 206.759C172.109 195.208 180.328 185.82 190.44 185.82C200.552 185.82 208.77 195.208 208.77 206.759C208.77 218.309 200.552 227.697 190.44 227.697ZM190.44 187.771C181.275 187.771 173.8 196.289 173.8 206.778C173.8 217.266 181.258 225.785 190.44 225.785C199.622 225.785 207.079 217.266 207.079 206.778C207.079 196.289 199.622 187.771 190.44 187.771Z" fill="#5C69AB"/>
<path d="M190.389 42.8145H188.698V140.004H190.389V42.8145Z" fill="#5C69AB"/>
<path d="M242.928 208.304C242.928 208.806 137.968 208.826 137.968 208.304C137.968 175.197 161.456 148.367 190.44 148.367C219.423 148.367 242.911 175.197 242.911 208.304H242.928Z" fill="white"/>
<path d="M189.696 209.656C176.709 209.656 163.773 209.618 154.083 209.56C142.776 209.482 137.123 209.064 137.123 208.304C137.123 174.714 161.05 147.401 190.44 147.401C219.829 147.401 243.757 174.733 243.757 208.304C243.757 209.064 237.917 209.482 226.238 209.56C216.244 209.618 202.936 209.656 189.679 209.656H189.696ZM138.831 207.416C147.624 207.841 233.256 207.841 242.083 207.416C241.66 175.313 218.662 149.314 190.457 149.314C162.251 149.314 139.236 175.313 138.814 207.435L138.831 207.416Z" fill="#5C69AB"/>
</g>
<g clip-path="url(#clip3_550_3226)">
<path d="M741.315 463.576H705.094C704.447 463.576 703.924 463.052 703.924 462.406V446.797C703.924 446.15 704.447 445.627 705.094 445.627H741.315C741.961 445.627 742.485 446.15 742.485 446.797V462.406C742.485 463.052 741.961 463.576 741.315 463.576ZM705.463 462.036H740.945V447.166H705.463V462.036Z" fill="#5C69AB"/>
<path d="M699.444 463.576H663.67C663.023 463.576 662.5 463.052 662.5 462.406V446.797C662.5 446.15 663.023 445.627 663.67 445.627H699.444C700.091 445.627 700.614 446.15 700.614 446.797V462.406C700.614 463.052 700.091 463.576 699.444 463.576ZM664.039 462.036H699.09V447.166H664.039V462.036Z" fill="#5C69AB"/>
<path d="M723.843 483.48H688.069C687.422 483.48 686.899 482.957 686.899 482.31V466.701C686.899 466.055 687.422 465.531 688.069 465.531H723.843C724.49 465.531 725.013 466.055 725.013 466.701V482.31C725.013 482.957 724.49 483.48 723.843 483.48ZM688.438 481.941H723.489V467.071H688.438V481.941Z" fill="#5C69AB"/>
<path d="M723.843 442.949H688.069C687.422 442.949 686.899 442.425 686.899 441.779V426.17C686.899 425.523 687.422 425 688.069 425H723.843C724.49 425 725.013 425.523 725.013 426.17V441.779C725.013 442.425 724.49 442.949 723.843 442.949ZM688.438 441.409H723.489V426.539H688.438V441.409Z" fill="#5C69AB"/>
</g>
<g clip-path="url(#clip4_550_3226)">
<path d="M306.815 329.576H270.594C269.947 329.576 269.424 329.052 269.424 328.406V312.797C269.424 312.15 269.947 311.627 270.594 311.627H306.815C307.461 311.627 307.985 312.15 307.985 312.797V328.406C307.985 329.052 307.461 329.576 306.815 329.576ZM270.963 328.036H306.445V313.166H270.963V328.036Z" fill="#5C69AB"/>
<path d="M264.944 329.576H229.17C228.523 329.576 228 329.052 228 328.406V312.797C228 312.15 228.523 311.627 229.17 311.627H264.944C265.591 311.627 266.114 312.15 266.114 312.797V328.406C266.114 329.052 265.591 329.576 264.944 329.576ZM229.539 328.036H264.59V313.166H229.539V328.036Z" fill="#5C69AB"/>
<path d="M289.343 349.48H253.569C252.922 349.48 252.399 348.957 252.399 348.31V332.701C252.399 332.055 252.922 331.531 253.569 331.531H289.343C289.99 331.531 290.513 332.055 290.513 332.701V348.31C290.513 348.957 289.99 349.48 289.343 349.48ZM253.938 347.941H288.989V333.071H253.938V347.941Z" fill="#5C69AB"/>
<path d="M289.343 308.949H253.569C252.922 308.949 252.399 308.425 252.399 307.779V292.17C252.399 291.523 252.922 291 253.569 291H289.343C289.99 291 290.513 291.523 290.513 292.17V307.779C290.513 308.425 289.99 308.949 289.343 308.949ZM253.938 307.409H288.989V292.539H253.938V307.409Z" fill="#5C69AB"/>
</g>
<g clip-path="url(#clip5_550_3226)">
<path d="M604.639 877C604.69 872.678 605.91 868.2 604.535 864.111C602.018 856.709 592.053 853.707 589.899 846.176C588.498 841.311 590.859 835.824 588.991 831.114C587.823 828.215 585.254 826.145 583.048 823.919C580.842 821.693 578.741 818.872 579.026 815.767C579.13 814.68 579.623 813.515 580.609 813.075C582.114 812.376 583.775 813.567 584.891 814.757C591.145 821.538 593.428 831.631 600.824 837.144C603.886 839.421 607.83 840.948 609.647 844.287C611.256 847.237 610.789 850.809 611.489 854.095C612.45 858.702 615.641 862.481 618.755 866C621.143 868.692 623.712 871.72 623.634 875.292C623.608 877.077 622.881 878.76 622.648 880.545C622.311 882.952 622.804 885.385 622.855 887.792C622.907 890.225 622.362 892.864 620.468 894.391C617.121 897.057 611.593 892.217 609.361 889.836C606.17 886.472 604.587 881.606 604.639 877.026V877Z" fill="#54A194"/>
<path d="M606.948 856.657C617.224 875.602 615.174 890.379 616.472 911.886" stroke="#1E1609" stroke-linecap="round" stroke-linejoin="round"/>
<path d="M623.945 880.158C621.921 875.214 621.61 869.495 623.66 864.578C625.788 859.453 630.277 855.519 632.145 850.292C634.247 844.339 633.028 836.704 637.854 832.589C640.06 830.726 643.096 830.079 645.25 828.164C647.871 825.835 648.702 822.16 649.973 818.899C651.504 814.991 653.84 811.393 656.824 808.417C657.81 807.434 659.082 806.45 660.457 806.709C662.351 807.071 663 809.452 663 811.367C663 813.593 662.637 815.845 661.936 817.967C661.158 820.348 659.964 822.832 660.716 825.188C661.08 826.378 661.91 827.362 662.325 828.526C663.545 831.891 661.235 835.41 659.185 838.361C656.409 842.346 653.84 846.927 654.359 851.767C654.566 853.578 655.189 855.338 655.215 857.176C655.319 862.844 649.921 866.803 645.899 870.841C643.382 873.325 641.254 876.198 639.567 879.304C638.088 882.021 634.429 890.38 630.069 890.432C626.411 890.458 625.243 883.263 623.945 880.158Z" fill="#54A194"/>
<path d="M629.265 909.35C629.265 857.512 645.717 839.784 653.632 827.827" stroke="#1E1609" stroke-linecap="round" stroke-linejoin="round"/>
<path d="M622.778 890.432C618.807 882.564 612.553 872.342 614.422 863.749C615.2 860.178 616.991 856.736 616.731 853.113C616.498 849.981 614.811 847.186 613.565 844.313C611.723 840.069 610.841 835.436 610.996 830.829C611.178 824.748 613.124 818.743 612.813 812.661C612.605 808.65 611.411 804.742 610.477 800.834C609.543 796.926 608.894 792.811 609.777 788.877C610.659 784.943 613.332 781.191 617.224 780.078C619.56 779.405 620.079 783.417 620.702 785.746C621.324 788.075 621.117 790.534 620.909 792.941C620.312 800.135 620.001 807.641 622.803 814.292C624.931 819.364 628.798 823.738 629.966 829.121C631.678 837.041 627.163 845.141 627.942 853.216C628.175 855.623 628.876 857.952 629.395 860.333C630.64 865.82 630.978 871.591 629.654 877.052C628.331 882.513 627.423 887.223 622.803 890.432H622.778Z" fill="#54A194"/>
<path d="M618.444 812.868C618.444 812.868 624.698 878.216 623.063 906.607" stroke="#1E1609" stroke-linecap="round" stroke-linejoin="round"/>
<path d="M602.121 897.834H644.55L639.671 938H607L602.121 897.834Z" fill="#EE1C25"/>
<path d="M603.341 907.823H643.33" stroke="#332737" stroke-linecap="round" stroke-linejoin="round"/>
</g>
<path d="M524.788 201H506.171C501.537 201 497.783 196.712 497.783 191.42C497.783 186.127 501.537 181.839 506.171 181.839H524.788C529.422 181.839 533.176 186.127 533.176 191.42C533.176 196.712 529.422 201 524.788 201Z" fill="white"/>
<path d="M524.788 201.966H506.171C501.081 201.966 496.938 197.234 496.938 191.419C496.938 185.605 501.081 180.873 506.171 180.873H524.788C529.878 180.873 534.021 185.605 534.021 191.419C534.021 197.234 529.878 201.966 524.788 201.966ZM506.171 182.785C502.011 182.785 498.629 186.648 498.629 191.4C498.629 196.152 502.011 200.015 506.171 200.015H524.788C528.948 200.015 532.33 196.152 532.33 191.4C532.33 186.648 528.948 182.785 524.788 182.785H506.171Z" fill="#5C69AB"/>
<path d="M515.471 267.774C525.128 267.774 532.956 258.832 532.956 247.802C532.956 236.771 525.128 227.829 515.471 227.829C505.814 227.829 497.986 236.771 497.986 247.802C497.986 258.832 505.814 267.774 515.471 267.774Z" fill="#F6EEE3"/>
<path d="M515.471 268.74C505.359 268.74 497.141 259.352 497.141 247.802C497.141 236.251 505.359 226.863 515.471 226.863C525.583 226.863 533.801 236.251 533.801 247.802C533.801 259.352 525.583 268.74 515.471 268.74ZM515.471 228.814C506.306 228.814 498.832 237.332 498.832 247.821C498.832 258.309 506.289 266.828 515.471 266.828C524.653 266.828 532.11 258.309 532.11 247.821C532.11 237.332 524.653 228.814 515.471 228.814Z" fill="#5C69AB"/>
<path d="M514.972 41.9727H513.956V181.522H514.972V41.9727Z" fill="#5C69AB"/>
<path d="M567.959 249.347C567.959 249.849 463 249.869 463 249.347C463 216.24 486.487 189.41 515.471 189.41C544.455 189.41 567.943 216.24 567.943 249.347H567.959Z" fill="white"/>
<path d="M514.727 250.699C501.74 250.699 488.804 250.661 479.115 250.603C467.808 250.525 462.154 250.107 462.154 249.347C462.154 215.757 486.082 188.444 515.471 188.444C544.861 188.444 568.788 215.776 568.788 249.347C568.788 250.107 562.949 250.525 551.269 250.603C541.276 250.661 527.968 250.699 514.71 250.699H514.727ZM463.862 248.459C472.655 248.883 558.287 248.883 567.114 248.459C566.691 216.356 543.694 190.357 515.488 190.357C487.282 190.357 464.268 216.356 463.845 248.478L463.862 248.459Z" fill="#5C69AB"/>
<defs>
<clipPath id="clip0_550_3226">
<rect width="184" height="123" fill="white" transform="translate(413.5 348)"/>
</clipPath>
<clipPath id="clip1_550_3226">
<rect width="400.215" height="504.501" fill="white" transform="translate(107.881 444.541)"/>
</clipPath>
<clipPath id="clip2_550_3226">
<rect width="106.651" height="226.768" fill="white" transform="translate(137.123 0.929688)"/>
</clipPath>
<clipPath id="clip3_550_3226">
<rect width="80" height="58.4799" fill="white" transform="translate(662.5 425)"/>
</clipPath>
<clipPath id="clip4_550_3226">
<rect width="80" height="58.4799" fill="white" transform="translate(228 291)"/>
</clipPath>
<clipPath id="clip5_550_3226">
<rect width="84" height="158" fill="white" transform="translate(579 780)"/>
</clipPath>
</defs>
</svg>
