<svg width="112" height="32" viewBox="0 0 112 32" fill="none" xmlns="http://www.w3.org/2000/svg">
<path d="M11 3.4V3.39987L10.9876 3.40013C10.1238 3.41797 9.30647 3.59694 8.54138 3.94002C7.78726 4.27819 7.11918 4.74246 6.55783 5.31598C5.97436 5.89525 5.54233 6.56014 5.20608 7.31446C4.86181 8.08679 4.67869 8.90103 4.67869 9.76875V12.6137H2.90164C2.46055 12.6137 2.12625 12.7887 1.86064 13.028C1.53827 13.3185 1.4 13.7 1.4 14.0913C1.4 14.5083 1.57206 14.8694 1.8399 15.1349C2.13182 15.4242 2.50457 15.5525 2.90164 15.5525H4.6623V29.09C4.6623 29.5213 4.83223 29.8728 5.0824 30.1455C5.37531 30.4649 5.75762 30.6 6.14754 30.6C6.57775 30.6 6.91161 30.4205 7.17215 30.1857C7.50264 29.8879 7.63279 29.5011 7.63279 29.09V15.5525H10.0328C10.4585 15.5525 10.7846 15.3768 11.0337 15.1748C11.3877 14.8877 11.518 14.4845 11.518 14.0913C11.518 13.6824 11.3685 13.3354 11.0781 13.0476C10.7879 12.7599 10.4403 12.6137 10.0328 12.6137H7.64918V9.77797C7.66431 9.30239 7.7631 8.86107 7.94321 8.44908C8.12971 8.02246 8.36769 7.66535 8.6683 7.36737C8.9764 7.06197 9.33993 6.81233 9.76139 6.63129C10.1797 6.45162 10.6238 6.355 11.1148 6.355H11.1333L11.1519 6.35385C11.5227 6.33088 11.886 6.20912 12.1765 5.92112C12.4522 5.64781 12.6 5.30016 12.6 4.91C12.6 4.47868 12.4301 4.12723 12.1799 3.85446C11.8797 3.52718 11.4922 3.4 11.082 3.4H11Z" fill="#001B94" stroke="#001B94" stroke-width="1.2"/>
<path d="M18.3863 20.959L18.4017 20.9291V20.7839V11.8924C18.4017 11.478 18.2675 11.0904 17.9322 10.7939C17.6405 10.536 17.2828 10.4 16.9008 10.4C16.5188 10.4 16.1611 10.536 15.8695 10.7939C15.5341 11.0904 15.4 11.478 15.4 11.8924V20.8002C15.4 22.1408 15.6477 23.4029 16.1454 24.5973C16.6258 25.79 17.32 26.8285 18.1902 27.71C19.0669 28.6143 20.1008 29.3054 21.2822 29.82C22.48 30.3416 23.7632 30.6 25.1418 30.6C26.519 30.6 27.805 30.3421 28.9742 29.8172C30.124 29.3011 31.1255 28.6076 31.9686 27.7009C32.8118 26.8104 33.4509 25.7523 33.9089 24.5703C34.3707 23.3784 34.6 22.1201 34.6 20.7839V11.9249C34.6 11.5356 34.4724 11.1417 34.1681 10.8457C33.8845 10.5698 33.5322 10.4325 33.1325 10.4325C32.7478 10.4325 32.3431 10.551 32.037 10.8717C31.7364 11.169 31.5983 11.5352 31.5983 11.9411V20.7028C31.5983 21.64 31.4434 22.5429 31.1351 23.3991C30.8087 24.2592 30.3617 25.0056 29.8131 25.6281C29.271 26.2432 28.5886 26.7467 27.7903 27.12C27.0145 27.4828 26.1194 27.6639 25.1418 27.6639C24.1676 27.6639 23.285 27.484 22.4688 27.1164C21.6303 26.7389 20.9123 26.2461 20.3209 25.6267C19.7264 25.004 19.263 24.2715 18.9034 23.4351C18.5725 22.6654 18.4028 21.8376 18.3863 20.959Z" fill="#001B94" stroke="#001B94" stroke-width="1.2"/>
<path d="M43.2973 30.6H43.3198L43.3422 30.5983C43.6927 30.572 44.0445 30.429 44.2911 30.0998C44.4979 29.8236 44.6 29.4995 44.6 29.123C44.6 28.7609 44.4968 28.4198 44.2758 28.1277C44.021 27.7909 43.6669 27.6334 43.2703 27.6299V27.6299C42.2808 27.6299 41.5294 27.2675 40.9753 26.5482C40.4028 25.8052 40.0595 24.729 40.0595 23.2767V4.90943C40.0595 4.56091 39.9708 4.1794 39.7048 3.87591C39.4562 3.56039 39.1098 3.4 38.7297 3.4C38.3012 3.4 37.9903 3.61804 37.7736 3.85472C37.4956 4.15852 37.4 4.53111 37.4 4.90943V23.2117C37.4 24.2884 37.5423 25.2733 37.8178 26.1795L37.8188 26.1827C38.0929 27.0667 38.4892 27.8699 39.02 28.526C39.5432 29.1728 40.1634 29.6837 40.8935 30.0493C41.6314 30.4188 42.4405 30.6 43.2973 30.6Z" fill="#001B94" stroke="#001B94" stroke-width="1.2"/>
<path d="M47.4 19.8734C47.4 19.9234 47.4058 19.9724 47.4129 20.014L47.4 20.0588V20.1435C47.4 21.5697 47.6695 22.9342 48.2313 24.213C48.7717 25.4815 49.5292 26.5915 50.4843 27.5397C51.4433 28.4919 52.5616 29.2241 53.8304 29.7741C55.118 30.3323 56.4919 30.6 57.928 30.6C59.2786 30.6 60.5948 30.3494 61.8555 29.8488C63.1123 29.3497 64.1873 28.6657 65.0849 27.7569C65.3852 27.458 65.6 27.0776 65.6 26.6076C65.6 26.1867 65.4566 25.7997 65.1149 25.4887L65.113 25.4871C64.8374 25.2383 64.4953 25.0793 64.116 25.0793C63.869 25.0793 63.6152 25.1353 63.3672 25.2721C63.177 25.377 63.0251 25.4847 62.8772 25.6106L62.8675 25.6188L62.8582 25.6274C62.1448 26.2885 61.3626 26.7827 60.5123 27.0897C59.6449 27.4028 58.728 27.5603 57.775 27.5603C56.7393 27.5603 55.7696 27.3426 54.8775 26.9387C53.9823 26.5333 53.2111 25.9716 52.5465 25.2804C51.8856 24.5929 51.3651 23.7954 50.9848 22.8831C50.6071 21.9769 50.419 21.0427 50.419 20.0591L50.419 20.0583C50.419 20.0525 50.4192 20.0224 50.4167 19.9901C50.4159 19.9806 50.415 19.9702 50.4136 19.959C50.4144 19.9522 50.4151 19.9456 50.4157 19.9394C50.417 19.9258 50.4178 19.9135 50.4183 19.9025L50.4189 19.887L50.419 19.8799L50.419 19.8766L50.419 19.875L50.419 19.8742L50.419 19.8738C50.419 19.8737 50.419 19.8737 50.3976 19.8736C50.3976 19.8735 50.3976 19.8735 50.3976 19.8734H50.419C50.419 18.8536 50.608 17.9059 50.9984 17.0069C51.3949 16.0935 51.931 15.2972 52.6047 14.6283L52.6048 14.6284L52.6096 14.6234C53.283 13.9393 54.0689 13.4067 54.9755 12.9956C55.8661 12.6085 56.837 12.4059 57.86 12.4059C58.8124 12.4059 59.7111 12.5632 60.5599 12.8754C61.4007 13.1845 62.1635 13.6471 62.852 14.2825C63.002 14.4289 63.1845 14.5418 63.3046 14.6162C63.3111 14.6202 63.3175 14.6242 63.3237 14.628L63.64 14.1181L63.3237 14.628C63.5733 14.7829 63.8414 14.8363 64.082 14.8363C64.4806 14.8363 64.8029 14.6754 65.0716 14.4352C65.4224 14.1364 65.6 13.7352 65.6 13.308C65.6 12.86 65.3898 12.4623 65.085 12.1588C64.1874 11.25 63.1089 10.5626 61.8416 10.0953C60.5843 9.63166 59.273 9.4 57.928 9.4C56.4931 9.4 55.1203 9.66725 53.8336 10.2245C52.557 10.7605 51.4393 11.5121 50.4843 12.4603C49.5252 13.4125 48.7872 14.5231 48.2328 15.7838C47.6698 17.0639 47.4 18.4296 47.4 19.8734ZM49.819 19.8734L49.8855 19.8734C49.8642 19.8734 49.8421 19.8734 49.819 19.8734Z" fill="#001B94" stroke="#001B94" stroke-width="1.2"/>
<path d="M73.2322 15.5985L73.2322 15.5985L73.2365 15.5936C73.8431 14.9004 74.5731 14.3547 75.4057 13.9424C76.0964 13.6065 76.8022 13.4162 77.5443 13.3617H77.9985H78.1753C78.5739 13.3617 78.9188 13.2133 79.192 12.9356C79.4919 12.6308 79.6 12.2331 79.6 11.8726C79.6 11.5038 79.4885 11.1531 79.2612 10.8707L79.2514 10.8586L79.241 10.8469C78.9573 10.5297 78.5739 10.4 78.1753 10.4H77.9985C76.6587 10.4 75.4029 10.6829 74.2257 11.2698C73.0691 11.8464 72.0488 12.6178 71.1855 13.6005C70.3255 14.5794 69.6421 15.7279 69.1473 17.0071C68.6475 18.2993 68.4 19.6904 68.4 21.1421V29.0945C68.4 29.4728 68.5088 29.8473 68.7978 30.147C69.0782 30.4549 69.4322 30.6 69.8395 30.6C70.2601 30.6 70.5885 30.3918 70.8169 30.1366C71.0808 29.8415 71.1906 29.4755 71.1906 29.0945V21.1421C71.1906 20.0404 71.3707 19.0284 71.7388 18.0835C72.1133 17.122 72.6078 16.2965 73.2322 15.5985Z" fill="#001B94" stroke="#001B94" stroke-width="1.2"/>
<path d="M85.3618 12.5113L85.3618 12.5113L85.3579 12.5153C84.4366 13.4818 83.7235 14.6062 83.1999 15.8815C82.6535 17.1898 82.4 18.565 82.4 20.0168C82.4 21.4573 82.6715 22.8311 83.1992 24.1167C83.7229 25.3927 84.4362 26.5177 85.3579 27.4847C86.2798 28.4519 87.3551 29.2031 88.5782 29.7556C89.8108 30.3123 91.1145 30.6 92.516 30.6C93.9165 30.6 95.2364 30.3128 96.47 29.7556C97.6926 29.2033 98.7699 28.4513 99.678 27.4806C100.581 26.5157 101.293 25.3925 101.817 24.1167C102.346 22.8271 102.6 21.4697 102.6 20.0168C102.6 18.5666 102.347 17.1757 101.818 15.8849C101.294 14.5926 100.581 13.4676 99.6761 12.5173C98.7683 11.5476 97.6917 10.7963 96.47 10.2444C95.2359 9.68702 93.8999 9.4 92.516 9.4C91.1311 9.4 89.8113 9.68747 88.5782 10.2444C87.3513 10.7986 86.2787 11.5672 85.3618 12.5113ZM99.1008 22.9234L99.1007 22.9234L99.0977 22.9312C98.7409 23.8512 98.2209 24.6619 97.5812 25.3486C96.9468 26.0296 96.1939 26.5729 95.3173 26.9788C94.4501 27.3636 93.5076 27.565 92.5 27.565C91.4862 27.565 90.5631 27.3781 89.7045 26.9814C88.8323 26.571 88.0667 26.0423 87.4394 25.3535C86.7934 24.6443 86.2717 23.8456 85.8992 22.9234C85.5264 22.0003 85.3331 21.0328 85.3331 20.0168C85.3331 18.9666 85.5267 17.9978 85.9005 17.0565C86.2725 16.1201 86.7919 15.3252 87.4324 14.6371C88.0864 13.9517 88.84 13.4101 89.7108 13.023C90.5815 12.636 91.4935 12.435 92.5 12.435C93.5069 12.435 94.4488 12.6361 95.3155 13.0204C96.1864 13.4307 96.9529 13.9601 97.5812 14.6346C98.2172 15.3173 98.7248 16.1288 99.1008 17.0597C99.4701 17.9742 99.6508 18.9911 99.6508 20.0168C99.6508 21.0389 99.4714 22.0059 99.1008 22.9234Z" fill="#001B94" stroke="#001B94" stroke-width="1.2"/>
<ellipse cx="104.407" cy="2.53845" rx="1.66102" ry="1.61538" fill="#52682D"/>
<ellipse cx="108.915" cy="1.61538" rx="1.66102" ry="1.61538" fill="#39D200"/>
<ellipse cx="109.627" cy="6" rx="1.66102" ry="1.61538" fill="#EE1C25"/>
<ellipse cx="110.339" cy="10.3846" rx="1.66102" ry="1.61538" fill="#001B94"/>
<ellipse cx="99.8983" cy="3.46155" rx="1.66102" ry="1.61538" fill="#0188B2"/>
</svg>
