<svg width="327" height="171" viewBox="0 0 327 171" fill="none" xmlns="http://www.w3.org/2000/svg">
<g clip-path="url(#clip0_110_1292)">
<path d="M268.465 63.8355L255.508 73.5847L255.222 70.6576L263.248 58.3027L268.465 63.8355Z" fill="#324C8E"/>
<path d="M252.839 53.8416L291.082 78.1976C292.881 79.3424 295.261 78.2657 295.59 76.1588L306.759 4.38112C307.123 2.03831 304.718 0.241378 302.575 1.255L231.507 34.8854C229.405 35.88 229.223 38.7998 231.183 40.0504L252.837 53.8419" fill="#4E64EE"/>
<path d="M297.812 12.0215L263.6 60.6879L255.683 73.3812C255.071 74.2742 253.676 73.8658 253.642 72.7852L253.052 53.9684L297.812 12.0215Z" fill="#3554B7"/>
<path d="M21.6895 170.489C21.6333 170.499 21.5753 170.5 21.5166 170.488C21.2575 170.441 21.0872 170.191 21.1347 169.932C21.2236 169.45 21.3198 168.964 21.4174 168.486C21.4699 168.228 21.7222 168.063 21.9803 168.114C22.2387 168.167 22.4047 168.419 22.3522 168.677C22.255 169.149 22.1611 169.63 22.0726 170.105C22.035 170.304 21.8782 170.452 21.6908 170.487L21.6895 170.489ZM124.975 151.085C124.966 151.087 124.956 151.089 124.946 151.091C124.296 151.17 123.631 151.223 122.968 151.252C122.705 151.263 122.483 151.059 122.472 150.796C122.461 150.533 122.664 150.311 122.928 150.3C123.566 150.273 124.207 150.221 124.831 150.145C125.092 150.113 125.33 150.3 125.361 150.56C125.392 150.812 125.221 151.042 124.976 151.087L124.975 151.085ZM129.717 150.016C129.487 150.058 129.255 149.927 129.179 149.699C129.096 149.449 129.23 149.179 129.48 149.096C130.076 148.897 130.677 148.67 131.266 148.422C131.509 148.321 131.788 148.434 131.89 148.677C131.991 148.92 131.878 149.2 131.635 149.301C131.023 149.557 130.4 149.793 129.779 150C129.757 150.007 129.736 150.013 129.714 150.017L129.717 150.016ZM118.178 151.01C118.13 151.019 118.08 151.02 118.029 151.014C117.386 150.927 116.729 150.817 116.079 150.688C115.821 150.637 115.653 150.385 115.704 150.127C115.755 149.869 116.005 149.702 116.265 149.753C116.897 149.878 117.534 149.984 118.156 150.068C118.416 150.104 118.599 150.343 118.565 150.603C118.537 150.812 118.376 150.972 118.179 151.009L118.178 151.01ZM135.835 147.054C135.651 147.088 135.456 147.011 135.349 146.843C135.206 146.622 135.27 146.326 135.491 146.184C136.02 145.842 136.552 145.475 137.068 145.094C137.28 144.938 137.579 144.982 137.734 145.194C137.891 145.406 137.846 145.705 137.634 145.86C137.102 146.254 136.555 146.632 136.006 146.985C135.953 147.019 135.894 147.043 135.835 147.054ZM111.56 149.42C111.482 149.434 111.401 149.43 111.321 149.402C110.71 149.195 110.088 148.967 109.472 148.726C109.226 148.63 109.106 148.354 109.201 148.109C109.297 147.863 109.573 147.743 109.819 147.838C110.421 148.074 111.03 148.296 111.628 148.5C111.878 148.584 112.01 148.855 111.925 149.104C111.868 149.273 111.724 149.389 111.56 149.42ZM164.44 138.829C164.183 138.876 163.933 138.706 163.885 138.446C163.838 138.187 164.008 137.939 164.268 137.891C164.892 137.776 165.527 137.643 166.155 137.5C166.409 137.442 166.666 137.601 166.725 137.859C166.783 138.116 166.624 138.371 166.366 138.43C165.725 138.577 165.078 138.711 164.441 138.83L164.44 138.829ZM159.615 139.453C159.598 139.456 159.581 139.459 159.563 139.459C159.175 139.487 158.781 139.51 158.391 139.527C158.125 139.539 157.859 139.547 157.593 139.553C157.33 139.559 157.112 139.349 157.107 139.087C157.1 138.823 157.309 138.605 157.573 138.6C157.832 138.595 158.09 138.586 158.35 138.575C158.731 138.558 159.115 138.537 159.494 138.509C159.757 138.49 159.984 138.689 160.004 138.95C160.021 139.194 159.851 139.41 159.615 139.453ZM141.127 142.773C140.977 142.8 140.817 142.756 140.702 142.64C140.517 142.452 140.518 142.15 140.705 141.965C141.154 141.519 141.601 141.053 142.033 140.576C142.21 140.38 142.511 140.365 142.707 140.542C142.903 140.719 142.918 141.02 142.741 141.216C142.298 141.704 141.839 142.185 141.377 142.643C141.306 142.712 141.219 142.756 141.128 142.773L141.127 142.773ZM171.035 137.122C170.804 137.165 170.573 137.032 170.497 136.803C170.415 136.553 170.551 136.285 170.801 136.201C171.402 136.003 172.016 135.79 172.626 135.568C172.874 135.479 173.146 135.605 173.237 135.853C173.327 136.099 173.2 136.373 172.954 136.464C172.333 136.691 171.71 136.908 171.099 137.107C171.077 137.115 171.057 137.12 171.036 137.124L171.035 137.122ZM23.103 164.32C23.0343 164.333 22.9627 164.33 22.8913 164.311C22.6378 164.241 22.4879 163.98 22.5572 163.725C22.73 163.094 22.9137 162.461 23.1016 161.841C23.178 161.59 23.4441 161.447 23.6959 161.525C23.9474 161.602 24.0901 161.868 24.0121 162.119C23.8259 162.73 23.6454 163.355 23.4758 163.977C23.4254 164.159 23.2764 164.288 23.103 164.32ZM152.809 139.341C152.766 139.349 152.719 139.351 152.673 139.347C152.024 139.277 151.365 139.192 150.718 139.09C150.459 139.049 150.28 138.806 150.321 138.546C150.362 138.287 150.605 138.108 150.865 138.149C151.497 138.247 152.139 138.332 152.773 138.398C153.035 138.426 153.225 138.66 153.197 138.922C153.174 139.136 153.012 139.303 152.809 139.341ZM177.384 134.644C177.174 134.683 176.955 134.575 176.864 134.37C176.757 134.13 176.863 133.849 177.103 133.74C177.677 133.482 178.268 133.209 178.859 132.925C179.096 132.812 179.381 132.911 179.494 133.149C179.608 133.387 179.508 133.671 179.271 133.785C178.673 134.071 178.075 134.349 177.493 134.61C177.457 134.626 177.42 134.638 177.384 134.644ZM105.293 146.76C105.195 146.778 105.089 146.765 104.993 146.717C104.421 146.429 103.837 146.122 103.253 145.805C103.022 145.68 102.936 145.39 103.062 145.159C103.187 144.927 103.476 144.842 103.708 144.967C104.282 145.279 104.858 145.58 105.42 145.864C105.655 145.982 105.75 146.269 105.632 146.504C105.562 146.642 105.433 146.732 105.293 146.758L105.293 146.76ZM183.484 131.601C183.287 131.638 183.08 131.547 182.98 131.36C182.854 131.128 182.939 130.839 183.171 130.714C183.723 130.414 184.292 130.097 184.866 129.772C185.095 129.643 185.386 129.723 185.516 129.951C185.645 130.179 185.564 130.47 185.337 130.601C184.759 130.929 184.183 131.248 183.627 131.551C183.581 131.575 183.534 131.592 183.486 131.601L183.484 131.601ZM146.124 138.042C146.054 138.055 145.981 138.052 145.908 138.032C145.278 137.852 144.645 137.656 144.026 137.445C143.776 137.36 143.643 137.091 143.727 136.841C143.812 136.591 144.082 136.458 144.331 136.542C144.569 136.623 144.81 136.701 145.05 136.778C145.406 136.265 145.755 135.739 146.087 135.21C146.227 134.987 146.521 134.92 146.744 135.059C146.967 135.199 147.034 135.494 146.894 135.716C146.61 136.171 146.312 136.625 146.008 137.068C146.061 137.085 146.115 137.099 146.168 137.115C146.422 137.188 146.568 137.451 146.496 137.704C146.446 137.884 146.296 138.01 146.124 138.042ZM189.378 128.177C189.189 128.211 188.992 128.13 188.885 127.957C188.747 127.732 188.818 127.44 189.042 127.302C189.595 126.962 190.146 126.62 190.693 126.277C190.916 126.136 191.21 126.205 191.351 126.427C191.49 126.65 191.423 126.944 191.201 127.085C190.65 127.43 190.097 127.774 189.541 128.116C189.491 128.148 189.435 128.168 189.378 128.178L189.378 128.177ZM25.2363 157.851C25.152 157.867 25.0636 157.86 24.9766 157.826C24.7313 157.731 24.6109 157.455 24.7062 157.209C24.9454 156.597 25.1948 155.987 25.4505 155.394C25.5545 155.152 25.8344 155.041 26.0764 155.145C26.3185 155.249 26.4298 155.529 26.3258 155.771C26.0749 156.355 25.8287 156.956 25.5941 157.558C25.5315 157.718 25.3928 157.824 25.2366 157.853L25.2363 157.851ZM99.3693 143.387C99.2568 143.408 99.1353 143.388 99.031 143.322C98.5055 142.994 97.9658 142.651 97.3814 142.276C97.1599 142.134 97.0958 141.839 97.2391 141.617C97.3808 141.396 97.6758 141.332 97.8976 141.475C98.4786 141.849 99.0143 142.188 99.5364 142.515C99.7592 142.655 99.8277 142.948 99.6881 143.172C99.6147 143.29 99.4977 143.365 99.3696 143.389L99.3693 143.387ZM139.759 135.624C139.664 135.642 139.562 135.63 139.466 135.585C138.876 135.301 138.286 135 137.712 134.687C137.48 134.562 137.395 134.272 137.52 134.041C137.645 133.81 137.935 133.724 138.166 133.849C138.728 134.154 139.304 134.449 139.88 134.725C140.117 134.84 140.216 135.124 140.103 135.361C140.035 135.504 139.904 135.596 139.759 135.623L139.759 135.624ZM195.132 124.516C194.949 124.55 194.754 124.474 194.646 124.308C194.502 124.088 194.564 123.792 194.784 123.648C195.326 123.293 195.868 122.938 196.409 122.58C196.629 122.434 196.925 122.495 197.07 122.713C197.215 122.932 197.155 123.229 196.937 123.374C196.396 123.734 195.851 124.091 195.308 124.447C195.253 124.482 195.194 124.505 195.133 124.516L195.132 124.516ZM148.917 131.665C148.822 131.682 148.721 131.672 148.626 131.626C148.389 131.513 148.288 131.228 148.401 130.991C148.674 130.417 148.939 129.826 149.188 129.234C149.29 128.992 149.57 128.878 149.812 128.98C150.053 129.083 150.168 129.362 150.065 129.604C149.81 130.209 149.539 130.813 149.26 131.401C149.191 131.545 149.061 131.638 148.916 131.665L148.917 131.665ZM200.796 120.725C200.617 120.758 200.426 120.687 200.317 120.526C200.169 120.309 200.222 120.012 200.44 119.863C200.975 119.497 201.508 119.129 202.041 118.759C202.257 118.61 202.555 118.663 202.704 118.879C202.854 119.096 202.801 119.393 202.584 119.543C202.05 119.914 201.516 120.282 200.978 120.65C200.92 120.689 200.859 120.713 200.795 120.725L200.796 120.725ZM93.6551 139.671C93.538 139.693 93.4128 139.671 93.306 139.6C92.7651 139.241 92.2244 138.883 91.6821 138.526C91.4616 138.381 91.4006 138.085 91.546 137.866C91.6911 137.646 91.987 137.587 92.2057 137.73C92.748 138.088 93.2905 138.446 93.8315 138.805C94.0505 138.951 94.1114 139.246 93.966 139.465C93.8914 139.577 93.7785 139.648 93.6551 139.671ZM28.0872 151.665C27.9841 151.684 27.8747 151.669 27.7745 151.616C27.5431 151.491 27.4559 151.202 27.5812 150.97C27.8918 150.394 28.2167 149.818 28.5464 149.258C28.6807 149.031 28.9719 148.955 29.1985 149.089C29.4249 149.222 29.5014 149.515 29.3672 149.741C29.0436 150.29 28.7247 150.856 28.4202 151.421C28.3493 151.554 28.2244 151.638 28.0869 151.664L28.0872 151.665ZM133.901 132.153C133.778 132.175 133.647 132.15 133.538 132.071C133.003 131.688 132.476 131.287 131.966 130.88C131.761 130.716 131.727 130.415 131.891 130.21C132.055 130.006 132.356 129.971 132.561 130.135C133.057 130.533 133.573 130.924 134.093 131.297C134.306 131.45 134.355 131.748 134.202 131.962C134.128 132.066 134.019 132.131 133.901 132.153ZM206.377 116.812C206.201 116.845 206.015 116.775 205.903 116.622C205.749 116.408 205.799 116.109 206.013 115.957C206.539 115.579 207.065 115.199 207.589 114.818C207.803 114.663 208.101 114.711 208.255 114.924C208.409 115.136 208.362 115.435 208.15 115.589C207.624 115.972 207.097 116.352 206.569 116.731C206.511 116.773 206.445 116.801 206.378 116.814L206.377 116.812ZM151.349 125.305C151.277 125.319 151.202 125.316 151.127 125.293C150.874 125.218 150.73 124.954 150.804 124.701C150.985 124.088 151.156 123.464 151.31 122.843C151.373 122.588 151.631 122.432 151.887 122.496C152.143 122.559 152.298 122.817 152.234 123.073C152.077 123.708 151.902 124.347 151.717 124.973C151.664 125.15 151.517 125.274 151.345 125.306L151.349 125.305ZM87.9307 135.97C87.8183 135.99 87.6983 135.97 87.5943 135.906C87.0274 135.555 86.4695 135.218 85.935 134.903C85.7084 134.769 85.6337 134.477 85.7664 134.251C85.9007 134.024 86.1922 133.95 86.4185 134.082C86.9567 134.4 87.5217 134.74 88.0942 135.095C88.3183 135.233 88.387 135.527 88.249 135.751C88.1756 135.87 88.0573 135.946 87.9292 135.97L87.9307 135.97ZM211.871 112.778C211.699 112.809 211.516 112.745 211.403 112.596C211.245 112.386 211.289 112.087 211.498 111.929C212.016 111.54 212.534 111.149 213.049 110.757C213.259 110.597 213.557 110.637 213.717 110.847C213.876 111.056 213.835 111.355 213.627 111.514C213.11 111.908 212.591 112.3 212.07 112.691C212.009 112.736 211.94 112.767 211.872 112.779L211.871 112.778ZM31.7176 145.905C31.5926 145.928 31.4584 145.901 31.3484 145.822C31.1355 145.665 31.0902 145.367 31.2467 145.156C31.6354 144.627 32.0378 144.102 32.4451 143.596C32.6093 143.391 32.9101 143.358 33.1148 143.522C33.3195 143.687 33.3523 143.987 33.1881 144.192C32.79 144.687 32.3955 145.202 32.0145 145.72C31.9394 145.821 31.8316 145.884 31.716 145.906L31.7176 145.905ZM128.762 127.689C128.609 127.718 128.445 127.67 128.331 127.549C127.876 127.073 127.432 126.579 127.009 126.082C126.838 125.881 126.862 125.581 127.063 125.41C127.262 125.239 127.564 125.265 127.735 125.464C128.147 125.947 128.579 126.428 129.02 126.891C129.202 127.082 129.195 127.383 129.004 127.564C128.933 127.63 128.849 127.672 128.762 127.688L128.762 127.689ZM217.277 108.626C217.109 108.657 216.929 108.596 216.815 108.451C216.653 108.243 216.688 107.944 216.896 107.782C217.405 107.381 217.914 106.979 218.421 106.575C218.628 106.411 218.927 106.447 219.091 106.652C219.255 106.858 219.221 107.158 219.014 107.322C218.506 107.727 217.995 108.13 217.484 108.531C217.422 108.58 217.35 108.611 217.277 108.624L217.277 108.626ZM81.9903 132.629C81.8919 132.647 81.7877 132.634 81.6919 132.587C81.1069 132.296 80.5195 132.018 79.9486 131.76C79.7091 131.653 79.6022 131.37 79.7114 131.131C79.8191 130.891 80.1014 130.784 80.3412 130.893C80.9226 131.156 81.5192 131.44 82.1163 131.736C82.3526 131.852 82.4476 132.14 82.3309 132.374C82.2615 132.515 82.1327 132.605 81.9906 132.631L81.9903 132.629ZM36.1523 140.742C36.0024 140.77 35.8423 140.725 35.7275 140.61C35.5413 140.423 35.5424 140.123 35.7293 139.936C36.1949 139.474 36.6744 139.018 37.1558 138.58C37.351 138.404 37.6524 138.418 37.8289 138.613C38.0054 138.808 37.9915 139.109 37.7963 139.286C37.3259 139.713 36.8556 140.159 36.4013 140.612C36.3305 140.683 36.2432 140.727 36.1526 140.744L36.1523 140.742ZM152.775 118.645C152.726 118.654 152.675 118.655 152.624 118.649C152.363 118.613 152.18 118.374 152.216 118.112C152.303 117.479 152.377 116.835 152.435 116.198C152.46 115.937 152.691 115.744 152.954 115.768C153.215 115.793 153.408 116.025 153.383 116.286C153.323 116.937 153.248 117.595 153.159 118.242C153.13 118.451 152.97 118.609 152.773 118.645L152.775 118.645ZM222.59 104.355C222.425 104.386 222.249 104.327 222.135 104.189C221.968 103.985 221.997 103.684 222.2 103.518C222.701 103.106 223.2 102.694 223.699 102.279C223.9 102.109 224.201 102.138 224.369 102.341C224.537 102.544 224.51 102.843 224.307 103.012C223.807 103.427 223.307 103.842 222.804 104.254C222.74 104.307 222.665 104.341 222.589 104.355L222.59 104.355ZM124.575 122.322C124.389 122.356 124.192 122.278 124.085 122.107C123.734 121.552 123.396 120.981 123.079 120.408C122.951 120.178 123.034 119.888 123.264 119.76C123.496 119.631 123.784 119.716 123.912 119.946C124.222 120.502 124.55 121.059 124.892 121.598C125.033 121.821 124.966 122.116 124.743 122.255C124.69 122.29 124.634 122.311 124.576 122.322L124.575 122.322ZM75.6709 130.099C75.6006 130.111 75.5274 130.109 75.4542 130.088C74.8475 129.916 74.2206 129.757 73.5925 129.617C73.3348 129.56 73.1732 129.305 73.231 129.049C73.2888 128.793 73.543 128.63 73.7991 128.688C74.4458 128.832 75.0895 128.994 75.7136 129.173C75.9674 129.244 76.1129 129.508 76.0418 129.762C75.991 129.943 75.8415 130.069 75.6696 130.1L75.6709 130.099ZM41.3524 136.348C41.1759 136.381 40.9888 136.312 40.8777 136.157C40.7252 135.942 40.7752 135.644 40.9894 135.492C41.5219 135.112 42.0705 134.742 42.6208 134.388C42.8416 134.246 43.1378 134.311 43.2787 134.532C43.4196 134.753 43.3562 135.049 43.1351 135.19C42.5978 135.534 42.0623 135.898 41.5411 136.268C41.4826 136.31 41.418 136.336 41.3508 136.349L41.3524 136.348ZM227.81 99.9709C227.649 100.001 227.476 99.9468 227.362 99.8127C227.192 99.6132 227.214 99.312 227.413 99.1411C227.906 98.7193 228.396 98.2947 228.884 97.8703C229.084 97.6979 229.385 97.7184 229.557 97.9176C229.729 98.1168 229.709 98.4177 229.51 98.5901C229.02 99.0163 228.528 99.4412 228.034 99.8649C227.967 99.9225 227.89 99.9577 227.81 99.9724L227.81 99.9709ZM68.9746 128.879C68.9324 128.887 68.8891 128.889 68.8449 128.885C68.2112 128.829 67.5654 128.787 66.9243 128.761C66.6606 128.75 66.4568 128.529 66.468 128.265C66.4791 128.002 66.7 127.798 66.9637 127.809C67.6194 127.835 68.2814 127.878 68.93 127.936C69.1926 127.959 69.3857 128.191 69.3627 128.452C69.3432 128.671 69.1792 128.842 68.9746 128.879ZM47.2086 132.877C47.0024 132.915 46.7899 132.814 46.6938 132.617C46.579 132.38 46.6784 132.095 46.9141 131.98C47.5012 131.696 48.1029 131.42 48.7065 131.164C48.9477 131.061 49.2282 131.173 49.3326 131.415C49.4355 131.658 49.3238 131.937 49.0814 132.041C48.4931 132.293 47.9031 132.562 47.3306 132.839C47.2905 132.857 47.2495 132.871 47.2088 132.879L47.2086 132.877ZM62.1656 128.845C62.1485 128.848 62.1328 128.851 62.1151 128.851C61.4782 128.901 60.8345 128.966 60.1997 129.044C59.939 129.076 59.6998 128.891 59.6679 128.63C59.636 128.37 59.8219 128.134 60.0819 128.099C60.7308 128.018 61.3904 127.951 62.0416 127.901C62.3043 127.88 62.5328 128.077 62.5537 128.339C62.573 128.584 62.4031 128.801 62.1656 128.845ZM53.5593 130.425C53.3218 130.468 53.0857 130.326 53.0164 130.09C52.9423 129.837 53.0874 129.573 53.3387 129.499C53.9668 129.314 54.6055 129.143 55.2406 128.988C55.496 128.928 55.7538 129.082 55.8169 129.337C55.8801 129.592 55.7225 129.85 55.4677 129.913C54.8479 130.064 54.2217 130.233 53.6087 130.412C53.5918 130.417 53.5765 130.421 53.5608 130.424L53.5593 130.425ZM153.187 111.846C153.16 111.851 153.135 111.854 153.108 111.854C152.845 111.857 152.629 111.647 152.624 111.384C152.614 110.745 152.592 110.098 152.555 109.459C152.54 109.197 152.741 108.972 153.003 108.956C153.266 108.942 153.491 109.142 153.506 109.405C153.544 110.057 153.567 110.719 153.576 111.372C153.579 111.607 153.411 111.806 153.187 111.847L153.187 111.846ZM121.518 116.241C121.298 116.282 121.072 116.162 120.988 115.944C120.751 115.334 120.528 114.708 120.325 114.087C120.243 113.837 120.379 113.568 120.629 113.486C120.881 113.406 121.148 113.541 121.229 113.791C121.427 114.397 121.644 115.006 121.875 115.6C121.97 115.846 121.848 116.122 121.602 116.217C121.574 116.229 121.544 116.236 121.516 116.241L121.518 116.241ZM232.933 95.4737C232.775 95.5027 232.606 95.4516 232.492 95.324C232.315 95.1288 232.332 94.8269 232.528 94.6519C233.01 94.2191 233.49 93.7849 233.971 93.3492C234.166 93.1727 234.467 93.1866 234.644 93.3818C234.82 93.577 234.806 93.8784 234.611 94.0548C234.13 94.4924 233.648 94.9284 233.164 95.3616C233.096 95.4226 233.016 95.46 232.933 95.4752L232.933 95.4737ZM237.954 90.8643C237.799 90.8928 237.635 90.8439 237.519 90.7216C237.339 90.5304 237.349 90.2281 237.54 90.0475C238.013 89.6035 238.485 89.1596 238.955 88.7128C239.146 88.5322 239.448 88.5396 239.628 88.7308C239.809 88.922 239.802 89.2238 239.61 89.4044C239.139 89.8514 238.666 90.2988 238.192 90.743C238.123 90.8074 238.04 90.8485 237.953 90.8646L237.954 90.8643ZM152.575 105.064C152.575 105.064 152.569 105.065 152.567 105.065C152.307 105.108 152.062 104.934 152.019 104.674C151.978 104.427 151.934 104.18 151.889 103.935C151.818 103.551 151.742 103.163 151.66 102.781C151.606 102.522 151.769 102.269 152.028 102.215C152.288 102.156 152.537 102.325 152.593 102.583C152.676 102.973 152.754 103.369 152.826 103.762C152.873 104.014 152.917 104.266 152.959 104.518C153.002 104.775 152.83 105.018 152.575 105.065L152.575 105.064ZM119.665 109.691C119.405 109.739 119.158 109.568 119.11 109.309C118.991 108.665 118.888 108.009 118.804 107.359C118.77 107.097 118.959 106.859 119.216 106.825C119.476 106.791 119.715 106.975 119.75 107.236C119.833 107.869 119.933 108.508 120.049 109.136C120.096 109.395 119.926 109.643 119.666 109.691L119.665 109.691ZM242.873 86.1447C242.723 86.1724 242.561 86.1279 242.446 86.0102C242.261 85.823 242.265 85.5202 242.452 85.3355C242.915 84.8821 243.377 84.4271 243.837 83.9693C244.024 83.7846 244.326 83.7854 244.511 83.9711C244.697 84.158 244.694 84.4589 244.509 84.6449C244.047 85.103 243.585 85.5596 243.12 86.0152C243.051 86.0845 242.963 86.1265 242.874 86.1429L242.873 86.1447ZM247.686 81.3186C247.539 81.3456 247.382 81.3037 247.267 81.1907C247.078 81.0075 247.074 80.7046 247.259 80.517C247.711 80.0525 248.164 79.5881 248.612 79.121C248.795 78.9322 249.096 78.9252 249.287 79.1082C249.477 79.2911 249.482 79.5922 249.299 79.7825C248.848 80.2502 248.396 80.7178 247.942 81.1826C247.87 81.2556 247.782 81.301 247.688 81.3183L247.686 81.3186ZM150.942 98.4521C150.712 98.4945 150.479 98.3613 150.403 98.1331C150.201 97.5244 149.983 96.9136 149.757 96.3189C149.663 96.0729 149.787 95.7981 150.033 95.7028C150.277 95.6093 150.553 95.7312 150.649 95.9785C150.881 96.5867 151.104 97.2094 151.311 97.8334C151.394 98.083 151.258 98.3535 151.008 98.4351C150.987 98.4422 150.965 98.4478 150.943 98.4519L150.942 98.4521ZM119.063 102.91C119.033 102.916 119.004 102.918 118.974 102.919C118.71 102.917 118.498 102.703 118.5 102.439C118.503 101.783 118.525 101.12 118.562 100.467C118.579 100.204 118.803 100.003 119.066 100.019C119.329 100.035 119.529 100.26 119.514 100.522C119.476 101.158 119.457 101.804 119.453 102.443C119.452 102.675 119.284 102.868 119.064 102.908L119.063 102.91ZM148.293 92.1779C148.093 92.2147 147.883 92.1194 147.784 91.9294C147.487 91.3607 147.174 90.7933 146.855 90.2433C146.722 90.0157 146.799 89.7237 147.027 89.5914C147.254 89.459 147.546 89.536 147.679 89.7636C148.007 90.3249 148.327 90.9055 148.63 91.4892C148.752 91.7219 148.661 92.01 148.427 92.1323C148.384 92.1547 148.338 92.1696 148.293 92.1779ZM119.743 96.1373C119.685 96.148 119.624 96.148 119.564 96.1365C119.306 96.0855 119.138 95.8338 119.189 95.5757C119.317 94.9318 119.465 94.2845 119.629 93.6518C119.695 93.3973 119.955 93.2445 120.21 93.3089C120.465 93.375 120.618 93.6343 120.553 93.8901C120.394 94.5057 120.25 95.1363 120.125 95.7618C120.085 95.9581 119.929 96.1031 119.743 96.1373ZM144.626 86.4418C144.459 86.4726 144.282 86.4132 144.169 86.2726C143.762 85.7676 143.34 85.2818 142.915 84.832C142.734 84.6408 142.741 84.3391 142.933 84.1585C143.124 83.9779 143.426 83.9852 143.606 84.1765C144.05 84.6455 144.488 85.1494 144.911 85.6738C145.076 85.8792 145.043 86.1793 144.839 86.3444C144.776 86.3964 144.703 86.4277 144.628 86.4415L144.626 86.4418ZM121.756 89.6388C121.664 89.6557 121.567 89.6462 121.474 89.6052C121.234 89.4975 121.128 89.2152 121.235 88.9757C121.509 88.368 121.809 87.7701 122.126 87.1998C122.253 86.9696 122.543 86.8871 122.773 87.0142C123.003 87.1414 123.086 87.4315 122.959 87.6616C122.654 88.2087 122.366 88.7835 122.103 89.3664C122.037 89.5144 121.903 89.6117 121.755 89.639L121.756 89.6388ZM139.6 81.8833C139.489 81.9037 139.371 81.8851 139.266 81.8221C138.716 81.4889 138.156 81.1997 137.599 80.9632C137.357 80.8608 137.243 80.5815 137.346 80.3379C137.449 80.0961 137.728 79.9816 137.972 80.0853C138.571 80.3399 139.174 80.6503 139.763 81.0085C139.989 81.1446 140.059 81.4385 139.923 81.6639C139.85 81.7839 139.731 81.8607 139.602 81.8845L139.6 81.8833ZM125.481 83.9633C125.336 83.9901 125.182 83.9491 125.066 83.8396C124.876 83.6582 124.867 83.3562 125.05 83.1658C125.524 82.6683 126.019 82.2104 126.525 81.8022C126.731 81.6368 127.031 81.6687 127.196 81.874C127.361 82.0793 127.329 82.3792 127.124 82.5446C126.65 82.9259 126.185 83.3572 125.741 83.8234C125.67 83.8995 125.578 83.9455 125.483 83.9631L125.481 83.9633ZM133.125 80.1306C133.105 80.1343 133.086 80.1377 133.065 80.1384C133.019 80.1405 132.974 80.1438 132.928 80.1475C132.357 80.1881 131.788 80.2801 131.236 80.4222C130.979 80.4856 130.722 80.3343 130.656 80.0785C130.591 79.8239 130.743 79.5648 130.999 79.4983C131.607 79.3427 132.234 79.2401 132.861 79.1957C132.912 79.1927 132.961 79.1885 133.012 79.1855C133.274 79.1711 133.5 79.3717 133.515 79.634C133.529 79.8769 133.359 80.0858 133.126 80.1287L133.125 80.1306Z" fill="#3554B7"/>
</g>
<defs>
<clipPath id="clip0_110_1292">
<rect width="311.098" height="115.63" fill="white" transform="translate(0.265625 56.8594) rotate(-10.4413)"/>
</clipPath>
</defs>
</svg>
