<?xml version="1.0" encoding="utf-8"?>
<!-- Generator: Adobe Illustrator 27.4.1, SVG Export Plug-In . SVG Version: 6.00 Build 0)  -->
<svg version="1.1" id="Layer_1" xmlns="http://www.w3.org/2000/svg" xmlns:xlink="http://www.w3.org/1999/xlink" x="0px" y="0px"
	 viewBox="0 0 100 100" style="enable-background:new 0 0 100 100;" xml:space="preserve">
<style type="text/css">
	.st0{fill:url(#SVGID_1_);}
	.st1{fill:url(#SVGID_00000040570003421554173630000000855750874750236557_);}
	.st2{fill:url(#SVGID_00000096040069834415460650000000151700357106594469_);}
	.st3{fill:url(#SVGID_00000006683047593966672610000014155781666680190352_);}
	.st4{fill:url(#SVGID_00000116923067764970295530000014865232336087491511_);}
	.st5{fill:url(#SVGID_00000178197875576430832410000006547048938919349127_);}
	.st6{fill:url(#SVGID_00000099648743573103241120000017306769936206614945_);}
</style>
<g>
	<g>
		<g>
			<g>
				<g>
					<linearGradient id="SVGID_1_" gradientUnits="userSpaceOnUse" x1="7.5505" y1="8.3226" x2="91.125" y2="91.7269">
						<stop  offset="0" style="stop-color:#E92429"/>
						<stop  offset="0.2" style="stop-color:#DC222B"/>
						<stop  offset="0.3" style="stop-color:#BA1F3D"/>
						<stop  offset="0.6" style="stop-color:#821C55"/>
						<stop  offset="0.8" style="stop-color:#372D78"/>
						<stop  offset="1" style="stop-color:#2A3784"/>
					</linearGradient>
					<path class="st0" d="M39.5,46.5c-2.5-2.6-5.1-5.1-7.6-7.7c0,0.5,0,0.9,0,1.4c2.5-2.6,5.1-5.1,7.6-7.7c0.9-0.9-0.5-2.3-1.4-1.4
						c-2.5,2.6-5.1,5.1-7.6,7.7c-0.4,0.4-0.4,1,0,1.4c2.5,2.6,5.1,5.1,7.6,7.7C39,48.8,40.4,47.4,39.5,46.5L39.5,46.5z"/>
				</g>
				<g>
					
						<linearGradient id="SVGID_00000116227973843586884690000013818953115431867280_" gradientUnits="userSpaceOnUse" x1="18.7684" y1="-2.9181" x2="102.3428" y2="80.4861">
						<stop  offset="0" style="stop-color:#E92429"/>
						<stop  offset="0.2" style="stop-color:#DC222B"/>
						<stop  offset="0.3" style="stop-color:#BA1F3D"/>
						<stop  offset="0.6" style="stop-color:#821C55"/>
						<stop  offset="0.8" style="stop-color:#372D78"/>
						<stop  offset="1" style="stop-color:#2A3784"/>
					</linearGradient>
					<path style="fill:url(#SVGID_00000116227973843586884690000013818953115431867280_);" d="M60.5,32.5c2.5,2.6,5.1,5.1,7.6,7.7
						c0-0.5,0-0.9,0-1.4c-2.5,2.6-5.1,5.1-7.6,7.7c-0.9,0.9,0.5,2.3,1.4,1.4c2.5-2.6,5.1-5.1,7.6-7.7c0.4-0.4,0.4-1,0-1.4
						c-2.5-2.6-5.1-5.1-7.6-7.7C61,30.1,59.6,31.5,60.5,32.5L60.5,32.5z"/>
				</g>
				<g>
					
						<linearGradient id="SVGID_00000142162501186876313060000015308774514615385772_" gradientUnits="userSpaceOnUse" x1="13.1594" y1="2.7023" x2="96.7339" y2="86.1065">
						<stop  offset="0" style="stop-color:#E92429"/>
						<stop  offset="0.2" style="stop-color:#DC222B"/>
						<stop  offset="0.3" style="stop-color:#BA1F3D"/>
						<stop  offset="0.6" style="stop-color:#821C55"/>
						<stop  offset="0.8" style="stop-color:#372D78"/>
						<stop  offset="1" style="stop-color:#2A3784"/>
					</linearGradient>
					<path style="fill:url(#SVGID_00000142162501186876313060000015308774514615385772_);" d="M45.5,52.6c3.1-7.3,6.2-14.7,9.3-22
						c0.4-1.1,0.9-2.1,1.3-3.2c0.5-1.2-1.2-2.2-1.7-1c-3.1,7.3-6.2,14.7-9.3,22c-0.4,1.1-0.9,2.1-1.3,3.2
						C43.3,52.7,45,53.7,45.5,52.6L45.5,52.6z"/>
				</g>
			</g>
			<g>
				<g>
					<g>
						<g>
							
								<linearGradient id="SVGID_00000023967990104567039270000018375447315542152099_" gradientUnits="userSpaceOnUse" x1="13.148" y1="2.7137" x2="96.7225" y2="86.1179">
								<stop  offset="0" style="stop-color:#E92429"/>
								<stop  offset="0.2" style="stop-color:#DC222B"/>
								<stop  offset="0.3" style="stop-color:#BA1F3D"/>
								<stop  offset="0.6" style="stop-color:#821C55"/>
								<stop  offset="0.8" style="stop-color:#372D78"/>
								<stop  offset="1" style="stop-color:#2A3784"/>
							</linearGradient>
							<path style="fill:url(#SVGID_00000023967990104567039270000018375447315542152099_);" d="M80.1,60.9c-5.1,0-10.3,0-15.4,0
								c-9.5,0-19.1,0-28.6,0c-3.8,0-7.5,0-11.3,0c-1.6,0-3.3,0.1-4.9,0c-2.7-0.2-2-4.2-2-6.2c0-4.3,0-8.6,0-12.9
								c0-4.7,0-9.4,0-14.1c0-2.5-0.1-5,0-7.5c0.1-2.5,2.8-2.1,4.5-2.1c3.2,0,6.4,0,9.6,0c9.5,0,19,0,28.5,0c6.4,0,12.7-0.1,19.1,0
								c1.3,0,2.3,0.5,2.4,2c0.1,0.7,0,1.4,0,2.1c0,3.8,0,7.6,0,11.4c0,8.1,0,16.2,0,24.4C82.1,59.3,81.9,60.8,80.1,60.9
								c-1.3,0.1-1.3,2.1,0,2c2.3-0.1,3.9-1.8,4-4.2c0-1,0-2,0-3c0-4.3,0-8.6,0-12.9c0-7.5,0.3-15.1,0-22.7c-0.1-2.3-1.7-3.9-4-4
								c-0.5,0-1.1,0-1.6,0c-3.1,0-6.2,0-9.2,0c-9.8,0-19.6,0-29.5,0c-6.5,0-13.1-0.1-19.6,0c-1.7,0-3.3,0.8-4,2.5
								c-0.4,0.9-0.3,1.9-0.3,2.8c0,3.7,0,7.5,0,11.2c0,8.5,0,17,0,25.4c0,1.4,0.1,2.7,1.2,3.7c0.9,0.9,2.1,1.2,3.4,1.2
								c2.5,0,4.9,0,7.4,0c9.5,0,19.1,0,28.6,0c7.5,0,15,0,22.5,0c0.4,0,0.8,0,1.2,0C81.4,62.9,81.4,60.9,80.1,60.9z"/>
						</g>
						<g>
							
								<linearGradient id="SVGID_00000148655409488975339080000001863515461976498577_" gradientUnits="userSpaceOnUse" x1="-4.1939" y1="20.091" x2="79.3806" y2="103.4952">
								<stop  offset="0" style="stop-color:#E92429"/>
								<stop  offset="0.2" style="stop-color:#DC222B"/>
								<stop  offset="0.3" style="stop-color:#BA1F3D"/>
								<stop  offset="0.6" style="stop-color:#821C55"/>
								<stop  offset="0.8" style="stop-color:#372D78"/>
								<stop  offset="1" style="stop-color:#2A3784"/>
							</linearGradient>
							<path style="fill:url(#SVGID_00000148655409488975339080000001863515461976498577_);" d="M80.4,60.9c-10.3,0-20.6,0-31,0
								c-7,0-14,0-21.1,0c-2.2,0-4.4,0-6.6,0c-1.2,0-2.5-0.1-3.6,0.2c-3.2,0.9-4.5,5.1-5.9,7.8C11,71.6,9.6,74.3,8.2,77
								c-0.3,0.7,0.1,1.5,0.9,1.5c9.3,0,18.5,0,27.8,0c14.7,0,29.3,0,44,0c3.4,0,6.8,0,10.2,0c0.8,0,1.2-0.8,0.9-1.5
								c-1.5-2.9-2.9-5.8-4.4-8.7C85.8,65.2,84.6,61.1,80.4,60.9c-1.3-0.1-1.3,1.9,0,2c1.9,0.1,2.7,1.4,3.5,2.9
								c0.8,1.5,1.5,3,2.3,4.5c1.3,2.6,2.6,5.1,3.9,7.7c0.3-0.5,0.6-1,0.9-1.5c-9.3,0-18.5,0-27.8,0c-14.7,0-29.3,0-44,0
								c-3.4,0-6.8,0-10.2,0c0.3,0.5,0.6,1,0.9,1.5c1.1-2.2,2.3-4.5,3.4-6.7c1.1-2.2,2.1-4.7,3.5-6.8c1.1-1.7,2.8-1.6,4.5-1.6
								c2,0,4.1,0,6.1,0c13.8,0,27.6,0,41.5,0c3.8,0,7.7,0,11.5,0C81.7,62.9,81.7,60.9,80.4,60.9z"/>
						</g>
						<g>
							
								<linearGradient id="SVGID_00000038388968217496501400000008193576387000055226_" gradientUnits="userSpaceOnUse" x1="-2.2178" y1="18.1109" x2="81.3566" y2="101.5152">
								<stop  offset="0" style="stop-color:#E92429"/>
								<stop  offset="0.2" style="stop-color:#DC222B"/>
								<stop  offset="0.3" style="stop-color:#BA1F3D"/>
								<stop  offset="0.6" style="stop-color:#821C55"/>
								<stop  offset="0.8" style="stop-color:#372D78"/>
								<stop  offset="1" style="stop-color:#2A3784"/>
							</linearGradient>
							<path style="fill:url(#SVGID_00000038388968217496501400000008193576387000055226_);" d="M43.5,71.2c4.4,0,8.7,0,13.1,0
								c1.3,0,1.3-2,0-2c-4.4,0-8.7,0-13.1,0C42.2,69.2,42.2,71.2,43.5,71.2L43.5,71.2z"/>
						</g>
					</g>
					<g>
						
							<linearGradient id="SVGID_00000180339529844165068350000011955049991668997563_" gradientUnits="userSpaceOnUse" x1="-6.4329" y1="22.3346" x2="77.1415" y2="105.7389">
							<stop  offset="0" style="stop-color:#E92429"/>
							<stop  offset="0.2" style="stop-color:#DC222B"/>
							<stop  offset="0.3" style="stop-color:#BA1F3D"/>
							<stop  offset="0.6" style="stop-color:#821C55"/>
							<stop  offset="0.8" style="stop-color:#372D78"/>
							<stop  offset="1" style="stop-color:#2A3784"/>
						</linearGradient>
						<path style="fill:url(#SVGID_00000180339529844165068350000011955049991668997563_);" d="M90,77.5c0,5.3-7,4.4-10.8,4.4
							c-5.6,0-11.2,0-16.8,0c-13.3,0-26.7,0-40,0c-4,0-12.3,1.2-12.3-4.4c0-1.3-2-1.3-2,0c0,6.5,7,6.4,11.8,6.4c5.7,0,11.4,0,17.1,0
							c13.9,0,27.8,0,41.8,0c5.1,0,13.3,0.7,13.3-6.4C92,76.3,90,76.3,90,77.5L90,77.5z"/>
					</g>
				</g>
			</g>
		</g>
	</g>
</g>
</svg>
