<svg version="1.2" xmlns="http://www.w3.org/2000/svg" viewBox="0 0 711 905" width="711" height="905">
	<title>Expertise-svg</title>
	<defs>
		<clipPath clipPathUnits="userSpaceOnUse" id="cp1">
			<path d="m372.5 303h184v123h-184z"/>
		</clipPath>
		<clipPath clipPathUnits="userSpaceOnUse" id="cp2">
			<path d="m65.21 399.54h394.02v504.5h-394.02z"/>
		</clipPath>
		<clipPath clipPathUnits="userSpaceOnUse" id="cp3">
			<path d="m94-44.07h105v226.77h-105z"/>
		</clipPath>
		<clipPath clipPathUnits="userSpaceOnUse" id="cp4">
			<path d="m621.5 380h80v58.48h-80z"/>
		</clipPath>
		<clipPath clipPathUnits="userSpaceOnUse" id="cp5">
			<path d="m187 246h80v58.48h-80z"/>
		</clipPath>
		<clipPath clipPathUnits="userSpaceOnUse" id="cp6">
			<path d="m538 735h84v158h-84z"/>
		</clipPath>
	</defs>
	<style>
		.s0 { opacity: .2;fill: #bad9f8 } 
		.s1 { fill: none;stroke: #d9d9d9;stroke-linecap: round;stroke-linejoin: round } 
		.s2 { fill: #52682d } 
		.s3 { fill: #39d200 } 
		.s4 { fill: #ee1c25 } 
		.s5 { fill: #001b94 } 
		.s6 { fill: #0188b2 } 
		.s7 { fill: #111111 } 
		.s8 { fill: #e16c2e } 
		.s9 { fill: #ffc4ad } 
		.s10 { opacity: .2;fill: #ffc4ad } 
		.s11 { fill: #ec977d } 
		.s12 { fill: #ffffff } 
		.s13 { opacity: .4;fill: #e06a4b } 
		.s14 { fill: #e06a4b } 
		.s15 { fill: #000000 } 
		.s16 { fill: #e8957a } 
		.s17 { fill: #546c2b } 
		.s18 { fill: #eb8d2e } 
		.s19 { opacity: .5;fill: #e16c2e } 
		.s20 { fill: #2d2d30 } 
		.s21 { fill: #f6eee3 } 
		.s22 { fill: #5c69ab } 
		.s23 { fill: #54a194 } 
		.s24 { fill: none;stroke: #1e1609;stroke-linecap: round;stroke-linejoin: round } 
		.s25 { fill: none;stroke: #332737;stroke-linecap: round;stroke-linejoin: round } 
	</style>
	<path id="Layer" class="s0" d="m-21-2h774v900h-774z"/>
	<g id="Clip-Path" clip-path="url(#cp1)">
		<g id="Layer">
			<path id="Layer" fill-rule="evenodd" class="s1" d="m403.6 303.7h-30.4v30.4h30.4z"/>
			<path id="Layer" fill-rule="evenodd" class="s1" d="m434 303.7h-30.4v30.4h30.4z"/>
			<path id="Layer" fill-rule="evenodd" class="s1" d="m464.5 303.7h-30.4v30.4h30.4z"/>
			<path id="Layer" fill-rule="evenodd" class="s1" d="m494.9 303.7h-30.4v30.4h30.4z"/>
			<path id="Layer" fill-rule="evenodd" class="s1" d="m525.4 303.7h-30.5v30.4h30.5z"/>
			<path id="Layer" fill-rule="evenodd" class="s1" d="m555.8 303.7h-30.4v30.4h30.4z"/>
			<path id="Layer" fill-rule="evenodd" class="s1" d="m403.6 334.1h-30.4v30.4h30.4z"/>
			<path id="Layer" fill-rule="evenodd" class="s1" d="m434 334.1h-30.4v30.4h30.4z"/>
			<path id="Layer" fill-rule="evenodd" class="s1" d="m464.5 334.1h-30.4v30.4h30.4z"/>
			<path id="Layer" fill-rule="evenodd" class="s1" d="m494.9 334.1h-30.4v30.4h30.4z"/>
			<path id="Layer" fill-rule="evenodd" class="s1" d="m525.4 334.1h-30.5v30.4h30.5z"/>
			<path id="Layer" fill-rule="evenodd" class="s1" d="m555.8 334.1h-30.4v30.4h30.4z"/>
			<path id="Layer" fill-rule="evenodd" class="s1" d="m403.6 364.5h-30.4v30.4h30.4z"/>
			<path id="Layer" fill-rule="evenodd" class="s1" d="m434 364.5h-30.4v30.4h30.4z"/>
			<path id="Layer" fill-rule="evenodd" class="s1" d="m464.5 364.5h-30.4v30.4h30.4z"/>
			<path id="Layer" fill-rule="evenodd" class="s1" d="m494.9 364.5h-30.4v30.4h30.4z"/>
			<path id="Layer" fill-rule="evenodd" class="s1" d="m525.4 364.5h-30.5v30.4h30.5z"/>
			<path id="Layer" fill-rule="evenodd" class="s1" d="m555.8 364.5h-30.4v30.4h30.4z"/>
			<path id="Layer" fill-rule="evenodd" class="s1" d="m403.6 394.9h-30.4v30.4h30.4z"/>
			<path id="Layer" fill-rule="evenodd" class="s1" d="m434 394.9h-30.4v30.4h30.4z"/>
			<path id="Layer" fill-rule="evenodd" class="s1" d="m464.5 394.9h-30.4v30.4h30.4z"/>
			<path id="Layer" fill-rule="evenodd" class="s1" d="m494.9 394.9h-30.4v30.4h30.4z"/>
			<path id="Layer" fill-rule="evenodd" class="s1" d="m525.4 394.9h-30.5v30.4h30.5z"/>
			<path id="Layer" fill-rule="evenodd" class="s1" d="m555.8 394.9h-30.4v30.4h30.4z"/>
			<path id="Layer" class="s2" d="m461.9 356.7c-4 0-7.2-3.3-7.2-7.3 0-4 3.2-7.2 7.2-7.2 4 0 7.3 3.2 7.3 7.2 0 4-3.3 7.3-7.3 7.3z"/>
			<path id="Layer" class="s3" d="m481.6 352.5c-4 0-7.3-3.2-7.3-7.2 0-4.1 3.3-7.3 7.3-7.3 4 0 7.2 3.2 7.2 7.3 0 4-3.2 7.2-7.2 7.2z"/>
			<path id="Layer" class="s4" d="m484.7 372.3c-4 0-7.3-3.3-7.3-7.3 0-4 3.3-7.3 7.3-7.3 4 0 7.2 3.3 7.2 7.3 0 4-3.2 7.3-7.2 7.3z"/>
			<path id="Layer" class="s5" d="m487.8 392c-4 0-7.3-3.2-7.3-7.3 0-4 3.3-7.2 7.3-7.2 4 0 7.2 3.2 7.2 7.2 0 4.1-3.2 7.3-7.2 7.3z"/>
			<path id="Layer" class="s6" d="m442.3 360.8c-4 0-7.3-3.2-7.3-7.2 0-4 3.3-7.3 7.3-7.3 4 0 7.2 3.3 7.2 7.3 0 4-3.2 7.2-7.2 7.2z"/>
		</g>
	</g>
	<g id="Clip-Path" clip-path="url(#cp2)">
		<g id="Layer">
			<path id="Layer" class="s7" d="m277 902.7c0 0-0.1 0-0.2 0-0.3-0.1-0.6-0.5-0.4-0.9l42.1-182.3c0.1-0.4 0.5-0.6 0.8-0.5 0.4 0.1 0.6 0.5 0.5 0.9l-42.2 182.3c-0.1 0.3-0.3 0.5-0.6 0.5z"/>
			<path id="Layer" class="s7" d="m406.5 901c-0.3 0-0.6-0.2-0.6-0.5l-47.6-180.6c-0.1-0.4 0.1-0.8 0.4-0.9 0.4-0.1 0.7 0.1 0.8 0.5l47.6 180.6c0.1 0.4-0.1 0.8-0.4 0.9q-0.1 0-0.2 0z"/>
			<path id="Layer" class="s8" d="m384 483.2h-21.2c-21.9 0-39.7 20.5-39.7 45.8v168.1h-39.6v26h117.7c12.4 0 22.5-11.7 22.5-26v-168.1c0-25.3-17.8-45.8-39.7-45.8z"/>
			<path id="Layer" class="s9" d="m308.8 528.8l-18.2 17.6-17.9-42.5q-0.4-0.9-0.8-1.9c-4.3-9.6-8.7-19.2-13-28.9-0.3-0.7-0.7-1.4-1.2-2-0.7-0.8-1.8-1.2-2.8-0.9-1 0.2-1.9 1.1-2.3 2.1-0.5 1.3-0.3 2.8 0.1 4.1 0.5 1.8 1 3.5 1.5 5.3 0.4 1.7-1.4 2.9-2.5 1.6q-5.8-7.3-11.5-14.6c-0.7-1-1.6-2-2.7-2.2-1.5-0.2-3 1.6-2.7 3.3 0.2 0.7 0.5 1.3 0.9 1.9 2.2 3.8 4.2 7.6 6.6 11.2 1.8 2.8 2.6 4.9 4 6.8-0.5-0.6-1.1-1.6-1.6-2.3-2.9-3.7-5.9-7.4-8.6-11.4-0.5-0.6-1.2-1.1-1.8-1.3-0.4-0.2-0.9-0.2-1.3 0-0.4 0.1-0.8 0.4-1 0.9-0.3 0.6-0.2 1.2-0.1 1.8 0.3 1 0.8 1.9 1.3 2.8 1.5 2.4 3.1 4.8 4.6 7.2 1.6 2.4 3.3 4.8 4.7 7.4-0.4-0.7-1-1.3-1.5-1.9q-1.6-1.9-3.2-3.7c-1.1-1.2-2.3-2.8-3.9-3-0.7 0-1.5 0.3-1.8 1-0.1 0.4-0.1 0.8-0.1 1.1 0.2 1.2 1 2.1 1.7 3q1 1.3 2 2.6 1.9 2.6 3.9 5.1 1.2 1.5 2.3 3l-3.6-2.8c-1.4-1.1-4.3-2.2-5-0.4-0.4 1-0.1 2.2 0.7 2.8l20.2 18.4 18.9 69.8c3.9 13.6 18.5 18.3 27.9 9l28.5-27.9-20.7-42.1z"/>
			<path id="Layer" class="s10" d="m308.8 528.8l-18.2 17.6-17.9-42.5q-0.4-0.9-0.8-1.9c-4.3-9.6-8.7-19.2-13-28.9-0.3-0.7-0.7-1.4-1.2-2-0.7-0.8-1.8-1.2-2.8-0.9-1 0.2-1.9 1.1-2.3 2.1-0.5 1.3-0.3 2.8 0.1 4.1 0.5 1.8 1 3.5 1.5 5.3 0.4 1.7-1.4 2.9-2.5 1.6q-5.8-7.3-11.5-14.6c-0.7-1-1.6-2-2.7-2.2-1.5-0.2-3 1.6-2.7 3.3 0.2 0.7 0.5 1.3 0.9 1.9 2.2 3.8 4.2 7.6 6.6 11.2 1.8 2.8 2.6 4.9 4 6.8-0.5-0.6-1.1-1.6-1.6-2.3-2.9-3.7-5.9-7.4-8.6-11.4-0.5-0.6-1.2-1.1-1.8-1.3-0.4-0.2-0.9-0.2-1.3 0-0.4 0.1-0.8 0.4-1 0.9-0.3 0.6-0.2 1.2-0.1 1.8 0.3 1 0.8 1.9 1.3 2.8 1.5 2.4 3.1 4.8 4.6 7.2 1.6 2.4 3.3 4.8 4.7 7.4-0.4-0.7-1-1.3-1.5-1.9q-1.6-1.9-3.2-3.7c-1.1-1.2-2.3-2.8-3.9-3-0.7 0-1.5 0.3-1.8 1-0.1 0.4-0.1 0.8-0.1 1.1 0.2 1.2 1 2.1 1.7 3q1 1.3 2 2.6 1.9 2.6 3.9 5.1 1.2 1.5 2.3 3l-3.6-2.8c-1.4-1.1-4.3-2.2-5-0.4-0.4 1-0.1 2.2 0.7 2.8l20.2 18.4 18.9 69.8c3.9 13.6 18.5 18.3 27.9 9l28.5-27.9-20.7-42.1z"/>
			<path id="Layer" class="s11" d="m256.8 497q-0.2 0-0.4-0.3c-5.7-7-2.8-14.5-2.8-14.6q0.2-0.2 0.4-0.3 0.2-0.1 0.5 0 0.2 0.1 0.3 0.4 0.1 0.3 0 0.6c-0.1 0.2-2.6 6.6 2.5 12.9 0.1 0.2 0.2 0.4 0.1 0.5q0 0.4-0.2 0.6 0 0.1-0.2 0.1-0.1 0.1-0.2 0.1z"/>
			<path id="Layer" class="s11" d="m293.6 556c-0.3 0-0.5-0.2-0.6-0.5l-6.1-16.2c-0.1-0.3 0-0.8 0.3-1 0.4-0.1 0.8 0 0.9 0.4l6.1 16.2c0.1 0.4 0 0.8-0.4 1q-0.1 0.1-0.2 0.1z"/>
			<path id="Layer" class="s2" d="m404.4 512.2c-3.2-12.8-17.1-16.6-28.5-17.8-3-1.4-6.4-1.9-10.4-1.3l-20.7 16.2-13.3-12.1c-6.5-1.2-12.3 1.8-16.8 6.8l-20.1 22.2c-3.2 3.4-3.6 9.3-1.1 13.4l23.8 39.5-8.6 48 80.8-1.6 3.2-74.3 15.7-2.4c1.8-0.2 3.1-2.3 2.6-4.4-1.9-9.2-6.5-31.7-6.6-32.2z"/>
			<path id="Layer" class="s9" d="m239.5 849.3v17.4l-28.1-0.8-1.1-17.1z"/>
			<path id="Layer" class="s7" d="m208.7 864.4l-4.4 4.7-25.4 26.9c-1.6 1.7-0.5 5 1.8 4.9l57.2-1.4c1.5 0 2.7-1.5 2.7-3.2l-0.3-30.9-31.6-1z"/>
			<path id="Layer" class="s7" d="m179 896l0.8-1c0.5 0.5 1 0.8 1.7 0.8l57.2-1.4c0.7 0 1.4-0.3 1.8-0.9l0.1 2.8c0 1.7-1.2 3.2-2.7 3.2l-57.2 1.4c-2.3 0.1-3.4-3.2-1.7-4.9z"/>
			<path id="Layer" class="s12" d="m187.3 896.2c-0.4 0-0.7-0.4-0.7-0.8 0-0.4 0.3-0.7 0.6-0.7l53.3-1c0.4 0 0.6 0.3 0.7 0.7 0 0.5-0.3 0.8-0.7 0.8l-53.2 1z"/>
			<path id="Layer" fill-rule="evenodd" class="s12" d="m228.3 885.8c-1 0-2.1-0.4-3-1-1.2-1-2-2.4-2.2-4-0.3-1.6 0-3.3 0.8-4.6 0.8-1.4 2-2.3 3.4-2.7 1.4-0.3 2.8 0 4 1 1.2 0.9 2 2.3 2.3 3.9 0.3 1.6 0 3.3-0.8 4.7-0.8 1.3-2 2.3-3.4 2.6q-0.6 0.1-1.1 0.1zm0-10.9q0 0 0 0 0 0 0 0zm-0.8 0.1c-2.2 0.5-3.6 3-3.2 5.5 0.2 1.2 0.8 2.3 1.7 3 1 0.7 2 1 3.1 0.7 1.1-0.2 2-0.9 2.6-2 0.6-1 0.8-2.3 0.6-3.5-0.4-2.2-2.1-3.8-4-3.8q-0.4 0-0.8 0.1z"/>
			<path id="Layer" class="s12" d="m209.2 875.9c-0.2 0-0.4-0.1-0.5-0.3l-4.8-6c-0.3-0.3-0.3-0.7 0-1 0.3-0.3 0.7-0.3 0.9 0l4.9 6c0.2 0.3 0.2 0.8-0.1 1.1q-0.2 0.2-0.4 0.2z"/>
			<path id="Layer" class="s12" d="m205.3 880.2c-0.2 0-0.4-0.1-0.5-0.3l-4.9-5.9c-0.2-0.3-0.2-0.8 0.1-1.1 0.2-0.3 0.7-0.3 0.9 0l4.8 6c0.3 0.3 0.3 0.8 0 1.1q-0.2 0.2-0.4 0.2z"/>
			<path id="Layer" class="s12" d="m201.6 884.4c-0.2 0-0.4-0.1-0.5-0.2l-4.8-6c-0.3-0.3-0.3-0.8 0-1.1 0.3-0.3 0.7-0.2 0.9 0.1l4.9 6c0.2 0.3 0.2 0.7-0.1 1q-0.2 0.2-0.4 0.2z"/>
			<path id="Layer" fill-rule="evenodd" class="s12" d="m209 868.4q-0.2 0-0.4-0.1c-1.9-1.1-1.3-10.3-1.2-10.9 0.3-1.9 1.9-3.2 3.6-2.9 0.8 0.2 1.5 0.7 2 1.5 0.5 0.8 0.6 1.7 0.5 2.7-0.2 1.1-2.9 8.8-4.2 9.5q-0.1 0.2-0.3 0.2zm1.4-12.4c-0.8 0-1.6 0.7-1.7 1.7-0.3 1.7-0.2 7.1 0.3 8.8 1-1.6 3-6.8 3.2-8.1 0.1-0.5 0-1.1-0.3-1.6-0.3-0.4-0.7-0.7-1.1-0.8q-0.2 0-0.4 0z"/>
			<path id="Layer" fill-rule="evenodd" class="s12" d="m208.2 868.4c-2.4 0-7.4-2-7.8-2.3-1.5-1-2-3.2-1.2-4.9 0.5-0.8 1.1-1.4 1.9-1.7 0.8-0.2 1.7-0.1 2.4 0.4 1 0.7 5.5 4.8 5.9 6.9 0.2 0.6 0 0.9-0.1 1.2-0.1 0.3-0.5 0.4-1.1 0.4zm-6.3-7.5q-0.2 0-0.5 0.1c-0.4 0.1-0.8 0.5-1 0.9-0.5 1-0.3 2.3 0.6 2.9 1 0.7 5.7 2 7.2 2.1-0.5-1.2-4.1-4.8-5.4-5.7q-0.4-0.3-0.9-0.3z"/>
			<path id="Layer" class="s9" d="m312.8 848.8l-0.1 18.9-28-0.9-1.1-17.1z"/>
			<path id="Layer" class="s7" d="m283 866.8l-4.4 4.7-25.4 26.8c-1.6 1.8-0.5 5 1.8 5l57.2-1.4c1.5 0 2.7-1.5 2.7-3.2l-0.3-30.9-31.6-1z"/>
			<path id="Layer" class="s7" d="m253.2 898.4l0.9-1c0.5 0.5 1 0.8 1.7 0.8l57.2-1.4c0.7 0 1.4-0.4 1.8-0.9l0.1 2.8c0 1.7-1.2 3.2-2.7 3.2l-57.2 1.4c-2.3 0.1-3.4-3.2-1.8-4.9z"/>
			<path id="Layer" class="s12" d="m261.5 898.5c-0.3 0-0.6-0.3-0.6-0.7 0-0.4 0.3-0.7 0.6-0.8l53.3-0.9c0.4 0 0.6 0.3 0.6 0.7 0 0.4-0.2 0.8-0.6 0.8l-53.2 0.9z"/>
			<path id="Layer" fill-rule="evenodd" class="s12" d="m302.6 888.2c-1.1 0-2.1-0.4-3-1.1-1.2-0.9-2-2.3-2.3-3.9-0.2-1.6 0-3.3 0.8-4.6 0.9-1.4 2.1-2.4 3.5-2.7 1.4-0.3 2.8 0 4 1 1.2 0.9 2 2.3 2.3 3.9 0.2 1.6 0 3.3-0.8 4.6-0.8 1.4-2.1 2.3-3.5 2.7q-0.5 0.1-1 0.1zm0-10.9q0 0 0 0 0 0 0 0zm-0.8 0.1c-2.2 0.5-3.6 3-3.2 5.5 0.4 2.5 2.6 4.2 4.8 3.7 2.2-0.5 3.6-3 3.2-5.5-0.4-2.2-2.1-3.8-4-3.8q-0.4 0-0.8 0.1z"/>
			<path id="Layer" class="s12" d="m283.5 878.3c-0.2 0-0.4-0.1-0.5-0.3l-4.8-6c-0.3-0.3-0.3-0.8 0-1 0.3-0.3 0.7-0.3 0.9 0l4.9 6c0.2 0.3 0.2 0.8-0.1 1.1q-0.2 0.2-0.4 0.2z"/>
			<path id="Layer" class="s12" d="m279.6 882.6c-0.2 0-0.4-0.1-0.5-0.3l-4.8-6c-0.3-0.3-0.3-0.7 0-1 0.3-0.3 0.7-0.3 0.9 0l4.8 6c0.3 0.3 0.3 0.8 0 1.1q-0.2 0.2-0.4 0.2z"/>
			<path id="Layer" class="s12" d="m275.9 886.8c-0.2 0-0.4-0.1-0.5-0.2l-4.8-6c-0.3-0.3-0.3-0.8 0-1.1 0.3-0.3 0.7-0.3 0.9 0.1l4.9 5.9c0.2 0.3 0.2 0.8-0.1 1.1q-0.2 0.2-0.4 0.2z"/>
			<path id="Layer" fill-rule="evenodd" class="s12" d="m283.3 870.7q-0.2 0-0.4 0c-1.9-1.1-1.3-10.3-1.2-10.9 0.3-1.9 1.9-3.2 3.6-2.9 1.7 0.4 2.8 2.2 2.5 4.2-0.2 1.1-2.9 8.8-4.2 9.5q-0.2 0.2-0.4 0.1zm1.5-12.3c-0.8 0-1.6 0.7-1.7 1.7-0.3 1.7-0.2 7.1 0.3 8.8 1-1.6 3-6.8 3.2-8.1 0.2-1.1-0.5-2.2-1.4-2.4q-0.2 0-0.4 0z"/>
			<path id="Layer" fill-rule="evenodd" class="s12" d="m282.4 870.8q0 0 0.1 0 0 0 0 0zm-7.8-2.3c-0.8-0.5-1.3-1.3-1.5-2.2-0.2-0.9-0.1-1.9 0.3-2.7 0.9-1.7 2.8-2.3 4.3-1.3 1 0.7 5.5 4.8 5.9 6.9 0.1 0.6 0 0.9-0.1 1.2-0.1 0.3-0.6 0.4-1.1 0.4-2.4 0-7.4-2-7.8-2.3zm1.5-5.2c-0.6 0-1.2 0.4-1.5 1-0.3 0.5-0.3 1.1-0.2 1.6 0.1 0.5 0.4 1 0.8 1.3 1 0.6 5.7 2 7.2 2.1-0.5-1.2-4.1-4.9-5.4-5.7q-0.4-0.3-0.9-0.3z"/>
			<path id="Layer" class="s7" d="m314.1 573.9c-0.3 0-0.5-0.2-0.6-0.5l-3.9-10.2c-3-7.8-3.2-16.4-0.6-24.3l4.7-14.2c0.1-0.4 0.5-0.6 0.9-0.4 0.3 0.1 0.5 0.6 0.3 0.9l-4.6 14.3c-2.5 7.5-2.3 15.7 0.5 23.1l3.9 10.2c0.1 0.4 0 0.9-0.4 1q-0.1 0.1-0.2 0.1z"/>
			<path id="Layer" fill-rule="evenodd" class="s9" d="m418.4 584.8c7.6 17.3-3.4 37.7-20.1 37.5l-69.6-0.7c-2 1.2-4 2-5.7 1.9l-20-1.3c-3.7 0-6.6-4.3-4.2-6-2.8 0.9-6.1 0.6-6.6-3.4-0.5-2.2 0.6-3.3 2.2-4-2.6 0.7-5.2 0.8-5.9-2.5-1.1-3.5 1.1-5.1 3.6-6-1.8 0.2-3.6-0.2-4.1-2.6-0.9-7.2 7.1-6.9 11.9-7.3 2.2-0.1 4.3-0.1 6.2-0.2-1.5-1.9-3-3.8-3.8-6.2-0.3-0.7-0.5-1.7-0.1-2.4 0.3-0.5 0.8-0.8 1.4-0.9 0.5 0 1 0.1 1.6 0.3 4.9 1.5 18.5 8.8 18.5 8.8 1.5 1 2.9 2.2 4.3 3.5l53.9-4.7-10.2-34.1 34.7-5.4 12 35.7zm-120 22.8q-0.5 0.1-1.1 0.3 0.6-0.2 1.1-0.3z"/>
			<path id="Layer" class="s13" d="m306.1 590.2l10.9 0.7c0 0-11.5-4.4-13.5-4.3z"/>
			<path id="Layer" class="s11" d="m291.1 601.2c-0.3 0-0.6-0.2-0.7-0.5-0.1-0.4 0.1-0.9 0.5-1 1-0.4 6.5-0.5 7.5-0.6 0.4 0 0.7 0.4 0.7 0.8 0 0.4-0.3 0.7-0.6 0.7-2.5 0.1-6.6 0.3-7.3 0.5q-0.1 0.1-0.2 0.1z"/>
			<path id="Layer" class="s11" d="m293.8 609.7c-0.4 0-0.7-0.3-0.7-0.7 0-0.5 0.3-0.8 0.7-0.8l5.9-0.3c0.3 0 0.6 0.3 0.6 0.7 0 0.4-0.2 0.8-0.6 0.8l-5.9 0.3z"/>
			<path id="Layer" class="s14" d="m298.8 617c-0.4 0-0.6-0.3-0.7-0.7 0-0.4 0.3-0.8 0.6-0.8l3.2-0.2c0.4-0.1 0.7 0.2 0.7 0.7 0 0.4-0.3 0.7-0.6 0.8l-3.2 0.2q0 0 0 0z"/>
			<path id="Layer" class="s11" d="m371.7 590.1c-0.3 0-0.6-0.3-0.6-0.7-0.1-0.4 0.2-0.8 0.5-0.8l14.7-1.8c0.4-0.1 0.7 0.2 0.7 0.6 0.1 0.4-0.2 0.8-0.5 0.9l-14.7 1.8c0 0-0.1 0-0.1 0z"/>
			<path id="Layer" class="s5" d="m271.9 633.1c-12.7-0.2-23.8 6.7-30.8 17.3-19.3 5.9-33.5 26-34.1 49.9l-4 142.7c-0.1 3.2 2.1 5.9 4.9 5.9l32.2 0.8c1.8 0 3.4-1.5 3.8-3.6l11-59.6 12.7 60.1c0.4 2.3 2.2 3.9 4.3 3.9l45-0.8c1.9 0 3.2-2 2.7-4.1l-35.7-143.8 56.7-1.2c32.5-0.6 59.6-29 63.3-66.3l-132-1.2z"/>
			<path id="Layer" class="s12" d="m255.3 790.9c-0.3 0-0.5-0.3-0.6-0.6l-21.1-102c-3-13.7-0.3-27.8 7.2-38.8 7.6-11.1 18.9-17.3 31.1-17.2l132 1.3c0.3 0 0.6 0.3 0.6 0.7 0 0.4-0.3 0.8-0.6 0.8l-132-1.3c-11.8-0.1-22.7 5.9-30 16.6-7.3 10.7-9.9 24.3-7.1 37.5l21.2 102.1c0.1 0.4-0.2 0.8-0.5 0.9q-0.1 0-0.2 0z"/>
			<path id="Layer" class="s15" d="m389 484.4c-3.7-3.2-8.4-5.6-10.3-10.4-2.1-5.2 0.8-15.4 0.8-15.4 2.1-5.8 1.1-12.8-1.9-18.1l-0.3-7.3q0.1-1.2 0-2.3c4.6-2.2 9-6.2 11.2-9.5 3.8-6.2 2.7-14.8-2.7-19.2-5.3-4.5-12.7-3.2-16.6 3-1.3 2.1-2.6 5.2-3.4 8.6q-2.5-0.9-5.4-0.9l-8.4 0.2-9.9-4.2c-8.6-3.7-18 2.2-20 12.4l-2.1 11.2 1 0.2c-0.8 2.6-1.3 5.4-1.5 8.3l-0.8 9.4 4.9 0.5c0.5 2.1 2.5 10.5 0.7 15-2 4.8-6.6 7.2-10.3 10.3-3.7 3.2-6.9 9.2-4.3 13.6 4.7-3.4 11.6-1.7 14.7 3.6q3.2-5.1 6.4-10.3c-1.3 3.8-1.8 8-1.3 12.1 4.8 1.2 9.8 1.2 14.6 0 0.5-0.2 1.1-0.4 1.6-0.7 1.6 0.9 3.2 1.8 4.8 2.8 0.9-3.3 2.2-6.4 3.8-9.2q0.8-0.5 1.5-1 0.1 5.9 0.1 11.7c0 1.2 0.1 2.4 0.8 3.3 0.5 0.7 1.3 1 2.1 1.2 4.8 1.2 9.8 1.2 14.6 0 0.5-4.1 0-8.3-1.3-12.1q3.2 5.2 6.4 10.4c3.1-5.3 10-7 14.6-3.7 2.6-4.4-0.5-10.4-4.2-13.6z"/>
			<path id="Layer" class="s9" d="m365.7 441.4l-2.8-0.1-3.3 6.9c-1.2 2.5-4.5 1.7-4.7-1.1l-1.2-14.4c-0.3-2.7-3.1-3.7-4.6-1.6l-2.8 4-9.7-0.4-2.1-9.4-1.7 9.2-8.2-1.3-3.9 26c-1.6 10.3 3.3 20 11.2 23.3l1.2 11.9c0.9 9.2 8.5 15.9 16.7 14.8h0.4c8.2-1.1 15.7-7.5 14.8-16.7l-4.1-31 4.1 0.2c4.8 0.2 8.9-4.2 9-9.7v-0.2c0.2-5.5-3.6-10.2-8.4-10.4z"/>
			<path id="Layer" class="s7" d="m323.3 448.1c-0.2 1 0.4 2 1.3 2.2 1 0.2 1.8-0.5 2-1.6 0.2-1-0.4-2-1.4-2.2-0.9-0.2-1.7 0.5-1.9 1.6z"/>
			<path id="Layer" class="s7" d="m336.9 448.7c0.1 1.2 1 2.1 2 2 1-0.1 1.8-1.1 1.7-2.3-0.1-1.2-0.9-2-2-2-1 0.1-1.7 1.2-1.7 2.3z"/>
			<path id="Layer" class="s11" d="m333.1 473.8q0.1 0.1 0.2 0c0.1 0 2-0.9 3.3 0.7 0.2 0.2 0.4 0.2 0.5 0 0.2-0.1 0.2-0.4 0.1-0.5-1.8-2.1-4.1-0.9-4.2-0.9-0.1 0.1-0.2 0.3-0.1 0.5q0 0.2 0.2 0.3z"/>
			<path id="Layer" class="s7" d="m345.4 440.8c-0.7 0.2-1.5 0-2.2-0.2-0.8-0.2-1.6-0.4-2.3-0.5-0.7-0.1-1.5-0.2-2.3-0.3-0.7-0.1-1.5-0.2-2.1-0.6-0.6-0.4-0.7-1.3 0.1-2.1 0.8-0.9 2.7-1.7 5-1.3 2.2 0.5 3.8 1.8 4.3 2.9 0.5 1.2 0.1 1.9-0.5 2.1z"/>
			<path id="Layer" class="s7" d="m321.5 440.1c0.4 0.1 1 0 1.5-0.2q0.8-0.2 1.6-0.3c0.4-0.1 1-0.2 1.5-0.3 0.6-0.1 1.1-0.1 1.5-0.4 0.4-0.3 0.4-1-0.1-1.7-0.6-0.7-1.9-1.3-3.5-1-1.5 0.3-2.6 1.4-2.9 2.3-0.3 0.9-0.1 1.5 0.4 1.6z"/>
			<path id="Layer" class="s9" d="m340.7 450.8c0 0-1.7-1.4-3.3 0.3z"/>
			<path id="Layer" class="s11" d="m337.4 451.8c-0.1 0-0.3-0.1-0.4-0.2-0.3-0.4-0.2-0.8 0-1.1 1.6-1.6 3.3-0.9 4.1-0.3 0.3 0.2 0.3 0.7 0.1 1-0.2 0.4-0.6 0.4-0.9 0.2-0.1-0.1-1.3-1-2.4 0.2q-0.2 0.2-0.5 0.2z"/>
			<path id="Layer" class="s9" d="m325.9 450c0 0-1-0.8-1.9 0.3z"/>
			<path id="Layer" class="s11" d="m324 451.1q-0.3 0-0.5-0.2c-0.2-0.3-0.2-0.8 0-1.1 1-1.2 2.2-0.8 2.7-0.4 0.3 0.2 0.4 0.7 0.2 1-0.2 0.4-0.6 0.5-0.9 0.2-0.1-0.1-0.6-0.3-1.1 0.2q-0.2 0.3-0.4 0.3z"/>
			<path id="Layer" class="s12" d="m339.9 457.9c-0.5-0.5-1.3-0.4-1.8 0.2-0.9 0.9-2.9 2.7-5.8 3-0.8 0.1-1.1 1.1-0.8 1.8 0.7 1.6 2.4 4.2 6.2 2.2 4.5-2.5 3.7-6.1 2.2-7.2z"/>
			<path id="Layer" class="s9" d="m331.3 444.1l-0.7 7.9-1.7 0.2c-0.8-0.2-1.5 0.5-1.6 1.3l-0.2 1.5c-0.1 1.2 0.6 2.3 1.6 2.4l3.2 0.6"/>
			<path id="Layer" class="s11" d="m331.9 458.7c0 0-0.1 0-0.1 0l-3.1-0.5c-1.4-0.2-2.4-1.7-2.2-3.3l0.2-1.5c0.1-0.6 0.3-1.1 0.8-1.5 0.4-0.4 0.9-0.6 1.5-0.5l1-0.1 0.6-7.3c0.1-0.4 0.4-0.7 0.7-0.6 0.4 0 0.7 0.4 0.6 0.8l-0.7 8.5-2.3 0.2c-0.3 0-0.5 0-0.6 0.2q-0.3 0.2-0.3 0.5l-0.2 1.5c-0.1 0.8 0.4 1.5 1.1 1.6l3.1 0.5c0.3 0.1 0.6 0.5 0.5 0.9 0 0.4-0.3 0.6-0.6 0.6z"/>
			<path id="Layer" class="s11" d="m366.3 455q-0.2 0-0.4-0.1l-2.8-2.1c-0.2-0.1-0.3-0.3-0.3-0.5-0.1-0.2 0-0.5 0.1-0.6l3.1-3.9c0.2-0.3 0.6-0.4 0.9-0.1 0.3 0.3 0.3 0.8 0 1.1l-2.5 3.2 2.2 1.7c0.3 0.2 0.4 0.7 0.2 1-0.1 0.2-0.3 0.4-0.5 0.4z"/>
			<path id="Layer" class="s16" d="m332 482.7c0 0 15.8 1.4 19-5.5 0 0 0.3 11.6-18 15.9l-1-10.3z"/>
			<path id="Layer" fill-rule="evenodd" class="s12" d="m366.6 465.9c-2.1 0-3.8-1.8-3.9-4.2-0.2-2.5 1.5-4.6 3.6-4.8 2.2-0.1 4.1 1.8 4.2 4.2 0 1.2-0.3 2.4-1 3.3-0.7 0.9-1.6 1.4-2.7 1.5q-0.1 0-0.2 0zm0-7.5c0 0-0.1 0-0.2 0-1.4 0.1-2.5 1.5-2.4 3.2 0.1 1.6 1.3 2.9 2.7 2.8 0.7 0 1.4-0.4 1.8-1 0.5-0.6 0.7-1.4 0.7-2.2-0.1-1.6-1.2-2.8-2.6-2.8z"/>
			<path id="Layer" class="s17" d="m370.1 500.9l-5-11.7c-0.3-0.8-1.3-1-2-0.4l-17.9 16.8-12.1-14.6c-1-1.2-2.6-0.3-2.7 1.5l-3.3 9.7c-0.4 1.1-0.2 2.4 0.5 3.3l8.5 11.2c0.5 1.2 1.9 1.3 2.5 0.1l6.6-9.2 10.2 11.6c1.1 1.1 3 0.9 3.9-0.4l10.4-14.2c0.8-1 0.9-2.5 0.4-3.7z"/>
			<path id="Layer" fill-rule="evenodd" class="s7" d="m357.2 520.6c-0.8 0-1.6-0.3-2.2-0.9l-9.8-11-6.1 8.6c-0.4 0.7-1 1.1-1.8 1.1-0.7 0-1.4-0.5-1.8-1.3l-8.4-11.1c-0.8-1.1-1.1-2.7-0.6-4.1l3.2-9.5c0.1-1.2 0.8-2.2 1.6-2.6 0.8-0.3 1.7 0 2.3 0.7l11.7 14.1 17.4-16.4c0.5-0.5 1.1-0.6 1.7-0.5 0.6 0.2 1.1 0.6 1.3 1.2l5 11.6c0.6 1.5 0.4 3.3-0.5 4.6l-10.4 14.2c-0.5 0.7-1.4 1.2-2.3 1.3q-0.1 0-0.3 0zm-12-14h0.1-0.1zm10.7 12c0.3 0.3 0.9 0.5 1.5 0.5 0.6-0.1 1.1-0.4 1.4-0.8l10.4-14.2c0.6-0.8 0.7-2 0.3-2.9l-4.9-11.7q-0.1-0.3-0.4-0.3c-0.2-0.1-0.5 0-0.6 0.1l-18.3 17.3zm-23.9-27.5q-0.1 0-0.2 0.1c-0.4 0.2-0.7 0.7-0.8 1.3v0.3l-3.3 9.6c-0.3 0.9-0.1 1.9 0.4 2.6l8.6 11.2c0.1 0.4 0.4 0.6 0.7 0.7q0.4 0 0.7-0.5l7-9.9-12.4-15q-0.3-0.3-0.7-0.3z"/>
			<path id="Layer" class="s7" d="m74.3 904c0 0 0 0-0.1 0-0.3 0-0.6-0.4-0.5-0.8l29.7-254.3 33.5 252c0.1 0.4-0.2 0.7-0.5 0.8-0.4 0.1-0.7-0.2-0.8-0.6l-32.1-241.7-28.6 244c0 0.4-0.3 0.6-0.6 0.6z"/>
			<path id="Layer" class="s7" d="m392.7 904c0 0 0 0-0.1 0-0.3 0-0.6-0.4-0.5-0.8l29.7-254.3 33.5 252c0.1 0.4-0.1 0.7-0.5 0.8-0.4 0.1-0.7-0.2-0.7-0.6l-32.2-241.7-28.5 244c-0.1 0.4-0.3 0.6-0.7 0.6z"/>
			<path id="Layer" class="s18" d="m456.4 622h-388.3c-1.6 0-2.9 1.5-2.9 3.4v24.9c0 1.8 1.3 3.3 2.9 3.3h388.3c1.5 0 2.8-1.5 2.8-3.3v-24.9c0-1.9-1.3-3.4-2.8-3.4z"/>
			<path id="Layer" class="s19" d="m454.6 640.4h-384.8c-2.5 0-4.6 2.1-4.6 4.6v4c0 2.6 2.1 4.6 4.6 4.6h384.8c2.6 0 4.6-2 4.6-4.6v-4c0-2.5-2-4.6-4.6-4.6z"/>
			<path id="Layer" class="s6" d="m125.7 612.5h-4.1c-0.4 0-0.7-0.3-0.7-0.7 0-0.4 0.3-0.8 0.7-0.8h4.1c3.1 0 5.7-2.9 5.7-6.5v-4.1c0-1.1-0.8-2-1.8-2h-8c-0.4 0-0.7-0.4-0.7-0.8 0-0.4 0.3-0.7 0.7-0.7h8c1.7 0 3.1 1.5 3.1 3.5v4.1c0 4.4-3.2 8-7 8z"/>
			<path id="Layer" class="s6" d="m101.8 587.4h21.2c1 0 1.8 0.9 1.8 2v32.6h-25.1v-32.3c0-1.3 0.9-2.3 2.1-2.3z"/>
			<path id="Layer" class="s20" d="m171.2 545.3h66.4c2.3 0 4.4 1.8 5 4.5l15.3 63.9h44.5c0.8 0 1.3 1 0.9 1.8l-3.5 6.1h-115.8l-17.9-68.4c-1.1-3.9 1.5-7.9 5.1-7.9z"/>
			<path id="Layer" class="s15" d="m178.3 621.8h75.8l-17.2-71.9c-0.6-2.6-2.7-4.4-5.1-4.4h-66.4c-3.5 0-6.1 4-5 7.9l17.9 68.4z"/>
			<path id="Layer" fill-rule="evenodd" class="s21" d="m203.1 602c-7.3 0-13.3-6.9-13.3-15.3 0-8.4 6-15.3 13.3-15.3 7.3 0 13.3 6.9 13.3 15.3 0 8.4-6 15.3-13.3 15.3zm0-28.3c-6.2 0-11.2 5.8-11.2 13 0 7.2 5 13 11.2 13 6.2 0 11.3-5.8 11.3-13 0-7.2-5.1-13-11.3-13z"/>
			<path id="Layer" class="s12" d="m201.6 585.4c-0.9 0-1.7-0.9-1.7-2 0-1.1 0.8-2 1.7-2 1 0 1.8 0.9 1.8 2 0 1.1-0.8 2-1.8 2z"/>
			<path id="Layer" class="s12" d="m206.3 584.3c-0.9 0-1.7-0.9-1.7-2 0-1.1 0.8-2 1.7-2 1 0 1.8 0.9 1.8 2 0 1.1-0.8 2-1.8 2z"/>
			<path id="Layer" class="s12" d="m207.1 589.7c-1 0-1.8-0.9-1.8-2 0-1.1 0.8-2 1.8-2 0.9 0 1.7 0.9 1.7 2 0 1.1-0.8 2-1.7 2z"/>
			<path id="Layer" class="s12" d="m207.8 595.1c-0.9 0-1.7-0.9-1.7-2 0-1.1 0.8-2 1.7-2 1 0 1.7 0.9 1.7 2 0 1.1-0.7 2-1.7 2z"/>
			<path id="Layer" class="s12" d="m197 586.6c-1 0-1.8-0.9-1.8-2 0-1.1 0.8-2 1.8-2 0.9 0 1.7 0.9 1.7 2 0 1.1-0.8 2-1.7 2z"/>
			<path id="Layer" class="s7" d="m375.5 569c-0.3 0-0.5-0.2-0.6-0.6l-3.7-13.2-3.5 0.4c-2.2 0.3-4.2-1.5-4.5-4.1l-2.2-19.5c0-0.4 0.3-0.8 0.6-0.8 0.4-0.1 0.7 0.2 0.7 0.6l2.2 19.6c0.2 1.7 1.5 2.9 3 2.7l4.6-0.5 4 14.4c0.1 0.4-0.1 0.8-0.4 0.9q-0.1 0.1-0.2 0.1z"/>
		</g>
	</g>
	<g id="Clip-Path" clip-path="url(#cp3)">
		<g id="Layer">
			<path id="Layer" class="s12" d="m155.7 115h-18.4c-4.5 0-8.2-4.3-8.2-9.6 0-5.3 3.7-9.6 8.2-9.6h18.4c4.5 0 8.2 4.3 8.2 9.6 0 5.3-3.7 9.6-8.2 9.6z"/>
			<path id="Layer" fill-rule="evenodd" class="s22" d="m155.7 115.9h-18.4c-5 0-9.1-4.7-9.1-10.5 0-5.8 4.1-10.6 9.1-10.6h18.4c5 0 9.1 4.8 9.1 10.6 0 5.8-4.1 10.5-9.1 10.5zm-18.4-19.2c-4.1 0-7.4 3.9-7.4 8.7 0 4.7 3.3 8.6 7.4 8.6h18.4c4.1 0 7.4-3.9 7.4-8.6 0-4.8-3.3-8.7-7.4-8.7z"/>
			<path id="Layer" class="s21" d="m146.5 181.7c9.5 0 17.2-8.9 17.2-19.9 0-11.1-7.7-20-17.2-20-9.5 0-17.2 8.9-17.2 20 0 11 7.7 19.9 17.2 19.9z"/>
			<path id="Layer" fill-rule="evenodd" class="s22" d="m146.5 182.7c-10 0-18.1-9.4-18.1-20.9 0-11.6 8.1-21 18.1-21 9.9 0 18 9.4 18 21 0 11.5-8.1 20.9-18 20.9zm0-39.9c-9 0-16.4 8.5-16.4 19 0 10.5 7.4 19 16.4 19 9 0 16.4-8.5 16.4-19 0-10.5-7.4-19-16.4-19z"/>
			<path id="Layer" class="s22" d="m146.4-2.2h-1.6v97.2h1.6z"/>
			<path id="Layer" class="s12" d="m198.2 163.3c0 0.5-103.4 0.5-103.4 0 0-33.1 23.2-59.9 51.7-59.9 28.5 0 51.7 26.8 51.7 59.9z"/>
			<path id="Layer" fill-rule="evenodd" class="s22" d="m145.7 164.7c-12.7 0-25.5-0.1-35-0.1q-16.7-0.2-16.7-1.3c0-33.6 23.6-60.9 52.5-60.9 28.9 0 52.5 27.3 52.5 60.9q0 1.1-17.3 1.3c-9.8 0-22.9 0.1-35.9 0.1zm-50.1-2.3c8.7 0.4 93 0.4 101.7 0-0.5-32.1-23.1-58.1-50.9-58.1-27.7 0-50.4 26-50.8 58.1z"/>
		</g>
	</g>
	<g id="Clip-Path" clip-path="url(#cp4)">
		<g id="Layer">
			<path id="Layer" fill-rule="evenodd" class="s22" d="m700.3 418.6h-36.2c-0.7 0-1.2-0.5-1.2-1.2v-15.6c0-0.6 0.5-1.2 1.2-1.2h36.2c0.7 0 1.2 0.6 1.2 1.2v15.6c0 0.7-0.5 1.2-1.2 1.2zm-35.8-1.6h35.4v-14.8h-35.4z"/>
			<path id="Layer" fill-rule="evenodd" class="s22" d="m658.4 418.6h-35.7c-0.7 0-1.2-0.5-1.2-1.2v-15.6c0-0.6 0.5-1.2 1.2-1.2h35.7c0.7 0 1.2 0.6 1.2 1.2v15.6c0 0.7-0.5 1.2-1.2 1.2zm-35.4-1.6h35.1v-14.8h-35.1z"/>
			<path id="Layer" fill-rule="evenodd" class="s22" d="m682.8 438.5h-35.7c-0.7 0-1.2-0.5-1.2-1.2v-15.6c0-0.6 0.5-1.2 1.2-1.2h35.7c0.7 0 1.2 0.6 1.2 1.2v15.6c0 0.7-0.5 1.2-1.2 1.2zm-35.4-1.6h35.1v-14.8h-35.1z"/>
			<path id="Layer" fill-rule="evenodd" class="s22" d="m682.8 397.9h-35.7c-0.7 0-1.2-0.5-1.2-1.1v-15.6c0-0.7 0.5-1.2 1.2-1.2h35.7c0.7 0 1.2 0.5 1.2 1.2v15.6c0 0.6-0.5 1.1-1.2 1.1zm-35.4-1.5h35.1v-14.9h-35.1z"/>
		</g>
	</g>
	<g id="Clip-Path" clip-path="url(#cp5)">
		<g id="Layer">
			<path id="Layer" fill-rule="evenodd" class="s22" d="m265.8 284.6h-36.2c-0.7 0-1.2-0.5-1.2-1.2v-15.6c0-0.6 0.5-1.2 1.2-1.2h36.2c0.7 0 1.2 0.6 1.2 1.2v15.6c0 0.7-0.5 1.2-1.2 1.2zm-35.8-1.6h35.4v-14.8h-35.4z"/>
			<path id="Layer" fill-rule="evenodd" class="s22" d="m223.9 284.6h-35.7c-0.7 0-1.2-0.5-1.2-1.2v-15.6c0-0.6 0.5-1.2 1.2-1.2h35.7c0.7 0 1.2 0.6 1.2 1.2v15.6c0 0.7-0.5 1.2-1.2 1.2zm-35.4-1.6h35.1v-14.8h-35.1z"/>
			<path id="Layer" fill-rule="evenodd" class="s22" d="m248.3 304.5h-35.7c-0.7 0-1.2-0.5-1.2-1.2v-15.6c0-0.6 0.5-1.2 1.2-1.2h35.7c0.7 0 1.2 0.6 1.2 1.2v15.6c0 0.7-0.5 1.2-1.2 1.2zm-35.4-1.6h35.1v-14.8h-35.1z"/>
			<path id="Layer" fill-rule="evenodd" class="s22" d="m248.3 263.9h-35.7c-0.7 0-1.2-0.5-1.2-1.1v-15.6c0-0.7 0.5-1.2 1.2-1.2h35.7c0.7 0 1.2 0.5 1.2 1.2v15.6c0 0.6-0.5 1.1-1.2 1.1zm-35.4-1.5h35.1v-14.9h-35.1z"/>
		</g>
	</g>
	<g id="Clip-Path" clip-path="url(#cp6)">
		<g id="Layer">
			<path id="Layer" class="s23" d="m563.6 832c0.1-4.3 1.3-8.8-0.1-12.9-2.5-7.4-12.4-10.4-14.6-17.9-1.4-4.9 1-10.4-0.9-15.1-1.2-2.9-3.7-5-6-7.2-2.2-2.2-4.3-5-4-8.1 0.1-1.1 0.6-2.3 1.6-2.7 1.5-0.7 3.2 0.5 4.3 1.7 6.2 6.7 8.5 16.8 15.9 22.3 3.1 2.3 7 3.8 8.8 7.2 1.7 2.9 1.2 6.5 1.9 9.8 1 4.6 4.1 8.4 7.3 11.9 2.3 2.7 4.9 5.7 4.8 9.3 0 1.8-0.7 3.5-1 5.2-0.3 2.5 0.2 4.9 0.3 7.3 0 2.4-0.5 5.1-2.4 6.6-3.4 2.7-8.9-2.2-11.1-4.6-3.2-3.3-4.8-8.2-4.8-12.8z"/>
			<path id="Layer" fill-rule="evenodd" class="s24" d="m565.9 811.7c10.3 18.9 8.3 33.7 9.6 55.2"/>
			<path id="Layer" class="s23" d="m582.9 835.2c-2-5-2.3-10.7-0.2-15.6 2.1-5.1 6.6-9.1 8.4-14.3 2.1-6 0.9-13.6 5.8-17.7 2.2-1.9 5.2-2.5 7.4-4.4 2.6-2.4 3.4-6 4.7-9.3 1.5-3.9 3.8-7.5 6.8-10.5 1-1 2.3-1.9 3.7-1.7 1.9 0.4 2.5 2.8 2.5 4.7 0 2.2-0.4 4.4-1.1 6.6-0.7 2.3-1.9 4.8-1.2 7.2 0.4 1.2 1.2 2.2 1.6 3.3 1.2 3.4-1.1 6.9-3.1 9.9-2.8 3.9-5.4 8.5-4.8 13.4 0.2 1.8 0.8 3.5 0.8 5.4 0.1 5.6-5.3 9.6-9.3 13.6-2.5 2.5-4.6 5.4-6.3 8.5-1.5 2.7-5.2 11.1-9.5 11.1-3.7 0.1-4.9-7.1-6.2-10.2z"/>
			<path id="Layer" fill-rule="evenodd" class="s24" d="m588.3 864.4c0-51.9 16.4-69.6 24.3-81.6"/>
			<path id="Layer" class="s23" d="m581.8 845.4c-4-7.8-10.2-18.1-8.4-26.7 0.8-3.5 2.6-7 2.3-10.6-0.2-3.1-1.9-5.9-3.1-8.8-1.9-4.2-2.8-8.9-2.6-13.5 0.2-6.1 2.1-12.1 1.8-18.1-0.2-4-1.4-8-2.3-11.9-1-3.9-1.6-8-0.7-11.9 0.9-4 3.5-7.7 7.4-8.8 2.4-0.7 2.9 3.3 3.5 5.6 0.6 2.4 0.4 4.8 0.2 7.2-0.6 7.2-0.9 14.7 1.9 21.4 2.1 5.1 6 9.4 7.2 14.8 1.7 7.9-2.8 16-2.1 24.1 0.3 2.4 1 4.8 1.5 7.1 1.2 5.5 1.6 11.3 0.3 16.8-1.4 5.4-2.3 10.1-6.9 13.3z"/>
			<path id="Layer" fill-rule="evenodd" class="s24" d="m577.4 767.9c0 0 6.3 65.3 4.7 93.7"/>
			<path id="Layer" class="s4" d="m561.1 852.8h42.4l-4.8 40.2h-32.7z"/>
			<path id="Layer" fill-rule="evenodd" class="s25" d="m562.3 862.8h40"/>
		</g>
	</g>
	<path id="Layer" class="s12" d="m475.7 156h-18.4c-4.5 0-8.2-4.3-8.2-9.6 0-5.3 3.7-9.6 8.2-9.6h18.4c4.5 0 8.2 4.3 8.2 9.6 0 5.3-3.7 9.6-8.2 9.6z"/>
	<path id="Layer" fill-rule="evenodd" class="s22" d="m475.7 157h-18.4c-5 0-9.1-4.8-9.1-10.6 0-5.8 4.1-10.5 9.1-10.5h18.4c5 0 9.1 4.7 9.1 10.5 0 5.8-4.1 10.6-9.1 10.6zm-18.4-19.2c-4.1 0-7.4 3.8-7.4 8.6 0 4.8 3.3 8.6 7.4 8.6h18.4c4.1 0 7.4-3.8 7.4-8.6 0-4.8-3.3-8.6-7.4-8.6z"/>
	<path id="Layer" class="s21" d="m466.5 222.8c9.5 0 17.2-9 17.2-20 0-11-7.7-20-17.2-20-9.5 0-17.2 9-17.2 20 0 11 7.7 20 17.2 20z"/>
	<path id="Layer" fill-rule="evenodd" class="s22" d="m466.5 223.7c-10 0-18.1-9.3-18.1-20.9 0-11.5 8.1-20.9 18.1-20.9 9.9 0 18 9.4 18 20.9 0 11.6-8.1 20.9-18 20.9zm0-39.9c-9 0-16.4 8.5-16.4 19 0 10.5 7.4 19 16.4 19 9 0 16.4-8.5 16.4-19 0-10.5-7.4-19-16.4-19z"/>
	<path id="Layer" class="s22" d="m466-3h-1v139.5h1z"/>
	<path id="Layer" class="s12" d="m518.2 204.3c0 0.5-103.4 0.6-103.4 0 0-33.1 23.2-59.9 51.7-59.9 28.5 0 51.7 26.8 51.7 59.9z"/>
	<path id="Layer" fill-rule="evenodd" class="s22" d="m465.7 205.7c-12.7 0-25.5 0-35-0.1q-16.7-0.1-16.7-1.3c0-33.5 23.6-60.9 52.5-60.9 28.9 0 52.5 27.4 52.5 60.9q0 1.2-17.3 1.3c-9.8 0.1-22.9 0.1-35.9 0.1zm-50.1-2.2c8.7 0.4 93 0.4 101.7 0-0.5-32.1-23.1-58.1-50.9-58.1-27.7 0-50.4 26-50.8 58.1z"/>
</svg>