<svg width="108" height="31" viewBox="0 0 108 31" fill="none" xmlns="http://www.w3.org/2000/svg">
<path d="M10.1 5.9V5.89988L10.0878 5.90012C9.30413 5.91603 8.56169 6.07567 7.86621 6.38221C7.18157 6.68397 6.57411 7.09864 6.06313 7.6117C5.53156 8.13052 5.13807 8.72599 4.83226 9.40031C4.51825 10.0927 4.35082 10.8238 4.35082 11.6031V14.0506H2.81148C2.39993 14.0506 2.08651 14.2116 1.83824 14.4315C1.53259 14.7022 1.4 15.0603 1.4 15.4269C1.4 15.8193 1.56508 16.1571 1.81736 16.4029C2.09346 16.6719 2.44368 16.7887 2.81148 16.7887H4.33607V28.695C4.33607 29.0996 4.49884 29.4279 4.73344 29.6793C5.01085 29.9766 5.37079 30.1 5.73279 30.1C6.13504 30.1 6.44802 29.9346 6.69127 29.7192C7.00526 29.441 7.12951 29.0776 7.12951 28.695V16.7887H9.22951C9.62742 16.7887 9.93256 16.6269 10.1642 16.4423L9.81449 16.0036L10.1642 16.4423C10.5016 16.1733 10.6262 15.7938 10.6262 15.4269C10.6262 15.0427 10.4822 14.7172 10.2089 14.4509C9.93592 14.1849 9.60916 14.0506 9.22951 14.0506H7.14426V11.6125C7.1577 11.2021 7.24443 10.8219 7.40232 10.467C7.56676 10.0972 7.77604 9.78882 8.04002 9.53162C8.31163 9.26699 8.63254 9.05022 9.0055 8.89275C9.37534 8.73661 9.7682 8.6525 10.2033 8.6525H10.2215L10.2397 8.65139C10.5818 8.63056 10.9228 8.51983 11.1974 8.25225C11.4578 7.99856 11.6 7.67233 11.6 7.305C11.6 6.90035 11.4372 6.5721 11.2026 6.32067C10.918 6.01568 10.5529 5.9 10.1738 5.9H10.1Z" fill="#111111" stroke="#111111" stroke-width="1.2"/>
<path d="M32.1973 12.3181L31.7776 12.7468L32.1973 12.3181C31.9325 12.0588 31.602 11.929 31.2289 11.929C30.8726 11.929 30.4934 12.0398 30.2062 12.3423C29.9264 12.6212 29.7985 12.9647 29.7985 13.342V21.1815C29.7985 22.0132 29.6619 22.8141 29.3904 23.5732C29.1027 24.3363 28.7091 24.9973 28.227 25.548C27.7513 26.0912 27.1523 26.5364 26.4507 26.8666C25.7716 27.1862 24.9863 27.3466 24.126 27.3466C23.2691 27.3466 22.4946 27.1875 21.7787 26.863C21.0406 26.5284 20.4097 26.0923 19.8904 25.5448C19.3679 24.994 18.9599 24.3453 18.6426 23.6025C18.3536 22.926 18.2043 22.198 18.1881 21.4246L18.2015 21.3984V21.2541V13.2985C18.2015 12.9144 18.0775 12.5494 17.7631 12.2696C17.492 12.0283 17.1579 11.9 16.8007 11.9C16.4436 11.9 16.1094 12.0283 15.8384 12.2696C15.524 12.5494 15.4 12.9144 15.4 13.2985V21.2686C15.4 22.4754 15.6215 23.6124 16.0671 24.6886C16.4971 25.7632 17.1186 26.6992 17.8978 27.4938C18.6835 28.3095 19.6098 28.9327 20.6674 29.3962C21.7413 29.867 22.8915 30.1 24.126 30.1C25.3592 30.1 26.5122 29.8675 27.5612 29.3935C28.5909 28.9282 29.4884 28.3028 30.2443 27.4847C31.0001 26.6811 31.5722 25.7273 31.9816 24.6634C32.3949 23.5897 32.6 22.4565 32.6 21.2541V13.3275C32.6 12.9668 32.4824 12.5972 32.1973 12.3181Z" fill="#111111" stroke="#111111" stroke-width="1.2"/>
<path d="M41.4144 30.1H41.4383L41.4621 30.0981C41.7886 30.0721 42.1117 29.9292 42.3326 29.616C42.5137 29.3594 42.6 29.0627 42.6 28.7242C42.6 28.3983 42.5127 28.0866 42.3197 27.8158C42.0927 27.4972 41.7656 27.3373 41.3919 27.3342V27.3341C40.6106 27.3341 40.0162 27.0342 39.5689 26.418C39.1021 25.7748 38.8162 24.8337 38.8162 23.5525V7.3045C38.8162 6.99388 38.7427 6.64397 38.5086 6.35954C38.2879 6.06329 37.9692 5.9 37.6081 5.9C37.1991 5.9 36.9124 6.12157 36.7258 6.33804C36.4798 6.62333 36.4 6.96648 36.4 7.3045V23.495C36.4 24.4503 36.519 25.3253 36.7498 26.1312L36.7498 26.1312L36.7506 26.1342C36.98 26.9197 37.3128 27.6371 37.7615 28.226C38.2033 28.8056 38.7298 29.2673 39.3535 29.5988C39.9858 29.9349 40.6802 30.1 41.4144 30.1Z" fill="#111111" stroke="#111111" stroke-width="1.2"/>
<path d="M46.4 20.3861C46.4 20.4298 46.4045 20.4725 46.4103 20.5097L46.4 20.5461V20.6291C46.4 21.9187 46.6389 23.1536 47.1376 24.3115C47.6171 25.4594 48.2896 26.4649 49.1381 27.3241C49.9906 28.1875 50.9848 28.8515 52.1124 29.35C53.259 29.857 54.4823 30.1 55.76 30.1C56.9622 30.1 58.1337 29.8724 59.2553 29.4181C60.3731 28.9653 61.3301 28.3444 62.1292 27.5193C62.4031 27.2411 62.6 26.8855 62.6 26.4468C62.6 26.0569 62.4694 25.693 62.1532 25.3995L62.1514 25.3978C61.8986 25.1651 61.5791 25.0114 61.22 25.0114C60.9889 25.0114 60.7515 25.065 60.5208 25.1948C60.3484 25.2918 60.2104 25.3916 60.0767 25.5076L60.0671 25.516L60.0579 25.5247C59.434 26.1144 58.752 26.5533 58.0127 26.8256C57.2562 27.1041 56.4566 27.2443 55.625 27.2443C54.7231 27.2443 53.8789 27.051 53.1016 26.692C52.3211 26.3315 51.6478 25.8316 51.0666 25.215C50.4891 24.6023 50.0335 23.8908 49.7004 23.0756C49.3698 22.2664 49.205 21.4321 49.205 20.5532C49.205 20.5514 49.2053 20.5206 49.2028 20.4873C49.2022 20.4798 49.2015 20.4718 49.2006 20.4631C49.2011 20.4586 49.2015 20.4543 49.2019 20.4501C49.2031 20.437 49.2039 20.425 49.2044 20.4144L49.2049 20.3993L49.205 20.3925L49.205 20.3892L49.205 20.3876L49.205 20.3868L49.205 20.3864C49.205 20.3864 49.205 20.3863 49.1875 20.3863C49.1875 20.3862 49.1875 20.3861 49.1875 20.3861H49.205C49.205 19.4743 49.3707 18.6282 49.7121 17.8261C50.0595 17.0098 50.5286 16.2997 51.1169 15.7039L51.117 15.7039L51.1217 15.6989C51.7097 15.0897 52.3956 14.6154 53.1876 14.2491C53.9633 13.9052 54.8088 13.7253 55.7 13.7253C56.531 13.7253 57.3144 13.8653 58.0543 14.1428C58.7862 14.4173 59.4509 14.8281 60.0519 15.3937C60.1897 15.5306 60.3563 15.6358 60.4615 15.7022C60.4676 15.706 60.4735 15.7097 60.4791 15.7133C60.7135 15.8616 60.9653 15.9127 61.19 15.9127C61.5663 15.9127 61.8678 15.7572 62.1137 15.5333C62.4378 15.2516 62.6 14.8748 62.6 14.4772C62.6 14.0588 62.4075 13.6876 62.1293 13.4048C61.3302 12.5797 60.3697 11.9553 59.2412 11.5308C58.123 11.1102 56.9564 10.9 55.76 10.9C54.4835 10.9 53.2613 11.1425 52.1157 11.6485C50.9802 12.1349 49.9866 12.8166 49.1381 13.6759C48.2856 14.5391 47.6306 15.5451 47.139 16.6852C46.6392 17.8446 46.4 19.0806 46.4 20.3861ZM48.605 20.3861L48.6673 20.3861C48.6473 20.3861 48.6265 20.3861 48.605 20.3861Z" fill="#111111" stroke="#111111" stroke-width="1.2"/>
<path d="M70.8525 16.6578L70.8525 16.6578L70.8569 16.6529C71.3969 16.0394 72.0474 15.5558 72.7903 15.19C73.4045 14.893 74.032 14.7247 74.6919 14.6763H75.0987H75.2577C75.6316 14.6763 75.957 14.5374 76.2144 14.2774C76.4987 13.9901 76.6 13.6162 76.6 13.2808C76.6 12.937 76.4953 12.6084 76.2807 12.3434L76.2709 12.3312L76.2605 12.3196C75.9911 12.0203 75.6287 11.9 75.2577 11.9H75.0987C73.8846 11.9 72.7456 12.1549 71.6776 12.6842C70.6302 13.2034 69.7056 13.8982 68.923 14.7838C68.1439 15.6655 67.525 16.6997 67.0771 17.8509C66.6241 19.0151 66.4 20.268 66.4 21.5745V28.6898C66.4 29.0414 66.5021 29.3938 66.7755 29.676C67.04 29.9645 67.3744 30.1 67.7555 30.1C68.1541 30.1 68.4647 29.9035 68.6787 29.6656C68.9286 29.3879 69.0315 29.044 69.0315 28.6898V21.5745C69.0315 20.5963 69.1923 19.6991 69.5204 18.8619C69.8549 18.0081 70.2961 17.2762 70.8525 16.6578Z" fill="#111111" stroke="#111111" stroke-width="1.2"/>
<path d="M83.0667 13.7196L83.0667 13.7196L83.0628 13.7237C82.2329 14.5994 81.591 15.6177 81.12 16.7716C80.628 17.9567 80.4 19.2019 80.4 20.5152C80.4 21.8188 80.6443 23.0626 81.1193 24.2267C81.5904 25.3813 82.2325 26.4002 83.0628 27.2763C83.8933 28.1528 84.8622 28.8336 85.9638 29.3341C87.075 29.839 88.2508 30.1 89.5144 30.1C90.7768 30.1 91.9671 29.8395 93.0793 29.3341C94.1805 28.8338 95.1513 28.1522 95.9698 27.2723C96.7828 26.3981 97.4241 25.3811 97.8951 24.2267C98.3716 23.0586 98.6 21.8295 98.6 20.5152C98.6 19.2033 98.3725 17.944 97.8956 16.7747C97.425 15.6056 96.7834 14.5868 95.9679 13.7257C95.1498 12.8468 94.1797 12.1658 93.0793 11.6659C91.9666 11.1603 90.7619 10.9 89.5144 10.9C88.2657 10.9 87.0755 11.1608 85.9638 11.6659C84.8584 12.1681 83.8922 12.8646 83.0667 13.7196ZM95.3469 23.1098L95.3469 23.1097L95.3439 23.1175C95.0274 23.9385 94.5662 24.6617 93.999 25.2741C93.437 25.8809 92.7702 26.365 91.9934 26.7268C91.2261 27.0692 90.3922 27.2485 89.5 27.2485C88.6016 27.2485 87.7854 27.082 87.0267 26.7295C86.2527 26.3631 85.5749 25.8919 85.0199 25.2791C84.4464 24.6457 83.9836 23.9328 83.6531 23.1098C83.3222 22.2857 83.1507 21.4221 83.1507 20.5152C83.1507 19.5772 83.3225 18.7125 83.6544 17.8719C83.9843 17.0362 84.445 16.3272 85.013 15.7133C85.5928 15.102 86.2604 14.6197 87.0312 14.275C87.802 13.9303 88.6089 13.7515 89.5 13.7515C90.3915 13.7515 91.2249 13.9305 91.9917 14.2724C92.7644 14.6387 93.4431 15.1105 93.999 15.7107C94.5625 16.3192 95.0129 17.0433 95.3469 17.8751C95.6744 18.6905 95.835 19.5985 95.835 20.5152C95.835 21.4282 95.6756 22.2912 95.3469 23.1098Z" fill="#111111" stroke="#111111" stroke-width="1.2"/>
<ellipse cx="99.3221" cy="3.4011" rx="1.89831" ry="1.84615" fill="#52682D"/>
<ellipse cx="104.474" cy="2.34615" rx="1.89831" ry="1.84615" fill="#39D200"/>
<ellipse cx="105.288" cy="7.35714" rx="1.89831" ry="1.84615" fill="#EE1C25"/>
<ellipse cx="106.102" cy="12.3681" rx="1.89831" ry="1.84615" fill="#111111"/>
<ellipse cx="94.1693" cy="4.45605" rx="1.89831" ry="1.84615" fill="#0188B2"/>
</svg>
